<svg xmlns="http://www.w3.org/2000/svg" xmlns:xlink="http://www.w3.org/1999/xlink" width="500" zoomAndPan="magnify" viewBox="0 0 375 74.999997" height="100" preserveAspectRatio="xMidYMid meet" version="1.0"><defs><g/><clipPath id="e1e4b9f369"><path d="M 15.839844 11.503906 L 67.589844 11.503906 L 67.589844 63.253906 L 15.839844 63.253906 Z M 15.839844 11.503906 " clip-rule="nonzero"/></clipPath><clipPath id="7c680e59ad"><path d="M 45.324219 12.992188 C 45.808594 13.480469 46.183594 14.070312 46.398438 14.667969 C 46.660156 15.300781 46.8125 15.929688 46.8125 16.601562 C 46.8125 17.089844 46.742188 17.566406 46.628906 18.019531 C 46.511719 18.351562 46.367188 18.722656 46.183594 19.023438 L 50.351562 23.191406 C 51.097656 22.863281 51.914062 22.746094 52.6875 22.863281 C 53.546875 22.976562 54.394531 23.378906 55.027344 24.050781 C 55.84375 24.867188 56.289062 25.945312 56.289062 27.03125 C 56.289062 28.074219 55.84375 29.152344 55.058594 29.96875 C 54.242188 30.785156 53.164062 31.199219 52.078125 31.199219 C 50.992188 31.199219 49.925781 30.785156 49.097656 29.96875 C 48.425781 29.296875 48.054688 28.476562 47.910156 27.628906 C 47.796875 26.855469 47.910156 26.027344 48.242188 25.292969 L 44.113281 21.125 C 43.78125 21.308594 43.441406 21.453125 43.070312 21.539062 C 42.625 21.683594 42.136719 21.722656 41.691406 21.722656 C 41.207031 21.722656 40.730469 21.683594 40.277344 21.539062 C 39.945312 21.464844 39.605469 21.308594 39.273438 21.125 L 35.144531 25.261719 C 35.476562 26.007812 35.589844 26.824219 35.476562 27.597656 C 35.363281 28.457031 34.960938 29.273438 34.285156 29.9375 C 33.613281 30.597656 32.796875 31.011719 31.949219 31.125 C 31.171875 31.238281 30.347656 31.125 29.613281 30.796875 L 25.441406 34.964844 C 25.628906 35.261719 25.773438 35.636719 25.855469 35.96875 C 26 36.410156 26.085938 36.898438 26.085938 37.382812 C 26.085938 37.828125 26.011719 38.316406 25.855469 38.761719 C 25.785156 39.132812 25.628906 39.464844 25.441406 39.804688 L 29.613281 43.933594 C 30.355469 43.601562 31.171875 43.488281 31.949219 43.601562 C 32.808594 43.746094 33.625 44.117188 34.285156 44.789062 C 34.949219 45.460938 35.363281 46.28125 35.476562 47.128906 C 35.589844 47.945312 35.476562 48.761719 35.144531 49.464844 L 39.3125 53.632812 C 39.644531 53.449219 39.988281 53.335938 40.316406 53.21875 C 40.761719 53.105469 41.25 53.035156 41.734375 53.035156 C 42.179688 53.035156 42.664062 53.105469 43.109375 53.21875 C 43.484375 53.335938 43.8125 53.449219 44.15625 53.632812 L 48.28125 49.464844 C 47.953125 48.761719 47.835938 47.945312 47.953125 47.128906 C 48.097656 46.269531 48.46875 45.453125 49.140625 44.789062 C 49.957031 43.972656 51.035156 43.558594 52.121094 43.558594 C 53.207031 43.558594 54.269531 43.972656 55.058594 44.789062 C 55.875 45.609375 56.289062 46.683594 56.289062 47.769531 C 56.289062 48.855469 55.875 49.890625 55.058594 50.707031 C 54.425781 51.378906 53.566406 51.78125 52.71875 51.894531 C 51.945312 52.011719 51.117188 51.894531 50.382812 51.566406 L 46.253906 55.734375 C 46.398438 56.066406 46.554688 56.40625 46.667969 56.738281 C 46.78125 57.222656 46.855469 57.667969 46.855469 58.15625 C 46.855469 58.828125 46.710938 59.488281 46.441406 60.128906 C 46.214844 60.730469 45.839844 61.277344 45.367188 61.765625 C 44.878906 62.25 44.289062 62.621094 43.691406 62.882812 C 43.058594 63.140625 42.425781 63.253906 41.753906 63.253906 C 41.082031 63.253906 40.421875 63.140625 39.78125 62.882812 C 39.179688 62.621094 38.632812 62.25 38.144531 61.765625 C 37.660156 61.277344 37.285156 60.71875 37.027344 60.128906 C 36.769531 59.5 36.65625 58.828125 36.65625 58.15625 C 36.65625 57.667969 36.695312 57.222656 36.84375 56.738281 C 36.914062 56.40625 37.070312 56.066406 37.253906 55.734375 L 33.085938 51.566406 C 32.34375 51.894531 31.523438 52.011719 30.75 51.894531 C 29.890625 51.78125 29.074219 51.378906 28.410156 50.707031 C 27.738281 50.074219 27.335938 49.21875 27.222656 48.371094 C 27.109375 47.59375 27.222656 46.765625 27.554688 46.03125 L 23.382812 41.863281 C 23.085938 42.050781 22.710938 42.195312 22.382812 42.308594 C 21.9375 42.421875 21.449219 42.492188 20.964844 42.492188 C 20.332031 42.492188 19.660156 42.347656 19.03125 42.082031 C 18.429688 41.851562 17.839844 41.480469 17.355469 41.003906 C 16.867188 40.519531 16.496094 39.929688 16.277344 39.328125 C 16.019531 38.699219 15.863281 38.027344 15.863281 37.394531 C 15.863281 36.722656 16.007812 36.058594 16.277344 35.417969 C 16.507812 34.820312 16.878906 34.269531 17.355469 33.785156 C 17.832031 33.296875 18.429688 32.925781 19.03125 32.667969 C 19.660156 32.410156 20.332031 32.253906 20.964844 32.253906 C 21.824219 32.253906 22.640625 32.480469 23.382812 32.882812 L 27.554688 28.714844 C 27.222656 27.972656 27.109375 27.152344 27.222656 26.378906 C 27.335938 25.519531 27.738281 24.703125 28.410156 24.039062 C 29.085938 23.367188 29.902344 22.964844 30.75 22.851562 C 31.523438 22.738281 32.351562 22.851562 33.085938 23.183594 L 37.253906 19.011719 C 37.070312 18.714844 36.925781 18.339844 36.84375 18.011719 C 36.695312 17.566406 36.65625 17.078125 36.65625 16.59375 C 36.65625 15.960938 36.769531 15.289062 37.027344 14.660156 C 37.285156 14.058594 37.660156 13.46875 38.144531 12.984375 C 38.632812 12.496094 39.160156 12.136719 39.75 11.917969 C 40.378906 11.660156 41.050781 11.503906 41.722656 11.503906 C 43.027344 11.503906 44.320312 12.019531 45.324219 12.992188 Z M 43.804688 58.132812 C 43.804688 57.875 43.730469 57.574219 43.660156 57.316406 C 43.542969 57.089844 43.398438 56.871094 43.171875 56.644531 C 42.984375 56.457031 42.757812 56.3125 42.5 56.199219 C 42.242188 56.085938 41.984375 56.054688 41.722656 56.054688 C 41.425781 56.054688 41.164062 56.097656 40.90625 56.199219 C 40.679688 56.3125 40.421875 56.457031 40.234375 56.644531 C 40.046875 56.871094 39.902344 57.089844 39.789062 57.316406 C 39.675781 57.574219 39.605469 57.875 39.605469 58.132812 C 39.605469 58.390625 39.675781 58.691406 39.789062 58.910156 C 39.902344 59.167969 40.046875 59.394531 40.234375 59.613281 C 40.421875 59.800781 40.679688 59.945312 40.90625 60.058594 C 41.164062 60.171875 41.425781 60.203125 41.722656 60.203125 C 41.984375 60.203125 42.242188 60.160156 42.5 60.058594 C 42.757812 59.945312 42.984375 59.800781 43.171875 59.613281 C 43.398438 59.386719 43.542969 59.167969 43.660156 58.910156 C 43.730469 58.683594 43.804688 58.390625 43.804688 58.132812 Z M 23.054688 37.382812 C 23.054688 37.085938 22.980469 36.824219 22.867188 36.566406 C 22.796875 36.339844 22.609375 36.082031 22.421875 35.894531 C 22.238281 35.707031 21.976562 35.523438 21.75 35.449219 C 21.492188 35.335938 21.234375 35.261719 20.933594 35.261719 C 20.675781 35.261719 20.417969 35.335938 20.15625 35.449219 C 19.898438 35.523438 19.671875 35.707031 19.484375 35.894531 C 19.257812 36.082031 19.113281 36.339844 19 36.566406 C 18.925781 36.824219 18.855469 37.085938 18.855469 37.382812 C 18.855469 37.644531 18.925781 37.902344 19 38.160156 C 19.113281 38.417969 19.257812 38.644531 19.484375 38.832031 C 19.671875 39.058594 19.898438 39.203125 20.15625 39.320312 C 20.417969 39.390625 20.675781 39.464844 20.933594 39.464844 C 21.234375 39.464844 21.492188 39.390625 21.75 39.320312 C 21.976562 39.203125 22.238281 39.058594 22.421875 38.832031 C 22.609375 38.644531 22.796875 38.417969 22.867188 38.160156 C 22.980469 37.902344 23.054688 37.644531 23.054688 37.382812 Z M 66.074219 33.773438 C 66.558594 34.261719 66.933594 34.820312 67.191406 35.410156 C 67.449219 36.039062 67.5625 36.710938 67.5625 37.382812 C 67.5625 38.015625 67.449219 38.6875 67.191406 39.320312 C 66.933594 39.917969 66.558594 40.507812 66.074219 40.992188 C 65.585938 41.480469 65.027344 41.851562 64.4375 42.070312 C 63.808594 42.328125 63.136719 42.484375 62.464844 42.484375 C 61.792969 42.484375 61.128906 42.339844 60.488281 42.070312 C 59.886719 41.84375 59.339844 41.46875 58.855469 40.992188 C 58.367188 40.507812 57.996094 39.917969 57.738281 39.320312 C 57.476562 38.6875 57.363281 38.015625 57.363281 37.382812 C 57.363281 36.710938 57.476562 36.050781 57.738281 35.410156 C 57.996094 34.808594 58.367188 34.261719 58.855469 33.773438 C 59.339844 33.289062 59.898438 32.914062 60.488281 32.65625 C 61.117188 32.398438 61.792969 32.285156 62.464844 32.285156 C 63.136719 32.285156 63.796875 32.398438 64.4375 32.65625 C 65.039062 32.914062 65.585938 33.289062 66.074219 33.773438 Z M 64.554688 37.382812 C 64.554688 37.085938 64.511719 36.824219 64.40625 36.566406 C 64.292969 36.339844 64.148438 36.082031 63.964844 35.894531 C 63.734375 35.707031 63.519531 35.523438 63.261719 35.449219 C 63.03125 35.335938 62.742188 35.261719 62.484375 35.261719 C 62.226562 35.261719 61.925781 35.335938 61.667969 35.449219 C 61.441406 35.523438 61.222656 35.707031 60.996094 35.894531 C 60.808594 36.082031 60.664062 36.339844 60.550781 36.566406 C 60.4375 36.824219 60.40625 37.085938 60.40625 37.382812 C 60.40625 37.644531 60.445312 37.902344 60.550781 38.160156 C 60.664062 38.417969 60.808594 38.644531 60.996094 38.832031 C 61.222656 39.058594 61.441406 39.203125 61.667969 39.320312 C 61.925781 39.390625 62.226562 39.464844 62.484375 39.464844 C 62.742188 39.464844 63.042969 39.390625 63.261719 39.320312 C 63.519531 39.203125 63.746094 39.058594 63.964844 38.832031 C 64.148438 38.644531 64.292969 38.417969 64.40625 38.160156 C 64.511719 37.902344 64.554688 37.644531 64.554688 37.382812 Z M 44.734375 34.332031 C 45.148438 34.746094 45.4375 35.222656 45.664062 35.75 C 45.894531 36.265625 45.996094 36.824219 45.996094 37.382812 C 45.996094 37.941406 45.882812 38.5 45.664062 39.019531 C 45.4375 39.503906 45.148438 39.980469 44.734375 40.394531 C 44.320312 40.808594 43.84375 41.097656 43.359375 41.324219 C 42.839844 41.550781 42.28125 41.65625 41.722656 41.65625 C 41.164062 41.65625 40.605469 41.542969 40.046875 41.324219 C 39.5625 41.097656 39.085938 40.808594 38.671875 40.394531 C 38.257812 39.980469 37.96875 39.503906 37.742188 39.019531 C 37.515625 38.5 37.410156 37.941406 37.410156 37.382812 C 37.410156 36.824219 37.523438 36.265625 37.742188 35.75 C 37.960938 35.234375 38.257812 34.746094 38.671875 34.332031 C 39.085938 33.917969 39.5625 33.628906 40.046875 33.402344 C 40.605469 33.175781 41.164062 33.101562 41.722656 33.070312 C 42.28125 33.113281 42.839844 33.183594 43.359375 33.402344 C 43.84375 33.628906 44.320312 33.929688 44.734375 34.332031 Z M 43.359375 37.382812 C 43.359375 37.15625 43.316406 36.9375 43.246094 36.753906 C 43.171875 36.527344 43.058594 36.339844 42.871094 36.195312 C 42.726562 36.050781 42.542969 35.9375 42.355469 35.820312 C 42.128906 35.75 41.910156 35.707031 41.722656 35.707031 C 41.496094 35.707031 41.28125 35.75 41.09375 35.820312 C 40.867188 35.9375 40.679688 36.050781 40.535156 36.195312 C 40.390625 36.339844 40.277344 36.527344 40.164062 36.753906 C 40.089844 36.9375 40.046875 37.167969 40.046875 37.382812 C 40.046875 37.570312 40.089844 37.796875 40.164062 38.015625 C 40.277344 38.203125 40.390625 38.386719 40.535156 38.53125 C 40.679688 38.71875 40.867188 38.832031 41.09375 38.90625 C 41.28125 38.976562 41.507812 39.019531 41.722656 39.019531 C 41.910156 39.019531 42.136719 38.976562 42.355469 38.90625 C 42.542969 38.832031 42.726562 38.71875 42.871094 38.53125 C 43.058594 38.386719 43.171875 38.203125 43.246094 38.015625 C 43.316406 37.789062 43.359375 37.570312 43.359375 37.382812 Z M 43.804688 16.59375 C 43.804688 16.335938 43.730469 16.074219 43.660156 15.816406 C 43.542969 15.558594 43.398438 15.332031 43.171875 15.144531 C 42.984375 14.917969 42.757812 14.773438 42.5 14.660156 C 42.242188 14.585938 41.984375 14.515625 41.722656 14.515625 C 41.425781 14.515625 41.164062 14.585938 40.90625 14.660156 C 40.679688 14.773438 40.421875 14.917969 40.234375 15.144531 C 40.046875 15.332031 39.902344 15.558594 39.789062 15.816406 C 39.675781 16.074219 39.605469 16.335938 39.605469 16.59375 C 39.605469 16.894531 39.675781 17.152344 39.789062 17.410156 C 39.902344 17.636719 40.046875 17.894531 40.234375 18.082031 C 40.421875 18.269531 40.679688 18.453125 40.90625 18.527344 C 41.164062 18.640625 41.425781 18.714844 41.722656 18.714844 C 41.984375 18.714844 42.242188 18.640625 42.5 18.527344 C 42.757812 18.453125 42.984375 18.269531 43.171875 18.082031 C 43.398438 17.894531 43.542969 17.636719 43.660156 17.410156 C 43.730469 17.152344 43.804688 16.894531 43.804688 16.59375 Z M 43.804688 16.59375 " clip-rule="nonzero"/></clipPath><linearGradient x1="-3063.033493" gradientTransform="matrix(0.0039534, 0, 0, -0.0039534, 29.508246, 55.5081)" y1="-2305.501484" x2="9235.562869" gradientUnits="userSpaceOnUse" y2="11478.931916" id="5d33f3f717"><stop stop-opacity="1" stop-color="rgb(97.999573%, 74.099731%, 8.599854%)" offset="0"/><stop stop-opacity="1" stop-color="rgb(97.999573%, 74.099731%, 8.599854%)" offset="0.125"/><stop stop-opacity="1" stop-color="rgb(97.999573%, 74.099731%, 8.599854%)" offset="0.15625"/><stop stop-opacity="1" stop-color="rgb(98.002625%, 73.980713%, 8.583069%)" offset="0.164062"/><stop stop-opacity="1" stop-color="rgb(98.01178%, 73.622131%, 8.535767%)" offset="0.167969"/><stop stop-opacity="1" stop-color="rgb(98.019409%, 73.384094%, 8.505249%)" offset="0.171875"/><stop stop-opacity="1" stop-color="rgb(98.025513%, 73.144531%, 8.473206%)" offset="0.175781"/><stop stop-opacity="1" stop-color="rgb(98.033142%, 72.906494%, 8.441162%)" offset="0.179688"/><stop stop-opacity="1" stop-color="rgb(98.039246%, 72.666931%, 8.409119%)" offset="0.183594"/><stop stop-opacity="1" stop-color="rgb(98.046875%, 72.427368%, 8.378601%)" offset="0.1875"/><stop stop-opacity="1" stop-color="rgb(98.052979%, 72.187805%, 8.346558%)" offset="0.191406"/><stop stop-opacity="1" stop-color="rgb(98.060608%, 71.949768%, 8.314514%)" offset="0.195312"/><stop stop-opacity="1" stop-color="rgb(98.066711%, 71.710205%, 8.282471%)" offset="0.199219"/><stop stop-opacity="1" stop-color="rgb(98.074341%, 71.472168%, 8.251953%)" offset="0.203125"/><stop stop-opacity="1" stop-color="rgb(98.080444%, 71.232605%, 8.21991%)" offset="0.207031"/><stop stop-opacity="1" stop-color="rgb(98.088074%, 70.993042%, 8.187866%)" offset="0.210938"/><stop stop-opacity="1" stop-color="rgb(98.095703%, 70.753479%, 8.155823%)" offset="0.214844"/><stop stop-opacity="1" stop-color="rgb(98.103333%, 70.515442%, 8.125305%)" offset="0.21875"/><stop stop-opacity="1" stop-color="rgb(98.109436%, 70.275879%, 8.093262%)" offset="0.222656"/><stop stop-opacity="1" stop-color="rgb(98.117065%, 70.037842%, 8.062744%)" offset="0.226562"/><stop stop-opacity="1" stop-color="rgb(98.123169%, 69.798279%, 8.030701%)" offset="0.230469"/><stop stop-opacity="1" stop-color="rgb(98.130798%, 69.558716%, 7.998657%)" offset="0.234375"/><stop stop-opacity="1" stop-color="rgb(98.136902%, 69.319153%, 7.966614%)" offset="0.238281"/><stop stop-opacity="1" stop-color="rgb(98.144531%, 69.081116%, 7.936096%)" offset="0.242187"/><stop stop-opacity="1" stop-color="rgb(98.150635%, 68.841553%, 7.904053%)" offset="0.246094"/><stop stop-opacity="1" stop-color="rgb(98.158264%, 68.603516%, 7.872009%)" offset="0.25"/><stop stop-opacity="1" stop-color="rgb(98.164368%, 68.363953%, 7.839966%)" offset="0.253906"/><stop stop-opacity="1" stop-color="rgb(98.171997%, 68.12439%, 7.809448%)" offset="0.257812"/><stop stop-opacity="1" stop-color="rgb(98.178101%, 67.884827%, 7.777405%)" offset="0.261719"/><stop stop-opacity="1" stop-color="rgb(98.18573%, 67.64679%, 7.745361%)" offset="0.265625"/><stop stop-opacity="1" stop-color="rgb(98.191833%, 67.407227%, 7.713318%)" offset="0.269531"/><stop stop-opacity="1" stop-color="rgb(98.199463%, 67.169189%, 7.6828%)" offset="0.273437"/><stop stop-opacity="1" stop-color="rgb(98.205566%, 66.929626%, 7.650757%)" offset="0.277344"/><stop stop-opacity="1" stop-color="rgb(98.213196%, 66.690063%, 7.620239%)" offset="0.28125"/><stop stop-opacity="1" stop-color="rgb(98.219299%, 66.4505%, 7.588196%)" offset="0.285156"/><stop stop-opacity="1" stop-color="rgb(98.226929%, 66.212463%, 7.556152%)" offset="0.289062"/><stop stop-opacity="1" stop-color="rgb(98.233032%, 65.9729%, 7.524109%)" offset="0.292969"/><stop stop-opacity="1" stop-color="rgb(98.240662%, 65.734863%, 7.493591%)" offset="0.296875"/><stop stop-opacity="1" stop-color="rgb(98.246765%, 65.4953%, 7.461548%)" offset="0.300781"/><stop stop-opacity="1" stop-color="rgb(98.254395%, 65.255737%, 7.429504%)" offset="0.304687"/><stop stop-opacity="1" stop-color="rgb(98.260498%, 65.016174%, 7.397461%)" offset="0.308594"/><stop stop-opacity="1" stop-color="rgb(98.268127%, 64.778137%, 7.366943%)" offset="0.3125"/><stop stop-opacity="1" stop-color="rgb(98.274231%, 64.538574%, 7.3349%)" offset="0.316406"/><stop stop-opacity="1" stop-color="rgb(98.28186%, 64.300537%, 7.304382%)" offset="0.320312"/><stop stop-opacity="1" stop-color="rgb(98.287964%, 64.060974%, 7.272339%)" offset="0.324219"/><stop stop-opacity="1" stop-color="rgb(98.295593%, 63.821411%, 7.240295%)" offset="0.328125"/><stop stop-opacity="1" stop-color="rgb(98.301697%, 63.581848%, 7.208252%)" offset="0.332031"/><stop stop-opacity="1" stop-color="rgb(98.309326%, 63.343811%, 7.177734%)" offset="0.335938"/><stop stop-opacity="1" stop-color="rgb(98.31543%, 63.104248%, 7.145691%)" offset="0.339844"/><stop stop-opacity="1" stop-color="rgb(98.323059%, 62.866211%, 7.113647%)" offset="0.34375"/><stop stop-opacity="1" stop-color="rgb(98.329163%, 62.626648%, 7.081604%)" offset="0.347656"/><stop stop-opacity="1" stop-color="rgb(98.336792%, 62.387085%, 7.051086%)" offset="0.351562"/><stop stop-opacity="1" stop-color="rgb(98.342896%, 62.147522%, 7.019043%)" offset="0.355469"/><stop stop-opacity="1" stop-color="rgb(98.350525%, 61.909485%, 6.987%)" offset="0.359375"/><stop stop-opacity="1" stop-color="rgb(98.356628%, 61.669922%, 6.954956%)" offset="0.363281"/><stop stop-opacity="1" stop-color="rgb(98.364258%, 61.431885%, 6.924438%)" offset="0.367188"/><stop stop-opacity="1" stop-color="rgb(98.370361%, 61.192322%, 6.892395%)" offset="0.371094"/><stop stop-opacity="1" stop-color="rgb(98.377991%, 60.952759%, 6.861877%)" offset="0.375"/><stop stop-opacity="1" stop-color="rgb(98.384094%, 60.713196%, 6.829834%)" offset="0.378906"/><stop stop-opacity="1" stop-color="rgb(98.391724%, 60.475159%, 6.797791%)" offset="0.382812"/><stop stop-opacity="1" stop-color="rgb(98.397827%, 60.235596%, 6.765747%)" offset="0.386719"/><stop stop-opacity="1" stop-color="rgb(98.405457%, 59.997559%, 6.735229%)" offset="0.390625"/><stop stop-opacity="1" stop-color="rgb(98.41156%, 59.757996%, 6.703186%)" offset="0.394531"/><stop stop-opacity="1" stop-color="rgb(98.419189%, 59.518433%, 6.671143%)" offset="0.398438"/><stop stop-opacity="1" stop-color="rgb(98.425293%, 59.27887%, 6.639099%)" offset="0.402344"/><stop stop-opacity="1" stop-color="rgb(98.432922%, 59.040833%, 6.608582%)" offset="0.40625"/><stop stop-opacity="1" stop-color="rgb(98.439026%, 58.80127%, 6.576538%)" offset="0.410156"/><stop stop-opacity="1" stop-color="rgb(98.446655%, 58.561707%, 6.544495%)" offset="0.414062"/><stop stop-opacity="1" stop-color="rgb(98.454285%, 58.322144%, 6.512451%)" offset="0.417969"/><stop stop-opacity="1" stop-color="rgb(98.461914%, 58.084106%, 6.481934%)" offset="0.421875"/><stop stop-opacity="1" stop-color="rgb(98.468018%, 57.844543%, 6.44989%)" offset="0.425781"/><stop stop-opacity="1" stop-color="rgb(98.475647%, 57.606506%, 6.419373%)" offset="0.429688"/><stop stop-opacity="1" stop-color="rgb(98.48175%, 57.366943%, 6.387329%)" offset="0.433594"/><stop stop-opacity="1" stop-color="rgb(98.48938%, 57.12738%, 6.355286%)" offset="0.4375"/><stop stop-opacity="1" stop-color="rgb(98.495483%, 56.887817%, 6.323242%)" offset="0.441406"/><stop stop-opacity="1" stop-color="rgb(98.503113%, 56.64978%, 6.292725%)" offset="0.445312"/><stop stop-opacity="1" stop-color="rgb(98.509216%, 56.410217%, 6.260681%)" offset="0.449219"/><stop stop-opacity="1" stop-color="rgb(98.516846%, 56.17218%, 6.228638%)" offset="0.453125"/><stop stop-opacity="1" stop-color="rgb(98.522949%, 55.932617%, 6.196594%)" offset="0.457031"/><stop stop-opacity="1" stop-color="rgb(98.530579%, 55.693054%, 6.166077%)" offset="0.460938"/><stop stop-opacity="1" stop-color="rgb(98.536682%, 55.453491%, 6.134033%)" offset="0.464844"/><stop stop-opacity="1" stop-color="rgb(98.544312%, 55.215454%, 6.10199%)" offset="0.46875"/><stop stop-opacity="1" stop-color="rgb(98.550415%, 54.975891%, 6.069946%)" offset="0.472656"/><stop stop-opacity="1" stop-color="rgb(98.558044%, 54.737854%, 6.039429%)" offset="0.476562"/><stop stop-opacity="1" stop-color="rgb(98.564148%, 54.498291%, 6.007385%)" offset="0.480469"/><stop stop-opacity="1" stop-color="rgb(98.571777%, 54.258728%, 5.976868%)" offset="0.484375"/><stop stop-opacity="1" stop-color="rgb(98.577881%, 54.019165%, 5.944824%)" offset="0.488281"/><stop stop-opacity="1" stop-color="rgb(98.58551%, 53.781128%, 5.912781%)" offset="0.492188"/><stop stop-opacity="1" stop-color="rgb(98.591614%, 53.541565%, 5.880737%)" offset="0.496094"/><stop stop-opacity="1" stop-color="rgb(98.599243%, 53.303528%, 5.85022%)" offset="0.5"/><stop stop-opacity="1" stop-color="rgb(98.605347%, 53.063965%, 5.818176%)" offset="0.503906"/><stop stop-opacity="1" stop-color="rgb(98.612976%, 52.824402%, 5.786133%)" offset="0.507812"/><stop stop-opacity="1" stop-color="rgb(98.61908%, 52.584839%, 5.754089%)" offset="0.511719"/><stop stop-opacity="1" stop-color="rgb(98.626709%, 52.346802%, 5.723572%)" offset="0.515625"/><stop stop-opacity="1" stop-color="rgb(98.632812%, 52.107239%, 5.691528%)" offset="0.519531"/><stop stop-opacity="1" stop-color="rgb(98.640442%, 51.869202%, 5.659485%)" offset="0.523437"/><stop stop-opacity="1" stop-color="rgb(98.646545%, 51.629639%, 5.627441%)" offset="0.527344"/><stop stop-opacity="1" stop-color="rgb(98.654175%, 51.390076%, 5.596924%)" offset="0.53125"/><stop stop-opacity="1" stop-color="rgb(98.660278%, 51.150513%, 5.56488%)" offset="0.535156"/><stop stop-opacity="1" stop-color="rgb(98.667908%, 50.912476%, 5.534363%)" offset="0.539062"/><stop stop-opacity="1" stop-color="rgb(98.674011%, 50.672913%, 5.502319%)" offset="0.542969"/><stop stop-opacity="1" stop-color="rgb(98.681641%, 50.434875%, 5.470276%)" offset="0.546875"/><stop stop-opacity="1" stop-color="rgb(98.687744%, 50.195312%, 5.438232%)" offset="0.550781"/><stop stop-opacity="1" stop-color="rgb(98.695374%, 49.95575%, 5.407715%)" offset="0.554687"/><stop stop-opacity="1" stop-color="rgb(98.701477%, 49.716187%, 5.375671%)" offset="0.558594"/><stop stop-opacity="1" stop-color="rgb(98.709106%, 49.478149%, 5.343628%)" offset="0.5625"/><stop stop-opacity="1" stop-color="rgb(98.71521%, 49.238586%, 5.311584%)" offset="0.566406"/><stop stop-opacity="1" stop-color="rgb(98.722839%, 49.000549%, 5.281067%)" offset="0.570312"/><stop stop-opacity="1" stop-color="rgb(98.728943%, 48.760986%, 5.249023%)" offset="0.574219"/><stop stop-opacity="1" stop-color="rgb(98.736572%, 48.521423%, 5.21698%)" offset="0.578125"/><stop stop-opacity="1" stop-color="rgb(98.742676%, 48.28186%, 5.184937%)" offset="0.582031"/><stop stop-opacity="1" stop-color="rgb(98.750305%, 48.043823%, 5.154419%)" offset="0.585937"/><stop stop-opacity="1" stop-color="rgb(98.756409%, 47.80426%, 5.122375%)" offset="0.589844"/><stop stop-opacity="1" stop-color="rgb(98.764038%, 47.566223%, 5.091858%)" offset="0.59375"/><stop stop-opacity="1" stop-color="rgb(98.770142%, 47.32666%, 5.059814%)" offset="0.597656"/><stop stop-opacity="1" stop-color="rgb(98.777771%, 47.087097%, 5.027771%)" offset="0.601562"/><stop stop-opacity="1" stop-color="rgb(98.783875%, 46.847534%, 4.995728%)" offset="0.605469"/><stop stop-opacity="1" stop-color="rgb(98.791504%, 46.609497%, 4.96521%)" offset="0.609375"/><stop stop-opacity="1" stop-color="rgb(98.797607%, 46.369934%, 4.933167%)" offset="0.613281"/><stop stop-opacity="1" stop-color="rgb(98.805237%, 46.131897%, 4.901123%)" offset="0.617187"/><stop stop-opacity="1" stop-color="rgb(98.812866%, 45.892334%, 4.86908%)" offset="0.621094"/><stop stop-opacity="1" stop-color="rgb(98.820496%, 45.652771%, 4.838562%)" offset="0.625"/><stop stop-opacity="1" stop-color="rgb(98.826599%, 45.413208%, 4.806519%)" offset="0.628906"/><stop stop-opacity="1" stop-color="rgb(98.834229%, 45.175171%, 4.774475%)" offset="0.632812"/><stop stop-opacity="1" stop-color="rgb(98.840332%, 44.935608%, 4.742432%)" offset="0.636719"/><stop stop-opacity="1" stop-color="rgb(98.847961%, 44.697571%, 4.711914%)" offset="0.640625"/><stop stop-opacity="1" stop-color="rgb(98.854065%, 44.458008%, 4.679871%)" offset="0.644531"/><stop stop-opacity="1" stop-color="rgb(98.861694%, 44.218445%, 4.649353%)" offset="0.648438"/><stop stop-opacity="1" stop-color="rgb(98.867798%, 43.978882%, 4.61731%)" offset="0.652344"/><stop stop-opacity="1" stop-color="rgb(98.875427%, 43.740845%, 4.585266%)" offset="0.65625"/><stop stop-opacity="1" stop-color="rgb(98.881531%, 43.501282%, 4.553223%)" offset="0.660156"/><stop stop-opacity="1" stop-color="rgb(98.88916%, 43.263245%, 4.522705%)" offset="0.664062"/><stop stop-opacity="1" stop-color="rgb(98.895264%, 43.023682%, 4.490662%)" offset="0.667969"/><stop stop-opacity="1" stop-color="rgb(98.902893%, 42.784119%, 4.458618%)" offset="0.671875"/><stop stop-opacity="1" stop-color="rgb(98.908997%, 42.544556%, 4.426575%)" offset="0.675781"/><stop stop-opacity="1" stop-color="rgb(98.916626%, 42.306519%, 4.396057%)" offset="0.679688"/><stop stop-opacity="1" stop-color="rgb(98.922729%, 42.066956%, 4.364014%)" offset="0.683594"/><stop stop-opacity="1" stop-color="rgb(98.930359%, 41.828918%, 4.33197%)" offset="0.6875"/><stop stop-opacity="1" stop-color="rgb(98.936462%, 41.589355%, 4.299927%)" offset="0.691406"/><stop stop-opacity="1" stop-color="rgb(98.944092%, 41.349792%, 4.269409%)" offset="0.695312"/><stop stop-opacity="1" stop-color="rgb(98.950195%, 41.110229%, 4.237366%)" offset="0.699219"/><stop stop-opacity="1" stop-color="rgb(98.957825%, 40.872192%, 4.206848%)" offset="0.703125"/><stop stop-opacity="1" stop-color="rgb(98.963928%, 40.632629%, 4.174805%)" offset="0.707031"/><stop stop-opacity="1" stop-color="rgb(98.971558%, 40.394592%, 4.142761%)" offset="0.710938"/><stop stop-opacity="1" stop-color="rgb(98.977661%, 40.155029%, 4.110718%)" offset="0.714844"/><stop stop-opacity="1" stop-color="rgb(98.985291%, 39.915466%, 4.0802%)" offset="0.71875"/><stop stop-opacity="1" stop-color="rgb(98.991394%, 39.675903%, 4.048157%)" offset="0.722656"/><stop stop-opacity="1" stop-color="rgb(98.999023%, 39.437866%, 4.016113%)" offset="0.726562"/><stop stop-opacity="1" stop-color="rgb(99.005127%, 39.198303%, 3.98407%)" offset="0.730469"/><stop stop-opacity="1" stop-color="rgb(99.012756%, 38.960266%, 3.953552%)" offset="0.734375"/><stop stop-opacity="1" stop-color="rgb(99.01886%, 38.720703%, 3.921509%)" offset="0.738281"/><stop stop-opacity="1" stop-color="rgb(99.026489%, 38.48114%, 3.889465%)" offset="0.742188"/><stop stop-opacity="1" stop-color="rgb(99.032593%, 38.241577%, 3.857422%)" offset="0.746094"/><stop stop-opacity="1" stop-color="rgb(99.040222%, 38.00354%, 3.826904%)" offset="0.75"/><stop stop-opacity="1" stop-color="rgb(99.046326%, 37.763977%, 3.794861%)" offset="0.753906"/><stop stop-opacity="1" stop-color="rgb(99.053955%, 37.52594%, 3.764343%)" offset="0.757812"/><stop stop-opacity="1" stop-color="rgb(99.060059%, 37.286377%, 3.7323%)" offset="0.761719"/><stop stop-opacity="1" stop-color="rgb(99.067688%, 37.046814%, 3.700256%)" offset="0.765625"/><stop stop-opacity="1" stop-color="rgb(99.073792%, 36.807251%, 3.668213%)" offset="0.769531"/><stop stop-opacity="1" stop-color="rgb(99.081421%, 36.569214%, 3.637695%)" offset="0.773438"/><stop stop-opacity="1" stop-color="rgb(99.087524%, 36.329651%, 3.605652%)" offset="0.777344"/><stop stop-opacity="1" stop-color="rgb(99.095154%, 36.091614%, 3.573608%)" offset="0.78125"/><stop stop-opacity="1" stop-color="rgb(99.101257%, 35.852051%, 3.541565%)" offset="0.785156"/><stop stop-opacity="1" stop-color="rgb(99.108887%, 35.612488%, 3.511047%)" offset="0.789062"/><stop stop-opacity="1" stop-color="rgb(99.11499%, 35.372925%, 3.479004%)" offset="0.792969"/><stop stop-opacity="1" stop-color="rgb(99.12262%, 35.134888%, 3.44696%)" offset="0.796875"/><stop stop-opacity="1" stop-color="rgb(99.128723%, 34.895325%, 3.414917%)" offset="0.800781"/><stop stop-opacity="1" stop-color="rgb(99.136353%, 34.657288%, 3.384399%)" offset="0.804688"/><stop stop-opacity="1" stop-color="rgb(99.142456%, 34.417725%, 3.352356%)" offset="0.808594"/><stop stop-opacity="1" stop-color="rgb(99.150085%, 34.178162%, 3.321838%)" offset="0.8125"/><stop stop-opacity="1" stop-color="rgb(99.156189%, 33.938599%, 3.289795%)" offset="0.816406"/><stop stop-opacity="1" stop-color="rgb(99.163818%, 33.700562%, 3.257751%)" offset="0.820312"/><stop stop-opacity="1" stop-color="rgb(99.171448%, 33.460999%, 3.225708%)" offset="0.824219"/><stop stop-opacity="1" stop-color="rgb(99.179077%, 33.222961%, 3.19519%)" offset="0.828125"/><stop stop-opacity="1" stop-color="rgb(99.185181%, 32.983398%, 3.163147%)" offset="0.832031"/><stop stop-opacity="1" stop-color="rgb(99.19281%, 32.743835%, 3.131104%)" offset="0.835938"/><stop stop-opacity="1" stop-color="rgb(99.195862%, 32.621765%, 3.114319%)" offset="0.84375"/><stop stop-opacity="1" stop-color="rgb(99.198914%, 32.499695%, 3.09906%)" offset="0.875"/><stop stop-opacity="1" stop-color="rgb(99.198914%, 32.499695%, 3.09906%)" offset="1"/></linearGradient></defs><g clip-path="url(#e1e4b9f369)"><g clip-path="url(#7c680e59ad)"><path fill="url(#5d33f3f717)" d="M 15.863281 63.253906 L 15.863281 11.503906 L 67.5625 11.503906 L 67.5625 63.253906 Z M 15.863281 63.253906 " fill-rule="nonzero"/></g></g><g fill="#ffffff" fill-opacity="1"><g transform="translate(76.181068, 48.989052)"><g><path d="M 23.96875 -23.65625 C 24.582031 -22.894531 25.035156 -21.863281 25.328125 -20.5625 C 25.453125 -19.957031 25.550781 -19.273438 25.625 -18.515625 C 25.695312 -17.765625 25.734375 -16.957031 25.734375 -16.09375 L 25.734375 -9.859375 C 25.734375 -8.972656 25.695312 -8.148438 25.625 -7.390625 C 25.550781 -6.640625 25.453125 -5.960938 25.328125 -5.359375 C 25.035156 -4.078125 24.582031 -3.035156 23.96875 -2.234375 C 23.320312 -1.421875 22.503906 -0.84375 21.515625 -0.5 C 20.503906 -0.144531 19.316406 0.03125 17.953125 0.03125 L 10.265625 0.03125 C 8.878906 0.03125 7.703125 -0.144531 6.734375 -0.5 C 5.753906 -0.84375 4.9375 -1.429688 4.28125 -2.265625 C 3.65625 -3.085938 3.203125 -4.117188 2.921875 -5.359375 C 2.773438 -5.960938 2.671875 -6.640625 2.609375 -7.390625 C 2.546875 -8.148438 2.515625 -8.972656 2.515625 -9.859375 L 2.515625 -16.09375 C 2.515625 -17.90625 2.648438 -19.394531 2.921875 -20.5625 C 3.203125 -21.800781 3.65625 -22.832031 4.28125 -23.65625 C 4.9375 -24.457031 5.753906 -25.046875 6.734375 -25.421875 C 7.742188 -25.773438 8.921875 -25.953125 10.265625 -25.953125 L 17.953125 -25.953125 C 19.316406 -25.953125 20.503906 -25.773438 21.515625 -25.421875 C 22.503906 -25.046875 23.320312 -24.457031 23.96875 -23.65625 Z M 21.046875 -16.625 C 21.046875 -17.09375 21.035156 -17.519531 21.015625 -17.90625 C 20.992188 -18.289062 20.953125 -18.644531 20.890625 -18.96875 C 20.804688 -19.550781 20.625 -20.019531 20.34375 -20.375 C 20.132812 -20.675781 19.820312 -20.910156 19.40625 -21.078125 C 19.195312 -21.140625 18.957031 -21.191406 18.6875 -21.234375 C 18.425781 -21.273438 18.128906 -21.296875 17.796875 -21.296875 L 10.421875 -21.296875 C 10.085938 -21.296875 9.789062 -21.273438 9.53125 -21.234375 C 9.269531 -21.191406 9.03125 -21.140625 8.8125 -21.078125 C 8.394531 -20.910156 8.082031 -20.675781 7.875 -20.375 C 7.75 -20.207031 7.644531 -20.003906 7.5625 -19.765625 C 7.476562 -19.523438 7.40625 -19.257812 7.34375 -18.96875 C 7.300781 -18.644531 7.265625 -18.289062 7.234375 -17.90625 C 7.203125 -17.519531 7.1875 -17.09375 7.1875 -16.625 L 7.1875 -9.296875 C 7.1875 -8.828125 7.203125 -8.398438 7.234375 -8.015625 C 7.265625 -7.628906 7.300781 -7.28125 7.34375 -6.96875 C 7.40625 -6.6875 7.476562 -6.425781 7.5625 -6.1875 C 7.644531 -5.945312 7.75 -5.742188 7.875 -5.578125 C 8.082031 -5.242188 8.394531 -5.007812 8.8125 -4.875 C 9.195312 -4.726562 9.734375 -4.65625 10.421875 -4.65625 L 17.796875 -4.65625 C 18.492188 -4.65625 19.03125 -4.726562 19.40625 -4.875 C 19.820312 -5.007812 20.132812 -5.242188 20.34375 -5.578125 C 20.601562 -5.890625 20.785156 -6.351562 20.890625 -6.96875 C 20.953125 -7.28125 20.992188 -7.628906 21.015625 -8.015625 C 21.035156 -8.398438 21.046875 -8.828125 21.046875 -9.296875 Z M 21.046875 -16.625 "/></g></g></g><g fill="#ffffff" fill-opacity="1"><g transform="translate(106.000432, 48.989052)"><g><path d="M 24 -18.421875 L 24 -18.234375 C 24 -18.253906 24 -18.269531 24 -18.28125 C 24 -18.289062 24 -18.304688 24 -18.328125 C 24 -18.347656 24 -18.363281 24 -18.375 C 24 -18.382812 24 -18.398438 24 -18.421875 Z M 24.609375 -1.359375 C 24.734375 -1.191406 24.773438 -0.9375 24.734375 -0.59375 C 24.671875 -0.175781 24.425781 0.03125 24 0.03125 L 20.53125 0.03125 C 20.257812 0.03125 20.039062 -0.03125 19.875 -0.15625 C 19.8125 -0.195312 19.753906 -0.257812 19.703125 -0.34375 C 19.648438 -0.425781 19.59375 -0.507812 19.53125 -0.59375 L 13.828125 -10.703125 L 7.1875 -10.703125 L 7.1875 -1.078125 C 7.1875 -0.585938 7.070312 -0.28125 6.84375 -0.15625 C 6.625 -0.03125 6.441406 0.03125 6.296875 0.03125 L 3.4375 0.03125 C 3.289062 0.03125 3.097656 -0.03125 2.859375 -0.15625 C 2.628906 -0.28125 2.515625 -0.585938 2.515625 -1.078125 L 2.515625 -14.296875 C 2.515625 -14.785156 2.628906 -15.085938 2.859375 -15.203125 C 3.097656 -15.316406 3.289062 -15.375 3.4375 -15.375 L 17.140625 -15.375 C 17.929688 -15.375 18.488281 -15.601562 18.8125 -16.0625 C 19.144531 -16.53125 19.3125 -17.285156 19.3125 -18.328125 C 19.3125 -19.378906 19.144531 -20.132812 18.8125 -20.59375 C 18.488281 -21.0625 17.929688 -21.296875 17.140625 -21.296875 L 3.4375 -21.296875 C 3.289062 -21.296875 3.097656 -21.351562 2.859375 -21.46875 C 2.628906 -21.582031 2.515625 -21.878906 2.515625 -22.359375 L 2.515625 -24.859375 C 2.515625 -25.359375 2.628906 -25.664062 2.859375 -25.78125 C 3.097656 -25.894531 3.289062 -25.953125 3.4375 -25.953125 L 17.953125 -25.953125 C 20.117188 -25.953125 21.671875 -25.28125 22.609375 -23.9375 C 23.515625 -22.632812 23.976562 -20.765625 24 -18.328125 C 23.976562 -15.890625 23.515625 -14.019531 22.609375 -12.71875 C 21.816406 -11.632812 20.644531 -10.992188 19.09375 -10.796875 Z M 24.609375 -1.359375 "/></g></g></g><g fill="#ffffff" fill-opacity="1"><g transform="translate(134.843661, 48.989052)"><g><path d="M 23.84375 -25.953125 C 23.96875 -25.953125 24.144531 -25.890625 24.375 -25.765625 C 24.613281 -25.640625 24.734375 -25.335938 24.734375 -24.859375 L 24.734375 -22.390625 C 24.734375 -21.890625 24.613281 -21.582031 24.375 -21.46875 C 24.144531 -21.351562 23.96875 -21.296875 23.84375 -21.296875 L 10.453125 -21.296875 C 10.117188 -21.296875 9.816406 -21.273438 9.546875 -21.234375 C 9.273438 -21.191406 9.03125 -21.140625 8.8125 -21.078125 C 8.4375 -20.929688 8.125 -20.695312 7.875 -20.375 C 7.625 -20 7.457031 -19.539062 7.375 -19 C 7.25 -18.363281 7.1875 -17.570312 7.1875 -16.625 L 7.1875 -9.328125 C 7.1875 -8.378906 7.25 -7.59375 7.375 -6.96875 C 7.457031 -6.394531 7.625 -5.929688 7.875 -5.578125 C 8.125 -5.242188 8.4375 -5.007812 8.8125 -4.875 C 9.195312 -4.726562 9.742188 -4.65625 10.453125 -4.65625 L 19.28125 -4.65625 C 19.632812 -4.65625 19.882812 -4.773438 20.03125 -5.015625 C 20.09375 -5.117188 20.15625 -5.285156 20.21875 -5.515625 C 20.28125 -5.742188 20.3125 -6.097656 20.3125 -6.578125 C 20.3125 -6.578125 20.3125 -6.722656 20.3125 -7.015625 C 20.3125 -7.316406 20.3125 -7.6875 20.3125 -8.125 C 20.3125 -8.5625 20.304688 -9 20.296875 -9.4375 C 20.285156 -9.882812 20.28125 -10.253906 20.28125 -10.546875 C 20.28125 -10.847656 20.28125 -11 20.28125 -11 L 12.4375 -11 C 12.3125 -11 12.132812 -11.054688 11.90625 -11.171875 C 11.675781 -11.285156 11.5625 -11.601562 11.5625 -12.125 L 11.5625 -14.515625 C 11.5625 -15.023438 11.675781 -15.34375 11.90625 -15.46875 C 12.132812 -15.59375 12.3125 -15.65625 12.4375 -15.65625 L 23.59375 -15.65625 C 23.800781 -15.65625 24.035156 -15.578125 24.296875 -15.421875 C 24.566406 -15.265625 24.703125 -14.878906 24.703125 -14.265625 L 24.703125 -5.828125 C 24.703125 -3.742188 24.394531 -2.253906 23.78125 -1.359375 C 23.15625 -0.429688 22.253906 0.03125 21.078125 0.03125 L 10.296875 0.03125 C 8.929688 0.03125 7.742188 -0.144531 6.734375 -0.5 C 5.773438 -0.84375 4.96875 -1.421875 4.3125 -2.234375 C 3.664062 -3.078125 3.203125 -4.109375 2.921875 -5.328125 C 2.773438 -5.953125 2.671875 -6.640625 2.609375 -7.390625 C 2.546875 -8.148438 2.515625 -8.972656 2.515625 -9.859375 L 2.515625 -16.09375 C 2.515625 -16.957031 2.546875 -17.765625 2.609375 -18.515625 C 2.671875 -19.273438 2.773438 -19.957031 2.921875 -20.5625 C 3.078125 -21.195312 3.269531 -21.769531 3.5 -22.28125 C 3.726562 -22.800781 4 -23.257812 4.3125 -23.65625 C 4.90625 -24.4375 5.710938 -25.023438 6.734375 -25.421875 C 7.742188 -25.773438 8.929688 -25.953125 10.296875 -25.953125 Z M 23.84375 -25.953125 "/></g></g></g><g fill="#ffffff" fill-opacity="1"><g transform="translate(163.655395, 48.989052)"><g><path d="M 21.765625 -25.953125 C 21.890625 -25.953125 22.066406 -25.890625 22.296875 -25.765625 C 22.535156 -25.640625 22.65625 -25.335938 22.65625 -24.859375 L 22.65625 -22.421875 C 22.65625 -21.921875 22.535156 -21.609375 22.296875 -21.484375 C 22.066406 -21.359375 21.890625 -21.296875 21.765625 -21.296875 L 10.453125 -21.296875 C 9.742188 -21.296875 9.195312 -21.222656 8.8125 -21.078125 C 8.4375 -20.953125 8.125 -20.71875 7.875 -20.375 C 7.644531 -20.0625 7.46875 -19.601562 7.34375 -19 C 7.300781 -18.695312 7.265625 -18.351562 7.234375 -17.96875 C 7.203125 -17.582031 7.1875 -17.144531 7.1875 -16.65625 L 7.1875 -9.328125 C 7.1875 -8.859375 7.203125 -8.425781 7.234375 -8.03125 C 7.265625 -7.632812 7.300781 -7.28125 7.34375 -6.96875 C 7.40625 -6.664062 7.476562 -6.398438 7.5625 -6.171875 C 7.644531 -5.941406 7.75 -5.742188 7.875 -5.578125 C 8.125 -5.242188 8.4375 -5.007812 8.8125 -4.875 C 9.195312 -4.726562 9.742188 -4.65625 10.453125 -4.65625 L 21.765625 -4.65625 C 21.890625 -4.65625 22.066406 -4.59375 22.296875 -4.46875 C 22.535156 -4.34375 22.65625 -4.039062 22.65625 -3.5625 L 22.65625 -1.078125 C 22.65625 -0.585938 22.535156 -0.28125 22.296875 -0.15625 C 22.066406 -0.03125 21.890625 0.03125 21.765625 0.03125 L 10.296875 0.03125 C 8.929688 0.03125 7.742188 -0.144531 6.734375 -0.5 C 5.773438 -0.84375 4.96875 -1.421875 4.3125 -2.234375 C 3.664062 -3.078125 3.203125 -4.109375 2.921875 -5.328125 C 2.773438 -5.953125 2.671875 -6.640625 2.609375 -7.390625 C 2.546875 -8.148438 2.515625 -8.972656 2.515625 -9.859375 L 2.515625 -16.09375 C 2.515625 -16.957031 2.546875 -17.765625 2.609375 -18.515625 C 2.671875 -19.273438 2.773438 -19.957031 2.921875 -20.5625 C 3.203125 -21.820312 3.664062 -22.851562 4.3125 -23.65625 C 4.925781 -24.457031 5.734375 -25.046875 6.734375 -25.421875 C 7.742188 -25.773438 8.929688 -25.953125 10.296875 -25.953125 Z M 21.765625 -25.953125 "/></g></g></g><g fill="#ffffff" fill-opacity="1"><g transform="translate(190.388906, 48.989052)"><g><path d="M 23.96875 -23.65625 C 24.582031 -22.894531 25.035156 -21.863281 25.328125 -20.5625 C 25.453125 -19.957031 25.550781 -19.273438 25.625 -18.515625 C 25.695312 -17.765625 25.734375 -16.957031 25.734375 -16.09375 L 25.734375 -9.859375 C 25.734375 -8.972656 25.695312 -8.148438 25.625 -7.390625 C 25.550781 -6.640625 25.453125 -5.960938 25.328125 -5.359375 C 25.035156 -4.078125 24.582031 -3.035156 23.96875 -2.234375 C 23.320312 -1.421875 22.503906 -0.84375 21.515625 -0.5 C 20.503906 -0.144531 19.316406 0.03125 17.953125 0.03125 L 10.265625 0.03125 C 8.878906 0.03125 7.703125 -0.144531 6.734375 -0.5 C 5.753906 -0.84375 4.9375 -1.429688 4.28125 -2.265625 C 3.65625 -3.085938 3.203125 -4.117188 2.921875 -5.359375 C 2.773438 -5.960938 2.671875 -6.640625 2.609375 -7.390625 C 2.546875 -8.148438 2.515625 -8.972656 2.515625 -9.859375 L 2.515625 -16.09375 C 2.515625 -17.90625 2.648438 -19.394531 2.921875 -20.5625 C 3.203125 -21.800781 3.65625 -22.832031 4.28125 -23.65625 C 4.9375 -24.457031 5.753906 -25.046875 6.734375 -25.421875 C 7.742188 -25.773438 8.921875 -25.953125 10.265625 -25.953125 L 17.953125 -25.953125 C 19.316406 -25.953125 20.503906 -25.773438 21.515625 -25.421875 C 22.503906 -25.046875 23.320312 -24.457031 23.96875 -23.65625 Z M 21.046875 -16.625 C 21.046875 -17.09375 21.035156 -17.519531 21.015625 -17.90625 C 20.992188 -18.289062 20.953125 -18.644531 20.890625 -18.96875 C 20.804688 -19.550781 20.625 -20.019531 20.34375 -20.375 C 20.132812 -20.675781 19.820312 -20.910156 19.40625 -21.078125 C 19.195312 -21.140625 18.957031 -21.191406 18.6875 -21.234375 C 18.425781 -21.273438 18.128906 -21.296875 17.796875 -21.296875 L 10.421875 -21.296875 C 10.085938 -21.296875 9.789062 -21.273438 9.53125 -21.234375 C 9.269531 -21.191406 9.03125 -21.140625 8.8125 -21.078125 C 8.394531 -20.910156 8.082031 -20.675781 7.875 -20.375 C 7.75 -20.207031 7.644531 -20.003906 7.5625 -19.765625 C 7.476562 -19.523438 7.40625 -19.257812 7.34375 -18.96875 C 7.300781 -18.644531 7.265625 -18.289062 7.234375 -17.90625 C 7.203125 -17.519531 7.1875 -17.09375 7.1875 -16.625 L 7.1875 -9.296875 C 7.1875 -8.828125 7.203125 -8.398438 7.234375 -8.015625 C 7.265625 -7.628906 7.300781 -7.28125 7.34375 -6.96875 C 7.40625 -6.6875 7.476562 -6.425781 7.5625 -6.1875 C 7.644531 -5.945312 7.75 -5.742188 7.875 -5.578125 C 8.082031 -5.242188 8.394531 -5.007812 8.8125 -4.875 C 9.195312 -4.726562 9.734375 -4.65625 10.421875 -4.65625 L 17.796875 -4.65625 C 18.492188 -4.65625 19.03125 -4.726562 19.40625 -4.875 C 19.820312 -5.007812 20.132812 -5.242188 20.34375 -5.578125 C 20.601562 -5.890625 20.785156 -6.351562 20.890625 -6.96875 C 20.953125 -7.28125 20.992188 -7.628906 21.015625 -8.015625 C 21.035156 -8.398438 21.046875 -8.828125 21.046875 -9.296875 Z M 21.046875 -16.625 "/></g></g></g><g fill="#ffffff" fill-opacity="1"><g transform="translate(220.20827, 48.989052)"><g><path d="M 24.828125 -25.953125 C 24.953125 -25.953125 25.128906 -25.894531 25.359375 -25.78125 C 25.585938 -25.664062 25.703125 -25.359375 25.703125 -24.859375 L 25.703125 -4.03125 C 25.703125 -2.5 25.484375 -1.445312 25.046875 -0.875 C 24.597656 -0.269531 23.914062 0.03125 23 0.03125 L 20.703125 0.03125 C 20.273438 0.03125 19.914062 0 19.625 -0.0625 C 19.476562 -0.101562 19.332031 -0.148438 19.1875 -0.203125 C 19.039062 -0.253906 18.90625 -0.320312 18.78125 -0.40625 C 18.519531 -0.550781 18.285156 -0.785156 18.078125 -1.109375 C 17.972656 -1.253906 17.859375 -1.421875 17.734375 -1.609375 C 17.609375 -1.796875 17.484375 -2.015625 17.359375 -2.265625 L 7.375 -19.96875 C 7.351562 -20.007812 7.332031 -20.035156 7.3125 -20.046875 C 7.289062 -20.054688 7.28125 -20.0625 7.28125 -20.0625 L 7.125 -20.0625 C 7.125 -20.0625 7.125 -20.054688 7.125 -20.046875 C 7.125 -20.035156 7.125 -20.019531 7.125 -20 L 7.125 -1.078125 C 7.125 -0.585938 7.007812 -0.28125 6.78125 -0.15625 C 6.5625 -0.03125 6.378906 0.03125 6.234375 0.03125 L 3.4375 0.03125 C 3.289062 0.03125 3.097656 -0.03125 2.859375 -0.15625 C 2.628906 -0.28125 2.515625 -0.585938 2.515625 -1.078125 L 2.515625 -21.890625 C 2.515625 -23.421875 2.738281 -24.484375 3.1875 -25.078125 C 3.644531 -25.660156 4.328125 -25.953125 5.234375 -25.953125 L 7.59375 -25.953125 C 7.800781 -25.953125 8 -25.945312 8.1875 -25.9375 C 8.375 -25.925781 8.539062 -25.910156 8.6875 -25.890625 C 9.03125 -25.828125 9.328125 -25.703125 9.578125 -25.515625 C 9.785156 -25.367188 10.003906 -25.128906 10.234375 -24.796875 C 10.335938 -24.640625 10.445312 -24.46875 10.5625 -24.28125 C 10.675781 -24.09375 10.800781 -23.882812 10.9375 -23.65625 L 20.890625 -5.953125 C 20.910156 -5.890625 20.941406 -5.859375 20.984375 -5.859375 L 21.140625 -5.859375 C 21.140625 -5.878906 21.140625 -5.890625 21.140625 -5.890625 C 21.140625 -5.890625 21.140625 -5.898438 21.140625 -5.921875 L 21.140625 -24.859375 C 21.140625 -25.359375 21.25 -25.664062 21.46875 -25.78125 C 21.6875 -25.894531 21.867188 -25.953125 22.015625 -25.953125 Z M 24.828125 -25.953125 "/></g></g></g><g fill="#ffffff" fill-opacity="1"><g transform="translate(249.99614, 48.989052)"><g><path d="M 24.828125 -25.953125 C 24.953125 -25.953125 25.128906 -25.894531 25.359375 -25.78125 C 25.585938 -25.664062 25.703125 -25.359375 25.703125 -24.859375 L 25.703125 -4.03125 C 25.703125 -2.5 25.484375 -1.445312 25.046875 -0.875 C 24.597656 -0.269531 23.914062 0.03125 23 0.03125 L 20.703125 0.03125 C 20.273438 0.03125 19.914062 0 19.625 -0.0625 C 19.476562 -0.101562 19.332031 -0.148438 19.1875 -0.203125 C 19.039062 -0.253906 18.90625 -0.320312 18.78125 -0.40625 C 18.519531 -0.550781 18.285156 -0.785156 18.078125 -1.109375 C 17.972656 -1.253906 17.859375 -1.421875 17.734375 -1.609375 C 17.609375 -1.796875 17.484375 -2.015625 17.359375 -2.265625 L 7.375 -19.96875 C 7.351562 -20.007812 7.332031 -20.035156 7.3125 -20.046875 C 7.289062 -20.054688 7.28125 -20.0625 7.28125 -20.0625 L 7.125 -20.0625 C 7.125 -20.0625 7.125 -20.054688 7.125 -20.046875 C 7.125 -20.035156 7.125 -20.019531 7.125 -20 L 7.125 -1.078125 C 7.125 -0.585938 7.007812 -0.28125 6.78125 -0.15625 C 6.5625 -0.03125 6.378906 0.03125 6.234375 0.03125 L 3.4375 0.03125 C 3.289062 0.03125 3.097656 -0.03125 2.859375 -0.15625 C 2.628906 -0.28125 2.515625 -0.585938 2.515625 -1.078125 L 2.515625 -21.890625 C 2.515625 -23.421875 2.738281 -24.484375 3.1875 -25.078125 C 3.644531 -25.660156 4.328125 -25.953125 5.234375 -25.953125 L 7.59375 -25.953125 C 7.800781 -25.953125 8 -25.945312 8.1875 -25.9375 C 8.375 -25.925781 8.539062 -25.910156 8.6875 -25.890625 C 9.03125 -25.828125 9.328125 -25.703125 9.578125 -25.515625 C 9.785156 -25.367188 10.003906 -25.128906 10.234375 -24.796875 C 10.335938 -24.640625 10.445312 -24.46875 10.5625 -24.28125 C 10.675781 -24.09375 10.800781 -23.882812 10.9375 -23.65625 L 20.890625 -5.953125 C 20.910156 -5.890625 20.941406 -5.859375 20.984375 -5.859375 L 21.140625 -5.859375 C 21.140625 -5.878906 21.140625 -5.890625 21.140625 -5.890625 C 21.140625 -5.890625 21.140625 -5.898438 21.140625 -5.921875 L 21.140625 -24.859375 C 21.140625 -25.359375 21.25 -25.664062 21.46875 -25.78125 C 21.6875 -25.894531 21.867188 -25.953125 22.015625 -25.953125 Z M 24.828125 -25.953125 "/></g></g></g><g fill="#ffffff" fill-opacity="1"><g transform="translate(279.78401, 48.989052)"><g><path d="M 21.453125 -5.640625 C 21.597656 -5.640625 21.785156 -5.582031 22.015625 -5.46875 C 22.242188 -5.351562 22.359375 -5.050781 22.359375 -4.5625 L 22.359375 -1.109375 C 22.359375 -0.617188 22.242188 -0.316406 22.015625 -0.203125 C 21.785156 -0.0859375 21.597656 -0.03125 21.453125 -0.03125 L 10.265625 -0.03125 C 9.578125 -0.03125 8.9375 -0.0703125 8.34375 -0.15625 C 7.757812 -0.238281 7.222656 -0.375 6.734375 -0.5625 C 5.710938 -0.925781 4.894531 -1.503906 4.28125 -2.296875 C 3.65625 -3.117188 3.203125 -4.148438 2.921875 -5.390625 C 2.816406 -5.910156 2.726562 -6.484375 2.65625 -7.109375 C 2.582031 -7.742188 2.535156 -8.429688 2.515625 -9.171875 L 2.515625 -9.328125 L 2.578125 -13.296875 C 2.640625 -13.523438 2.753906 -13.785156 2.921875 -14.078125 C 3.390625 -14.898438 4.109375 -15.34375 5.078125 -15.40625 L 21.328125 -15.4375 C 21.453125 -15.4375 21.628906 -15.378906 21.859375 -15.265625 C 22.085938 -15.148438 22.203125 -14.847656 22.203125 -14.359375 L 22.203125 -11.875 C 22.203125 -11.394531 22.085938 -11.085938 21.859375 -10.953125 C 21.628906 -10.828125 21.453125 -10.765625 21.328125 -10.765625 L 7.25 -10.765625 C 7.25 -10.765625 7.242188 -10.648438 7.234375 -10.421875 C 7.222656 -10.191406 7.210938 -9.929688 7.203125 -9.640625 C 7.191406 -9.347656 7.1875 -9.082031 7.1875 -8.84375 C 7.1875 -8.613281 7.1875 -8.5 7.1875 -8.5 C 7.207031 -8.414062 7.21875 -8.328125 7.21875 -8.234375 C 7.21875 -8.140625 7.226562 -8.050781 7.25 -7.96875 C 7.332031 -7.382812 7.507812 -6.910156 7.78125 -6.546875 C 8.03125 -6.234375 8.34375 -6.003906 8.71875 -5.859375 C 8.957031 -5.796875 9.207031 -5.742188 9.46875 -5.703125 C 9.726562 -5.660156 10.023438 -5.640625 10.359375 -5.640625 Z M 5.296875 -15.15625 Z M 21.484375 -26.015625 C 21.609375 -26.015625 21.785156 -25.953125 22.015625 -25.828125 C 22.242188 -25.703125 22.359375 -25.398438 22.359375 -24.921875 L 22.359375 -22.421875 C 22.359375 -21.941406 22.242188 -21.640625 22.015625 -21.515625 C 21.785156 -21.390625 21.609375 -21.328125 21.484375 -21.328125 L 3.375 -21.359375 C 3.25 -21.359375 3.070312 -21.414062 2.84375 -21.53125 C 2.625 -21.644531 2.515625 -21.941406 2.515625 -22.421875 L 2.515625 -24.890625 C 2.515625 -25.390625 2.625 -25.703125 2.84375 -25.828125 C 3.070312 -25.953125 3.25 -26.015625 3.375 -26.015625 Z M 21.484375 -26.015625 "/></g></g></g><g fill="#ffffff" fill-opacity="1"><g transform="translate(306.234119, 48.989052)"><g><path d="M 21.765625 -25.953125 C 21.890625 -25.953125 22.066406 -25.890625 22.296875 -25.765625 C 22.535156 -25.640625 22.65625 -25.335938 22.65625 -24.859375 L 22.65625 -22.421875 C 22.65625 -21.921875 22.535156 -21.609375 22.296875 -21.484375 C 22.066406 -21.359375 21.890625 -21.296875 21.765625 -21.296875 L 10.453125 -21.296875 C 9.742188 -21.296875 9.195312 -21.222656 8.8125 -21.078125 C 8.4375 -20.953125 8.125 -20.71875 7.875 -20.375 C 7.644531 -20.0625 7.46875 -19.601562 7.34375 -19 C 7.300781 -18.695312 7.265625 -18.351562 7.234375 -17.96875 C 7.203125 -17.582031 7.1875 -17.144531 7.1875 -16.65625 L 7.1875 -9.328125 C 7.1875 -8.859375 7.203125 -8.425781 7.234375 -8.03125 C 7.265625 -7.632812 7.300781 -7.28125 7.34375 -6.96875 C 7.40625 -6.664062 7.476562 -6.398438 7.5625 -6.171875 C 7.644531 -5.941406 7.75 -5.742188 7.875 -5.578125 C 8.125 -5.242188 8.4375 -5.007812 8.8125 -4.875 C 9.195312 -4.726562 9.742188 -4.65625 10.453125 -4.65625 L 21.765625 -4.65625 C 21.890625 -4.65625 22.066406 -4.59375 22.296875 -4.46875 C 22.535156 -4.34375 22.65625 -4.039062 22.65625 -3.5625 L 22.65625 -1.078125 C 22.65625 -0.585938 22.535156 -0.28125 22.296875 -0.15625 C 22.066406 -0.03125 21.890625 0.03125 21.765625 0.03125 L 10.296875 0.03125 C 8.929688 0.03125 7.742188 -0.144531 6.734375 -0.5 C 5.773438 -0.84375 4.96875 -1.421875 4.3125 -2.234375 C 3.664062 -3.078125 3.203125 -4.109375 2.921875 -5.328125 C 2.773438 -5.953125 2.671875 -6.640625 2.609375 -7.390625 C 2.546875 -8.148438 2.515625 -8.972656 2.515625 -9.859375 L 2.515625 -16.09375 C 2.515625 -16.957031 2.546875 -17.765625 2.609375 -18.515625 C 2.671875 -19.273438 2.773438 -19.957031 2.921875 -20.5625 C 3.203125 -21.820312 3.664062 -22.851562 4.3125 -23.65625 C 4.925781 -24.457031 5.734375 -25.046875 6.734375 -25.421875 C 7.742188 -25.773438 8.929688 -25.953125 10.296875 -25.953125 Z M 21.765625 -25.953125 "/></g></g></g><g fill="#ffffff" fill-opacity="1"><g transform="translate(332.96763, 48.989052)"><g><path d="M 24.28125 -25.953125 C 24.425781 -25.953125 24.613281 -25.894531 24.84375 -25.78125 C 25.082031 -25.664062 25.203125 -25.367188 25.203125 -24.890625 L 25.203125 -22.421875 C 25.203125 -21.898438 25.082031 -21.582031 24.84375 -21.46875 C 24.613281 -21.351562 24.425781 -21.296875 24.28125 -21.296875 L 16.1875 -21.296875 L 16.1875 -1.078125 C 16.1875 -0.585938 16.078125 -0.285156 15.859375 -0.171875 C 15.640625 -0.0546875 15.457031 0 15.3125 0 L 12.40625 0 C 12.28125 0 12.101562 -0.0546875 11.875 -0.171875 C 11.644531 -0.285156 11.53125 -0.585938 11.53125 -1.078125 L 11.53125 -21.296875 L 3.4375 -21.296875 C 3.289062 -21.296875 3.097656 -21.351562 2.859375 -21.46875 C 2.628906 -21.582031 2.515625 -21.898438 2.515625 -22.421875 L 2.515625 -24.890625 C 2.515625 -25.367188 2.628906 -25.664062 2.859375 -25.78125 C 3.097656 -25.894531 3.289062 -25.953125 3.4375 -25.953125 Z M 24.28125 -25.953125 "/></g></g></g></svg>