<svg xmlns="http://www.w3.org/2000/svg" xmlns:xlink="http://www.w3.org/1999/xlink" width="500" zoomAndPan="magnify" viewBox="0 0 375 374.999991" height="500" preserveAspectRatio="xMidYMid meet" version="1.0"><defs><clipPath id="ee3f5a2d9c"><path d="M 45 0 L 330 0 C 354.851562 0 375 20.148438 375 45 L 375 330 C 375 354.851562 354.851562 375 330 375 L 45 375 C 20.148438 375 0 354.851562 0 330 L 0 45 C 0 20.148438 20.148438 0 45 0 Z M 45 0 " clip-rule="nonzero"/></clipPath><clipPath id="41080a3a16"><path d="M 36.296875 36.296875 L 338.546875 36.296875 L 338.546875 338.546875 L 36.296875 338.546875 Z M 36.296875 36.296875 " clip-rule="nonzero"/></clipPath><clipPath id="c2e2454885"><path d="M 208.507812 44.996094 C 211.347656 47.835938 213.523438 51.28125 214.789062 54.785156 C 216.300781 58.46875 217.207031 62.15625 217.207031 66.082031 C 217.207031 68.921875 216.785156 71.699219 216.121094 74.359375 C 215.457031 76.292969 214.609375 78.46875 213.523438 80.21875 L 237.867188 104.566406 C 242.21875 102.632812 246.992188 101.96875 251.523438 102.632812 C 256.535156 103.296875 261.492188 105.652344 265.175781 109.578125 C 269.949219 114.351562 272.546875 120.636719 272.546875 126.980469 C 272.546875 133.082031 269.949219 139.363281 265.355469 144.136719 C 260.585938 148.910156 254.300781 151.324219 247.957031 151.324219 C 241.613281 151.324219 235.390625 148.910156 230.558594 144.136719 C 226.632812 140.210938 224.457031 135.4375 223.609375 130.484375 C 222.945312 125.953125 223.609375 121.117188 225.542969 116.828125 L 201.4375 92.484375 C 199.507812 93.570312 197.511719 94.417969 195.335938 94.898438 C 192.738281 95.746094 189.898438 95.988281 187.300781 95.988281 C 184.464844 95.988281 181.683594 95.746094 179.027344 94.898438 C 177.09375 94.476562 175.097656 93.570312 173.164062 92.484375 L 149.058594 116.648438 C 150.992188 121 151.660156 125.769531 150.992188 130.300781 C 150.328125 135.316406 147.972656 140.089844 144.046875 143.957031 C 140.121094 147.820312 135.347656 150.238281 130.390625 150.902344 C 125.863281 151.566406 121.027344 150.902344 116.738281 148.96875 L 92.390625 173.316406 C 93.480469 175.070312 94.324219 177.242188 94.808594 179.175781 C 95.65625 181.773438 96.136719 184.613281 96.136719 187.453125 C 96.136719 190.050781 95.714844 192.890625 94.808594 195.488281 C 94.386719 197.664062 93.480469 199.597656 92.390625 201.589844 L 116.738281 225.695312 C 121.089844 223.761719 125.863281 223.097656 130.390625 223.761719 C 135.40625 224.609375 140.179688 226.78125 144.046875 230.710938 C 147.914062 234.636719 150.328125 239.410156 150.992188 244.363281 C 151.660156 249.136719 150.992188 253.910156 149.058594 258.015625 L 173.40625 282.363281 C 175.339844 281.277344 177.335938 280.613281 179.265625 279.945312 C 181.863281 279.28125 184.703125 278.859375 187.542969 278.859375 C 190.140625 278.859375 192.980469 279.28125 195.578125 279.945312 C 197.753906 280.613281 199.6875 281.277344 201.679688 282.363281 L 225.785156 258.015625 C 223.851562 253.910156 223.1875 249.136719 223.851562 244.363281 C 224.699219 239.347656 226.875 234.574219 230.800781 230.710938 C 235.574219 225.9375 241.855469 223.519531 248.199219 223.519531 C 254.542969 223.519531 260.765625 225.9375 265.355469 230.710938 C 270.128906 235.480469 272.546875 241.765625 272.546875 248.109375 C 272.546875 254.453125 270.128906 260.492188 265.355469 265.265625 C 261.671875 269.191406 256.65625 271.550781 251.703125 272.214844 C 247.171875 272.878906 242.339844 272.214844 238.050781 270.28125 L 213.945312 294.628906 C 214.789062 296.5625 215.695312 298.554688 216.359375 300.488281 C 217.027344 303.328125 217.449219 305.925781 217.449219 308.765625 C 217.449219 312.691406 216.601562 316.558594 215.03125 320.304688 C 213.703125 323.808594 211.527344 327.007812 208.75 329.847656 C 205.910156 332.6875 202.464844 334.863281 198.960938 336.375 C 195.277344 337.882812 191.589844 338.546875 187.664062 338.546875 C 183.738281 338.546875 179.871094 337.882812 176.125 336.375 C 172.621094 334.863281 169.417969 332.6875 166.582031 329.847656 C 163.742188 327.007812 161.566406 323.746094 160.054688 320.304688 C 158.546875 316.617188 157.878906 312.691406 157.878906 308.765625 C 157.878906 305.925781 158.121094 303.328125 158.96875 300.488281 C 159.390625 298.554688 160.296875 296.5625 161.386719 294.628906 L 137.039062 270.28125 C 132.6875 272.214844 127.914062 272.878906 123.382812 272.214844 C 118.371094 271.550781 113.597656 269.191406 109.730469 265.265625 C 105.804688 261.582031 103.449219 256.566406 102.785156 251.613281 C 102.117188 247.082031 102.785156 242.25 104.714844 237.960938 L 80.371094 213.613281 C 78.617188 214.699219 76.441406 215.546875 74.511719 216.210938 C 71.910156 216.875 69.074219 217.296875 66.234375 217.296875 C 62.546875 217.296875 58.621094 216.453125 54.9375 214.882812 C 51.433594 213.550781 47.988281 211.378906 45.148438 208.597656 C 42.308594 205.757812 40.132812 202.316406 38.867188 198.8125 C 37.355469 195.125 36.449219 191.199219 36.449219 187.515625 C 36.449219 183.585938 37.296875 179.71875 38.867188 175.976562 C 40.195312 172.46875 42.371094 169.269531 45.148438 166.429688 C 47.929688 163.589844 51.433594 161.414062 54.9375 159.90625 C 58.621094 158.394531 62.546875 157.488281 66.234375 157.488281 C 71.246094 157.488281 76.019531 158.816406 80.371094 161.171875 L 104.714844 136.828125 C 102.785156 132.476562 102.117188 127.703125 102.785156 123.171875 C 103.449219 118.160156 105.804688 113.386719 109.730469 109.519531 C 113.65625 105.59375 118.429688 103.238281 123.382812 102.570312 C 127.914062 101.90625 132.75 102.570312 137.039062 104.503906 L 161.386719 80.160156 C 160.296875 78.40625 159.453125 76.230469 158.96875 74.296875 C 158.121094 71.699219 157.878906 68.859375 157.878906 66.023438 C 157.878906 62.335938 158.546875 58.410156 160.054688 54.722656 C 161.566406 51.21875 163.742188 47.777344 166.582031 44.9375 C 169.417969 42.097656 172.5 39.984375 175.945312 38.714844 C 179.628906 37.203125 183.558594 36.296875 187.484375 36.296875 C 195.09375 36.296875 202.648438 39.320312 208.507812 44.996094 Z M 199.625 308.644531 C 199.625 307.132812 199.203125 305.382812 198.78125 303.871094 C 198.117188 302.542969 197.269531 301.273438 195.941406 299.945312 C 194.855469 298.855469 193.523438 298.011719 192.015625 297.347656 C 190.503906 296.679688 188.992188 296.5 187.484375 296.5 C 185.730469 296.5 184.222656 296.742188 182.710938 297.347656 C 181.382812 298.011719 179.871094 298.855469 178.785156 299.945312 C 177.695312 301.273438 176.851562 302.542969 176.1875 303.871094 C 175.523438 305.382812 175.097656 307.132812 175.097656 308.644531 C 175.097656 310.152344 175.523438 311.90625 176.1875 313.175781 C 176.851562 314.683594 177.695312 316.015625 178.785156 317.28125 C 179.871094 318.371094 181.382812 319.214844 182.710938 319.878906 C 184.222656 320.542969 185.730469 320.726562 187.484375 320.726562 C 188.992188 320.726562 190.503906 320.484375 192.015625 319.878906 C 193.523438 319.214844 194.855469 318.371094 195.941406 317.28125 C 197.269531 315.953125 198.117188 314.683594 198.78125 313.175781 C 199.203125 311.84375 199.625 310.152344 199.625 308.644531 Z M 78.4375 187.453125 C 78.4375 185.703125 78.015625 184.191406 77.347656 182.679688 C 76.925781 181.351562 75.839844 179.839844 74.75 178.753906 C 73.664062 177.667969 72.152344 176.578125 70.824219 176.15625 C 69.3125 175.492188 67.804688 175.070312 66.050781 175.070312 C 64.542969 175.070312 63.03125 175.492188 61.519531 176.15625 C 60.011719 176.578125 58.679688 177.667969 57.59375 178.753906 C 56.265625 179.839844 55.417969 181.351562 54.753906 182.679688 C 54.332031 184.191406 53.910156 185.703125 53.910156 187.453125 C 53.910156 188.964844 54.332031 190.472656 54.753906 191.984375 C 55.417969 193.496094 56.265625 194.824219 57.59375 195.910156 C 58.679688 197.242188 60.011719 198.085938 61.519531 198.75 C 63.03125 199.171875 64.542969 199.597656 66.050781 199.597656 C 67.804688 199.597656 69.3125 199.171875 70.824219 198.75 C 72.152344 198.085938 73.664062 197.242188 74.75 195.910156 C 75.839844 194.824219 76.925781 193.496094 77.347656 191.984375 C 78.015625 190.472656 78.4375 188.964844 78.4375 187.453125 Z M 329.699219 166.367188 C 332.535156 169.207031 334.710938 172.472656 336.222656 175.914062 C 337.734375 179.597656 338.398438 183.527344 338.398438 187.453125 C 338.398438 191.136719 337.734375 195.066406 336.222656 198.75 C 334.710938 202.253906 332.535156 205.699219 329.699219 208.539062 C 326.859375 211.378906 323.597656 213.550781 320.152344 214.820312 C 316.46875 216.332031 312.539062 217.238281 308.613281 217.238281 C 304.6875 217.238281 300.820312 216.390625 297.074219 214.820312 C 293.570312 213.492188 290.367188 211.316406 287.527344 208.539062 C 284.6875 205.699219 282.515625 202.253906 281.003906 198.75 C 279.492188 195.066406 278.828125 191.136719 278.828125 187.453125 C 278.828125 183.527344 279.492188 179.660156 281.003906 175.914062 C 282.515625 172.410156 284.6875 169.207031 287.527344 166.367188 C 290.367188 163.53125 293.628906 161.355469 297.074219 159.84375 C 300.757812 158.332031 304.6875 157.667969 308.613281 157.667969 C 312.539062 157.667969 316.40625 158.332031 320.152344 159.84375 C 323.65625 161.355469 326.859375 163.53125 329.699219 166.367188 Z M 320.816406 187.453125 C 320.816406 185.703125 320.574219 184.191406 319.972656 182.679688 C 319.304688 181.351562 318.460938 179.839844 317.375 178.753906 C 316.042969 177.667969 314.773438 176.578125 313.265625 176.15625 C 311.9375 175.492188 310.246094 175.070312 308.734375 175.070312 C 307.222656 175.070312 305.472656 175.492188 303.960938 176.15625 C 302.632812 176.578125 301.363281 177.667969 300.035156 178.753906 C 298.945312 179.839844 298.101562 181.351562 297.4375 182.679688 C 296.773438 184.191406 296.589844 185.703125 296.589844 187.453125 C 296.589844 188.964844 296.832031 190.472656 297.4375 191.984375 C 298.101562 193.496094 298.945312 194.824219 300.035156 195.910156 C 301.363281 197.242188 302.632812 198.085938 303.960938 198.75 C 305.472656 199.171875 307.222656 199.597656 308.734375 199.597656 C 310.246094 199.597656 311.996094 199.171875 313.265625 198.75 C 314.773438 198.085938 316.105469 197.242188 317.375 195.910156 C 318.460938 194.824219 319.304688 193.496094 319.972656 191.984375 C 320.574219 190.472656 320.816406 188.964844 320.816406 187.453125 Z M 205.0625 169.632812 C 207.480469 172.046875 209.171875 174.828125 210.5 177.90625 C 211.832031 180.929688 212.433594 184.191406 212.433594 187.453125 C 212.433594 190.714844 211.769531 193.976562 210.5 197 C 209.171875 199.839844 207.480469 202.617188 205.0625 205.035156 C 202.648438 207.449219 199.867188 209.140625 197.027344 210.472656 C 194.007812 211.800781 190.746094 212.402344 187.484375 212.402344 C 184.222656 212.402344 180.957031 211.738281 177.695312 210.472656 C 174.855469 209.140625 172.078125 207.449219 169.660156 205.035156 C 167.246094 202.617188 165.554688 199.839844 164.222656 197 C 162.894531 193.976562 162.292969 190.714844 162.292969 187.453125 C 162.292969 184.191406 162.957031 180.929688 164.222656 177.90625 C 165.492188 174.886719 167.246094 172.046875 169.660156 169.632812 C 172.078125 167.214844 174.855469 165.523438 177.695312 164.195312 C 180.957031 162.863281 184.222656 162.441406 187.484375 162.261719 C 190.746094 162.503906 194.007812 162.925781 197.027344 164.195312 C 199.867188 165.523438 202.648438 167.273438 205.0625 169.632812 Z M 197.027344 187.453125 C 197.027344 186.125 196.789062 184.855469 196.363281 183.769531 C 195.941406 182.4375 195.277344 181.351562 194.191406 180.503906 C 193.34375 179.660156 192.257812 178.996094 191.167969 178.332031 C 189.839844 177.90625 188.570312 177.667969 187.484375 177.667969 C 186.15625 177.667969 184.886719 177.90625 183.796875 178.332031 C 182.46875 178.996094 181.382812 179.660156 180.535156 180.503906 C 179.691406 181.351562 179.027344 182.4375 178.359375 183.769531 C 177.9375 184.855469 177.695312 186.183594 177.695312 187.453125 C 177.695312 188.539062 177.9375 189.871094 178.359375 191.136719 C 179.027344 192.226562 179.691406 193.3125 180.535156 194.160156 C 181.382812 195.246094 182.46875 195.910156 183.796875 196.335938 C 184.886719 196.757812 186.214844 197 187.484375 197 C 188.570312 197 189.898438 196.757812 191.167969 196.335938 C 192.257812 195.910156 193.34375 195.246094 194.191406 194.160156 C 195.277344 193.3125 195.941406 192.226562 196.363281 191.136719 C 196.789062 189.808594 197.027344 188.539062 197.027344 187.453125 Z M 199.625 66.023438 C 199.625 64.511719 199.203125 63 198.78125 61.492188 C 198.117188 59.980469 197.269531 58.652344 195.941406 57.5625 C 194.855469 56.234375 193.523438 55.390625 192.015625 54.722656 C 190.503906 54.300781 188.992188 53.878906 187.484375 53.878906 C 185.730469 53.878906 184.222656 54.300781 182.710938 54.722656 C 181.382812 55.390625 179.871094 56.234375 178.785156 57.5625 C 177.695312 58.652344 176.851562 59.980469 176.1875 61.492188 C 175.523438 63 175.097656 64.511719 175.097656 66.023438 C 175.097656 67.773438 175.523438 69.285156 176.1875 70.792969 C 176.851562 72.125 177.695312 73.632812 178.785156 74.722656 C 179.871094 75.808594 181.382812 76.894531 182.710938 77.320312 C 184.222656 77.984375 185.730469 78.40625 187.484375 78.40625 C 188.992188 78.40625 190.503906 77.984375 192.015625 77.320312 C 193.523438 76.894531 194.855469 75.808594 195.941406 74.722656 C 197.269531 73.632812 198.117188 72.125 198.78125 70.792969 C 199.203125 69.285156 199.625 67.773438 199.625 66.023438 Z M 199.625 66.023438 " clip-rule="nonzero"/></clipPath><linearGradient x1="-3063.033431" gradientTransform="matrix(0.0230901, 0, 0, -0.0230901, 116.13492, 293.307887)" y1="-2305.501415" x2="9235.562753" gradientUnits="userSpaceOnUse" y2="11478.931785" id="537ace1f05"><stop stop-opacity="1" stop-color="rgb(97.999573%, 74.099731%, 8.599854%)" offset="0"/><stop stop-opacity="1" stop-color="rgb(97.999573%, 74.099731%, 8.599854%)" offset="0.125"/><stop stop-opacity="1" stop-color="rgb(97.999573%, 74.099731%, 8.599854%)" offset="0.15625"/><stop stop-opacity="1" stop-color="rgb(98.002625%, 73.980713%, 8.583069%)" offset="0.164062"/><stop stop-opacity="1" stop-color="rgb(98.01178%, 73.622131%, 8.535767%)" offset="0.167969"/><stop stop-opacity="1" stop-color="rgb(98.019409%, 73.384094%, 8.505249%)" offset="0.171875"/><stop stop-opacity="1" stop-color="rgb(98.025513%, 73.144531%, 8.473206%)" offset="0.175781"/><stop stop-opacity="1" stop-color="rgb(98.033142%, 72.906494%, 8.441162%)" offset="0.179688"/><stop stop-opacity="1" stop-color="rgb(98.039246%, 72.666931%, 8.409119%)" offset="0.183594"/><stop stop-opacity="1" stop-color="rgb(98.046875%, 72.427368%, 8.378601%)" offset="0.1875"/><stop stop-opacity="1" stop-color="rgb(98.052979%, 72.187805%, 8.346558%)" offset="0.191406"/><stop stop-opacity="1" stop-color="rgb(98.060608%, 71.949768%, 8.314514%)" offset="0.195313"/><stop stop-opacity="1" stop-color="rgb(98.066711%, 71.710205%, 8.282471%)" offset="0.199219"/><stop stop-opacity="1" stop-color="rgb(98.074341%, 71.472168%, 8.251953%)" offset="0.203125"/><stop stop-opacity="1" stop-color="rgb(98.080444%, 71.232605%, 8.21991%)" offset="0.207031"/><stop stop-opacity="1" stop-color="rgb(98.088074%, 70.993042%, 8.187866%)" offset="0.210938"/><stop stop-opacity="1" stop-color="rgb(98.095703%, 70.753479%, 8.155823%)" offset="0.214844"/><stop stop-opacity="1" stop-color="rgb(98.103333%, 70.515442%, 8.125305%)" offset="0.21875"/><stop stop-opacity="1" stop-color="rgb(98.109436%, 70.275879%, 8.093262%)" offset="0.222656"/><stop stop-opacity="1" stop-color="rgb(98.117065%, 70.037842%, 8.062744%)" offset="0.226563"/><stop stop-opacity="1" stop-color="rgb(98.123169%, 69.798279%, 8.030701%)" offset="0.230469"/><stop stop-opacity="1" stop-color="rgb(98.130798%, 69.558716%, 7.998657%)" offset="0.234375"/><stop stop-opacity="1" stop-color="rgb(98.136902%, 69.319153%, 7.966614%)" offset="0.238281"/><stop stop-opacity="1" stop-color="rgb(98.144531%, 69.081116%, 7.936096%)" offset="0.242188"/><stop stop-opacity="1" stop-color="rgb(98.150635%, 68.841553%, 7.904053%)" offset="0.246094"/><stop stop-opacity="1" stop-color="rgb(98.158264%, 68.603516%, 7.872009%)" offset="0.25"/><stop stop-opacity="1" stop-color="rgb(98.164368%, 68.363953%, 7.839966%)" offset="0.253906"/><stop stop-opacity="1" stop-color="rgb(98.171997%, 68.12439%, 7.809448%)" offset="0.257813"/><stop stop-opacity="1" stop-color="rgb(98.178101%, 67.884827%, 7.777405%)" offset="0.261719"/><stop stop-opacity="1" stop-color="rgb(98.18573%, 67.64679%, 7.745361%)" offset="0.265625"/><stop stop-opacity="1" stop-color="rgb(98.191833%, 67.407227%, 7.713318%)" offset="0.269531"/><stop stop-opacity="1" stop-color="rgb(98.199463%, 67.169189%, 7.6828%)" offset="0.273438"/><stop stop-opacity="1" stop-color="rgb(98.205566%, 66.929626%, 7.650757%)" offset="0.277344"/><stop stop-opacity="1" stop-color="rgb(98.213196%, 66.690063%, 7.620239%)" offset="0.28125"/><stop stop-opacity="1" stop-color="rgb(98.219299%, 66.4505%, 7.588196%)" offset="0.285156"/><stop stop-opacity="1" stop-color="rgb(98.226929%, 66.212463%, 7.556152%)" offset="0.289063"/><stop stop-opacity="1" stop-color="rgb(98.233032%, 65.9729%, 7.524109%)" offset="0.292969"/><stop stop-opacity="1" stop-color="rgb(98.240662%, 65.734863%, 7.493591%)" offset="0.296875"/><stop stop-opacity="1" stop-color="rgb(98.246765%, 65.4953%, 7.461548%)" offset="0.300781"/><stop stop-opacity="1" stop-color="rgb(98.254395%, 65.255737%, 7.429504%)" offset="0.304688"/><stop stop-opacity="1" stop-color="rgb(98.260498%, 65.016174%, 7.397461%)" offset="0.308594"/><stop stop-opacity="1" stop-color="rgb(98.268127%, 64.778137%, 7.366943%)" offset="0.3125"/><stop stop-opacity="1" stop-color="rgb(98.274231%, 64.538574%, 7.3349%)" offset="0.316406"/><stop stop-opacity="1" stop-color="rgb(98.28186%, 64.300537%, 7.304382%)" offset="0.320313"/><stop stop-opacity="1" stop-color="rgb(98.287964%, 64.060974%, 7.272339%)" offset="0.324219"/><stop stop-opacity="1" stop-color="rgb(98.295593%, 63.821411%, 7.240295%)" offset="0.328125"/><stop stop-opacity="1" stop-color="rgb(98.301697%, 63.581848%, 7.208252%)" offset="0.332031"/><stop stop-opacity="1" stop-color="rgb(98.309326%, 63.343811%, 7.177734%)" offset="0.335938"/><stop stop-opacity="1" stop-color="rgb(98.31543%, 63.104248%, 7.145691%)" offset="0.339844"/><stop stop-opacity="1" stop-color="rgb(98.323059%, 62.866211%, 7.113647%)" offset="0.34375"/><stop stop-opacity="1" stop-color="rgb(98.329163%, 62.626648%, 7.081604%)" offset="0.347656"/><stop stop-opacity="1" stop-color="rgb(98.336792%, 62.387085%, 7.051086%)" offset="0.351563"/><stop stop-opacity="1" stop-color="rgb(98.342896%, 62.147522%, 7.019043%)" offset="0.355469"/><stop stop-opacity="1" stop-color="rgb(98.350525%, 61.909485%, 6.987%)" offset="0.359375"/><stop stop-opacity="1" stop-color="rgb(98.356628%, 61.669922%, 6.954956%)" offset="0.363281"/><stop stop-opacity="1" stop-color="rgb(98.364258%, 61.431885%, 6.924438%)" offset="0.367188"/><stop stop-opacity="1" stop-color="rgb(98.370361%, 61.192322%, 6.892395%)" offset="0.371094"/><stop stop-opacity="1" stop-color="rgb(98.377991%, 60.952759%, 6.861877%)" offset="0.375"/><stop stop-opacity="1" stop-color="rgb(98.384094%, 60.713196%, 6.829834%)" offset="0.378906"/><stop stop-opacity="1" stop-color="rgb(98.391724%, 60.475159%, 6.797791%)" offset="0.382813"/><stop stop-opacity="1" stop-color="rgb(98.397827%, 60.235596%, 6.765747%)" offset="0.386719"/><stop stop-opacity="1" stop-color="rgb(98.405457%, 59.997559%, 6.735229%)" offset="0.390625"/><stop stop-opacity="1" stop-color="rgb(98.41156%, 59.757996%, 6.703186%)" offset="0.394531"/><stop stop-opacity="1" stop-color="rgb(98.419189%, 59.518433%, 6.671143%)" offset="0.398438"/><stop stop-opacity="1" stop-color="rgb(98.425293%, 59.27887%, 6.639099%)" offset="0.402344"/><stop stop-opacity="1" stop-color="rgb(98.432922%, 59.040833%, 6.608582%)" offset="0.40625"/><stop stop-opacity="1" stop-color="rgb(98.439026%, 58.80127%, 6.576538%)" offset="0.410156"/><stop stop-opacity="1" stop-color="rgb(98.446655%, 58.561707%, 6.544495%)" offset="0.414062"/><stop stop-opacity="1" stop-color="rgb(98.454285%, 58.322144%, 6.512451%)" offset="0.417969"/><stop stop-opacity="1" stop-color="rgb(98.461914%, 58.084106%, 6.481934%)" offset="0.421875"/><stop stop-opacity="1" stop-color="rgb(98.468018%, 57.844543%, 6.44989%)" offset="0.425781"/><stop stop-opacity="1" stop-color="rgb(98.475647%, 57.606506%, 6.419373%)" offset="0.429688"/><stop stop-opacity="1" stop-color="rgb(98.48175%, 57.366943%, 6.387329%)" offset="0.433594"/><stop stop-opacity="1" stop-color="rgb(98.48938%, 57.12738%, 6.355286%)" offset="0.4375"/><stop stop-opacity="1" stop-color="rgb(98.495483%, 56.887817%, 6.323242%)" offset="0.441406"/><stop stop-opacity="1" stop-color="rgb(98.503113%, 56.64978%, 6.292725%)" offset="0.445313"/><stop stop-opacity="1" stop-color="rgb(98.509216%, 56.410217%, 6.260681%)" offset="0.449219"/><stop stop-opacity="1" stop-color="rgb(98.516846%, 56.17218%, 6.228638%)" offset="0.453125"/><stop stop-opacity="1" stop-color="rgb(98.522949%, 55.932617%, 6.196594%)" offset="0.457031"/><stop stop-opacity="1" stop-color="rgb(98.530579%, 55.693054%, 6.166077%)" offset="0.460938"/><stop stop-opacity="1" stop-color="rgb(98.536682%, 55.453491%, 6.134033%)" offset="0.464844"/><stop stop-opacity="1" stop-color="rgb(98.544312%, 55.215454%, 6.10199%)" offset="0.46875"/><stop stop-opacity="1" stop-color="rgb(98.550415%, 54.975891%, 6.069946%)" offset="0.472656"/><stop stop-opacity="1" stop-color="rgb(98.558044%, 54.737854%, 6.039429%)" offset="0.476563"/><stop stop-opacity="1" stop-color="rgb(98.564148%, 54.498291%, 6.007385%)" offset="0.480469"/><stop stop-opacity="1" stop-color="rgb(98.571777%, 54.258728%, 5.976868%)" offset="0.484375"/><stop stop-opacity="1" stop-color="rgb(98.577881%, 54.019165%, 5.944824%)" offset="0.488281"/><stop stop-opacity="1" stop-color="rgb(98.58551%, 53.781128%, 5.912781%)" offset="0.492188"/><stop stop-opacity="1" stop-color="rgb(98.591614%, 53.541565%, 5.880737%)" offset="0.496094"/><stop stop-opacity="1" stop-color="rgb(98.599243%, 53.303528%, 5.85022%)" offset="0.5"/><stop stop-opacity="1" stop-color="rgb(98.605347%, 53.063965%, 5.818176%)" offset="0.503906"/><stop stop-opacity="1" stop-color="rgb(98.612976%, 52.824402%, 5.786133%)" offset="0.507812"/><stop stop-opacity="1" stop-color="rgb(98.61908%, 52.584839%, 5.754089%)" offset="0.511719"/><stop stop-opacity="1" stop-color="rgb(98.626709%, 52.346802%, 5.723572%)" offset="0.515625"/><stop stop-opacity="1" stop-color="rgb(98.632812%, 52.107239%, 5.691528%)" offset="0.519531"/><stop stop-opacity="1" stop-color="rgb(98.640442%, 51.869202%, 5.659485%)" offset="0.523438"/><stop stop-opacity="1" stop-color="rgb(98.646545%, 51.629639%, 5.627441%)" offset="0.527344"/><stop stop-opacity="1" stop-color="rgb(98.654175%, 51.390076%, 5.596924%)" offset="0.53125"/><stop stop-opacity="1" stop-color="rgb(98.660278%, 51.150513%, 5.56488%)" offset="0.535156"/><stop stop-opacity="1" stop-color="rgb(98.667908%, 50.912476%, 5.534363%)" offset="0.539063"/><stop stop-opacity="1" stop-color="rgb(98.674011%, 50.672913%, 5.502319%)" offset="0.542969"/><stop stop-opacity="1" stop-color="rgb(98.681641%, 50.434875%, 5.470276%)" offset="0.546875"/><stop stop-opacity="1" stop-color="rgb(98.687744%, 50.195312%, 5.438232%)" offset="0.550781"/><stop stop-opacity="1" stop-color="rgb(98.695374%, 49.95575%, 5.407715%)" offset="0.554688"/><stop stop-opacity="1" stop-color="rgb(98.701477%, 49.716187%, 5.375671%)" offset="0.558594"/><stop stop-opacity="1" stop-color="rgb(98.709106%, 49.478149%, 5.343628%)" offset="0.5625"/><stop stop-opacity="1" stop-color="rgb(98.71521%, 49.238586%, 5.311584%)" offset="0.566406"/><stop stop-opacity="1" stop-color="rgb(98.722839%, 49.000549%, 5.281067%)" offset="0.570312"/><stop stop-opacity="1" stop-color="rgb(98.728943%, 48.760986%, 5.249023%)" offset="0.574219"/><stop stop-opacity="1" stop-color="rgb(98.736572%, 48.521423%, 5.21698%)" offset="0.578125"/><stop stop-opacity="1" stop-color="rgb(98.742676%, 48.28186%, 5.184937%)" offset="0.582031"/><stop stop-opacity="1" stop-color="rgb(98.750305%, 48.043823%, 5.154419%)" offset="0.585938"/><stop stop-opacity="1" stop-color="rgb(98.756409%, 47.80426%, 5.122375%)" offset="0.589844"/><stop stop-opacity="1" stop-color="rgb(98.764038%, 47.566223%, 5.091858%)" offset="0.59375"/><stop stop-opacity="1" stop-color="rgb(98.770142%, 47.32666%, 5.059814%)" offset="0.597656"/><stop stop-opacity="1" stop-color="rgb(98.777771%, 47.087097%, 5.027771%)" offset="0.601563"/><stop stop-opacity="1" stop-color="rgb(98.783875%, 46.847534%, 4.995728%)" offset="0.605469"/><stop stop-opacity="1" stop-color="rgb(98.791504%, 46.609497%, 4.96521%)" offset="0.609375"/><stop stop-opacity="1" stop-color="rgb(98.797607%, 46.369934%, 4.933167%)" offset="0.613281"/><stop stop-opacity="1" stop-color="rgb(98.805237%, 46.131897%, 4.901123%)" offset="0.617188"/><stop stop-opacity="1" stop-color="rgb(98.812866%, 45.892334%, 4.86908%)" offset="0.621094"/><stop stop-opacity="1" stop-color="rgb(98.820496%, 45.652771%, 4.838562%)" offset="0.625"/><stop stop-opacity="1" stop-color="rgb(98.826599%, 45.413208%, 4.806519%)" offset="0.628906"/><stop stop-opacity="1" stop-color="rgb(98.834229%, 45.175171%, 4.774475%)" offset="0.632813"/><stop stop-opacity="1" stop-color="rgb(98.840332%, 44.935608%, 4.742432%)" offset="0.636719"/><stop stop-opacity="1" stop-color="rgb(98.847961%, 44.697571%, 4.711914%)" offset="0.640625"/><stop stop-opacity="1" stop-color="rgb(98.854065%, 44.458008%, 4.679871%)" offset="0.644531"/><stop stop-opacity="1" stop-color="rgb(98.861694%, 44.218445%, 4.649353%)" offset="0.648438"/><stop stop-opacity="1" stop-color="rgb(98.867798%, 43.978882%, 4.61731%)" offset="0.652344"/><stop stop-opacity="1" stop-color="rgb(98.875427%, 43.740845%, 4.585266%)" offset="0.65625"/><stop stop-opacity="1" stop-color="rgb(98.881531%, 43.501282%, 4.553223%)" offset="0.660156"/><stop stop-opacity="1" stop-color="rgb(98.88916%, 43.263245%, 4.522705%)" offset="0.664063"/><stop stop-opacity="1" stop-color="rgb(98.895264%, 43.023682%, 4.490662%)" offset="0.667969"/><stop stop-opacity="1" stop-color="rgb(98.902893%, 42.784119%, 4.458618%)" offset="0.671875"/><stop stop-opacity="1" stop-color="rgb(98.908997%, 42.544556%, 4.426575%)" offset="0.675781"/><stop stop-opacity="1" stop-color="rgb(98.916626%, 42.306519%, 4.396057%)" offset="0.679688"/><stop stop-opacity="1" stop-color="rgb(98.922729%, 42.066956%, 4.364014%)" offset="0.683594"/><stop stop-opacity="1" stop-color="rgb(98.930359%, 41.828918%, 4.33197%)" offset="0.6875"/><stop stop-opacity="1" stop-color="rgb(98.936462%, 41.589355%, 4.299927%)" offset="0.691406"/><stop stop-opacity="1" stop-color="rgb(98.944092%, 41.349792%, 4.269409%)" offset="0.695313"/><stop stop-opacity="1" stop-color="rgb(98.950195%, 41.110229%, 4.237366%)" offset="0.699219"/><stop stop-opacity="1" stop-color="rgb(98.957825%, 40.872192%, 4.206848%)" offset="0.703125"/><stop stop-opacity="1" stop-color="rgb(98.963928%, 40.632629%, 4.174805%)" offset="0.707031"/><stop stop-opacity="1" stop-color="rgb(98.971558%, 40.394592%, 4.142761%)" offset="0.710938"/><stop stop-opacity="1" stop-color="rgb(98.977661%, 40.155029%, 4.110718%)" offset="0.714844"/><stop stop-opacity="1" stop-color="rgb(98.985291%, 39.915466%, 4.0802%)" offset="0.71875"/><stop stop-opacity="1" stop-color="rgb(98.991394%, 39.675903%, 4.048157%)" offset="0.722656"/><stop stop-opacity="1" stop-color="rgb(98.999023%, 39.437866%, 4.016113%)" offset="0.726563"/><stop stop-opacity="1" stop-color="rgb(99.005127%, 39.198303%, 3.98407%)" offset="0.730469"/><stop stop-opacity="1" stop-color="rgb(99.012756%, 38.960266%, 3.953552%)" offset="0.734375"/><stop stop-opacity="1" stop-color="rgb(99.01886%, 38.720703%, 3.921509%)" offset="0.738281"/><stop stop-opacity="1" stop-color="rgb(99.026489%, 38.48114%, 3.889465%)" offset="0.742188"/><stop stop-opacity="1" stop-color="rgb(99.032593%, 38.241577%, 3.857422%)" offset="0.746094"/><stop stop-opacity="1" stop-color="rgb(99.040222%, 38.00354%, 3.826904%)" offset="0.75"/><stop stop-opacity="1" stop-color="rgb(99.046326%, 37.763977%, 3.794861%)" offset="0.753906"/><stop stop-opacity="1" stop-color="rgb(99.053955%, 37.52594%, 3.764343%)" offset="0.757812"/><stop stop-opacity="1" stop-color="rgb(99.060059%, 37.286377%, 3.7323%)" offset="0.761719"/><stop stop-opacity="1" stop-color="rgb(99.067688%, 37.046814%, 3.700256%)" offset="0.765625"/><stop stop-opacity="1" stop-color="rgb(99.073792%, 36.807251%, 3.668213%)" offset="0.769531"/><stop stop-opacity="1" stop-color="rgb(99.081421%, 36.569214%, 3.637695%)" offset="0.773438"/><stop stop-opacity="1" stop-color="rgb(99.087524%, 36.329651%, 3.605652%)" offset="0.777344"/><stop stop-opacity="1" stop-color="rgb(99.095154%, 36.091614%, 3.573608%)" offset="0.78125"/><stop stop-opacity="1" stop-color="rgb(99.101257%, 35.852051%, 3.541565%)" offset="0.785156"/><stop stop-opacity="1" stop-color="rgb(99.108887%, 35.612488%, 3.511047%)" offset="0.789063"/><stop stop-opacity="1" stop-color="rgb(99.11499%, 35.372925%, 3.479004%)" offset="0.792969"/><stop stop-opacity="1" stop-color="rgb(99.12262%, 35.134888%, 3.44696%)" offset="0.796875"/><stop stop-opacity="1" stop-color="rgb(99.128723%, 34.895325%, 3.414917%)" offset="0.800781"/><stop stop-opacity="1" stop-color="rgb(99.136353%, 34.657288%, 3.384399%)" offset="0.804688"/><stop stop-opacity="1" stop-color="rgb(99.142456%, 34.417725%, 3.352356%)" offset="0.808594"/><stop stop-opacity="1" stop-color="rgb(99.150085%, 34.178162%, 3.321838%)" offset="0.8125"/><stop stop-opacity="1" stop-color="rgb(99.156189%, 33.938599%, 3.289795%)" offset="0.816406"/><stop stop-opacity="1" stop-color="rgb(99.163818%, 33.700562%, 3.257751%)" offset="0.820312"/><stop stop-opacity="1" stop-color="rgb(99.171448%, 33.460999%, 3.225708%)" offset="0.824219"/><stop stop-opacity="1" stop-color="rgb(99.179077%, 33.222961%, 3.19519%)" offset="0.828125"/><stop stop-opacity="1" stop-color="rgb(99.185181%, 32.983398%, 3.163147%)" offset="0.832031"/><stop stop-opacity="1" stop-color="rgb(99.19281%, 32.743835%, 3.131104%)" offset="0.835938"/><stop stop-opacity="1" stop-color="rgb(99.195862%, 32.621765%, 3.114319%)" offset="0.84375"/><stop stop-opacity="1" stop-color="rgb(99.198914%, 32.499695%, 3.09906%)" offset="0.875"/><stop stop-opacity="1" stop-color="rgb(99.198914%, 32.499695%, 3.09906%)" offset="1"/></linearGradient></defs><g clip-path="url(#ee3f5a2d9c)"><rect x="-37.5" width="450" fill="#fefefe" y="-37.499999" height="449.999989" fill-opacity="1"/></g><g clip-path="url(#41080a3a16)"><g clip-path="url(#c2e2454885)"><path fill="url(#537ace1f05)" d="M 36.449219 338.546875 L 36.449219 36.296875 L 338.398438 36.296875 L 338.398438 338.546875 Z M 36.449219 338.546875 " fill-rule="nonzero"/></g></g></svg>