<svg xmlns="http://www.w3.org/2000/svg" xmlns:xlink="http://www.w3.org/1999/xlink" width="460" zoomAndPan="magnify" viewBox="0 0 345 74.999997" height="100" preserveAspectRatio="xMidYMid meet" version="1.0"><defs><g/><clipPath id="be14861988"><path d="M 0 5.074219 L 64.5 5.074219 L 64.5 69.574219 L 0 69.574219 Z M 0 5.074219 " clip-rule="nonzero"/></clipPath><clipPath id="5decb58df2"><path d="M 36.75 6.929688 C 37.355469 7.539062 37.820312 8.273438 38.089844 9.019531 C 38.414062 9.804688 38.605469 10.59375 38.605469 11.429688 C 38.605469 12.035156 38.515625 12.628906 38.375 13.195312 C 38.230469 13.609375 38.050781 14.074219 37.820312 14.449219 L 43.015625 19.644531 C 43.941406 19.230469 44.960938 19.089844 45.929688 19.230469 C 47 19.371094 48.054688 19.875 48.84375 20.714844 C 49.859375 21.730469 50.414062 23.074219 50.414062 24.425781 C 50.414062 25.726562 49.859375 27.070312 48.882812 28.085938 C 47.863281 29.105469 46.523438 29.621094 45.167969 29.621094 C 43.8125 29.621094 42.488281 29.105469 41.457031 28.085938 C 40.617188 27.25 40.152344 26.230469 39.972656 25.171875 C 39.832031 24.207031 39.972656 23.175781 40.386719 22.261719 L 35.242188 17.066406 C 34.828125 17.296875 34.402344 17.476562 33.9375 17.582031 C 33.382812 17.761719 32.777344 17.8125 32.222656 17.8125 C 31.617188 17.8125 31.023438 17.761719 30.457031 17.582031 C 30.046875 17.488281 29.621094 17.296875 29.207031 17.066406 L 24.0625 22.222656 C 24.476562 23.148438 24.617188 24.167969 24.476562 25.136719 C 24.335938 26.207031 23.832031 27.222656 22.992188 28.046875 C 22.15625 28.875 21.136719 29.390625 20.078125 29.53125 C 19.113281 29.671875 18.082031 29.53125 17.167969 29.117188 L 11.96875 34.3125 C 12.203125 34.6875 12.382812 35.152344 12.484375 35.566406 C 12.667969 36.121094 12.769531 36.726562 12.769531 37.332031 C 12.769531 37.886719 12.679688 38.492188 12.484375 39.046875 C 12.394531 39.511719 12.203125 39.921875 11.96875 40.347656 L 17.167969 45.492188 C 18.09375 45.078125 19.113281 44.9375 20.078125 45.078125 C 21.148438 45.261719 22.167969 45.722656 22.992188 46.5625 C 23.820312 47.398438 24.335938 48.417969 24.476562 49.476562 C 24.617188 50.496094 24.476562 51.511719 24.0625 52.390625 L 29.257812 57.585938 C 29.671875 57.351562 30.097656 57.210938 30.507812 57.070312 C 31.0625 56.925781 31.667969 56.835938 32.277344 56.835938 C 32.832031 56.835938 33.4375 56.925781 33.992188 57.070312 C 34.453125 57.210938 34.867188 57.351562 35.292969 57.585938 L 40.4375 52.390625 C 40.023438 51.511719 39.882812 50.496094 40.023438 49.476562 C 40.203125 48.40625 40.667969 47.386719 41.507812 46.5625 C 42.523438 45.542969 43.867188 45.027344 45.21875 45.027344 C 46.574219 45.027344 47.902344 45.542969 48.882812 46.5625 C 49.898438 47.582031 50.414062 48.921875 50.414062 50.273438 C 50.414062 51.628906 49.898438 52.917969 48.882812 53.9375 C 48.09375 54.773438 47.023438 55.277344 45.96875 55.417969 C 45 55.5625 43.96875 55.417969 43.054688 55.007812 L 37.910156 60.203125 C 38.089844 60.613281 38.285156 61.039062 38.425781 61.453125 C 38.566406 62.058594 38.65625 62.613281 38.65625 63.21875 C 38.65625 64.058594 38.476562 64.882812 38.140625 65.679688 C 37.859375 66.429688 37.394531 67.113281 36.800781 67.71875 C 36.195312 68.324219 35.460938 68.789062 34.710938 69.109375 C 33.925781 69.433594 33.140625 69.574219 32.300781 69.574219 C 31.464844 69.574219 30.636719 69.433594 29.839844 69.109375 C 29.089844 68.789062 28.40625 68.324219 27.800781 67.71875 C 27.195312 67.113281 26.730469 66.417969 26.410156 65.679688 C 26.085938 64.894531 25.945312 64.058594 25.945312 63.21875 C 25.945312 62.613281 25.996094 62.058594 26.179688 61.453125 C 26.269531 61.039062 26.460938 60.613281 26.695312 60.203125 L 21.496094 55.007812 C 20.570312 55.417969 19.550781 55.5625 18.585938 55.417969 C 17.515625 55.277344 16.496094 54.773438 15.671875 53.9375 C 14.832031 53.148438 14.328125 52.078125 14.1875 51.023438 C 14.046875 50.054688 14.1875 49.023438 14.601562 48.109375 L 9.40625 42.914062 C 9.03125 43.144531 8.566406 43.324219 8.15625 43.46875 C 7.601562 43.609375 6.992188 43.699219 6.386719 43.699219 C 5.601562 43.699219 4.765625 43.519531 3.976562 43.183594 C 3.230469 42.902344 2.496094 42.4375 1.890625 41.84375 C 1.28125 41.238281 0.820312 40.503906 0.546875 39.753906 C 0.226562 38.96875 0.03125 38.128906 0.03125 37.34375 C 0.03125 36.507812 0.210938 35.679688 0.546875 34.882812 C 0.832031 34.132812 1.296875 33.449219 1.890625 32.84375 C 2.480469 32.238281 3.230469 31.773438 3.976562 31.453125 C 4.765625 31.128906 5.601562 30.9375 6.386719 30.9375 C 7.457031 30.9375 8.476562 31.21875 9.40625 31.722656 L 14.601562 26.527344 C 14.1875 25.597656 14.046875 24.582031 14.1875 23.613281 C 14.328125 22.542969 14.832031 21.523438 15.671875 20.699219 C 16.507812 19.863281 17.527344 19.359375 18.585938 19.21875 C 19.550781 19.074219 20.582031 19.21875 21.496094 19.628906 L 26.695312 14.433594 C 26.460938 14.0625 26.28125 13.597656 26.179688 13.183594 C 25.996094 12.628906 25.945312 12.023438 25.945312 11.417969 C 25.945312 10.632812 26.085938 9.792969 26.410156 9.007812 C 26.730469 8.257812 27.195312 7.523438 27.800781 6.917969 C 28.40625 6.3125 29.066406 5.859375 29.800781 5.589844 C 30.585938 5.269531 31.425781 5.074219 32.261719 5.074219 C 33.886719 5.074219 35.5 5.71875 36.75 6.929688 Z M 34.855469 63.191406 C 34.855469 62.871094 34.765625 62.496094 34.671875 62.175781 C 34.53125 61.890625 34.351562 61.621094 34.066406 61.335938 C 33.835938 61.105469 33.550781 60.925781 33.230469 60.78125 C 32.90625 60.640625 32.585938 60.601562 32.261719 60.601562 C 31.890625 60.601562 31.566406 60.652344 31.246094 60.78125 C 30.960938 60.925781 30.636719 61.105469 30.40625 61.335938 C 30.175781 61.621094 29.992188 61.890625 29.851562 62.175781 C 29.710938 62.496094 29.621094 62.871094 29.621094 63.191406 C 29.621094 63.515625 29.710938 63.890625 29.851562 64.160156 C 29.992188 64.480469 30.175781 64.765625 30.40625 65.035156 C 30.636719 65.269531 30.960938 65.449219 31.246094 65.589844 C 31.566406 65.734375 31.890625 65.773438 32.261719 65.773438 C 32.585938 65.773438 32.90625 65.71875 33.230469 65.589844 C 33.550781 65.449219 33.835938 65.269531 34.066406 65.035156 C 34.351562 64.753906 34.53125 64.480469 34.671875 64.160156 C 34.765625 63.875 34.855469 63.515625 34.855469 63.191406 Z M 8.992188 37.332031 C 8.992188 36.957031 8.902344 36.636719 8.761719 36.3125 C 8.671875 36.027344 8.4375 35.707031 8.207031 35.476562 C 7.972656 35.242188 7.652344 35.011719 7.367188 34.921875 C 7.046875 34.777344 6.722656 34.6875 6.347656 34.6875 C 6.027344 34.6875 5.703125 34.777344 5.382812 34.921875 C 5.058594 35.011719 4.777344 35.242188 4.542969 35.476562 C 4.261719 35.707031 4.082031 36.027344 3.9375 36.3125 C 3.847656 36.636719 3.757812 36.957031 3.757812 37.332031 C 3.757812 37.652344 3.847656 37.976562 3.9375 38.296875 C 4.082031 38.621094 4.261719 38.902344 4.542969 39.136719 C 4.777344 39.417969 5.058594 39.601562 5.382812 39.742188 C 5.703125 39.832031 6.027344 39.921875 6.347656 39.921875 C 6.722656 39.921875 7.046875 39.832031 7.367188 39.742188 C 7.652344 39.601562 7.972656 39.417969 8.207031 39.136719 C 8.4375 38.902344 8.671875 38.621094 8.761719 38.296875 C 8.902344 37.976562 8.992188 37.652344 8.992188 37.332031 Z M 62.609375 32.832031 C 63.21875 33.4375 63.679688 34.132812 64.003906 34.867188 C 64.324219 35.65625 64.46875 36.492188 64.46875 37.332031 C 64.46875 38.117188 64.324219 38.957031 64.003906 39.742188 C 63.679688 40.488281 63.21875 41.226562 62.609375 41.832031 C 62.003906 42.4375 61.308594 42.902344 60.574219 43.171875 C 59.789062 43.492188 58.949219 43.6875 58.113281 43.6875 C 57.273438 43.6875 56.449219 43.507812 55.648438 43.171875 C 54.902344 42.886719 54.21875 42.421875 53.613281 41.832031 C 53.007812 41.226562 52.542969 40.488281 52.21875 39.742188 C 51.898438 38.957031 51.757812 38.117188 51.757812 37.332031 C 51.757812 36.492188 51.898438 35.667969 52.21875 34.867188 C 52.542969 34.121094 53.007812 33.4375 53.613281 32.832031 C 54.21875 32.226562 54.914062 31.761719 55.648438 31.4375 C 56.4375 31.117188 57.273438 30.976562 58.113281 30.976562 C 58.949219 30.976562 59.773438 31.117188 60.574219 31.4375 C 61.320312 31.761719 62.003906 32.226562 62.609375 32.832031 Z M 60.714844 37.332031 C 60.714844 36.957031 60.664062 36.636719 60.535156 36.3125 C 60.394531 36.027344 60.214844 35.707031 59.980469 35.476562 C 59.699219 35.242188 59.425781 35.011719 59.105469 34.921875 C 58.820312 34.777344 58.460938 34.6875 58.136719 34.6875 C 57.816406 34.6875 57.441406 34.777344 57.121094 34.921875 C 56.835938 35.011719 56.566406 35.242188 56.28125 35.476562 C 56.050781 35.707031 55.867188 36.027344 55.726562 36.3125 C 55.585938 36.636719 55.546875 36.957031 55.546875 37.332031 C 55.546875 37.652344 55.597656 37.976562 55.726562 38.296875 C 55.867188 38.621094 56.050781 38.902344 56.28125 39.136719 C 56.566406 39.417969 56.835938 39.601562 57.121094 39.742188 C 57.441406 39.832031 57.816406 39.921875 58.136719 39.921875 C 58.460938 39.921875 58.832031 39.832031 59.105469 39.742188 C 59.425781 39.601562 59.710938 39.417969 59.980469 39.136719 C 60.214844 38.902344 60.394531 38.621094 60.535156 38.296875 C 60.664062 37.976562 60.714844 37.652344 60.714844 37.332031 Z M 36.015625 33.527344 C 36.53125 34.042969 36.890625 34.636719 37.175781 35.292969 C 37.457031 35.9375 37.585938 36.636719 37.585938 37.332031 C 37.585938 38.027344 37.445312 38.722656 37.175781 39.367188 C 36.890625 39.972656 36.53125 40.566406 36.015625 41.082031 C 35.5 41.597656 34.90625 41.960938 34.300781 42.242188 C 33.65625 42.527344 32.960938 42.65625 32.261719 42.65625 C 31.566406 42.65625 30.871094 42.515625 30.175781 42.242188 C 29.570312 41.960938 28.976562 41.597656 28.460938 41.082031 C 27.945312 40.566406 27.582031 39.972656 27.300781 39.367188 C 27.015625 38.722656 26.886719 38.027344 26.886719 37.332031 C 26.886719 36.636719 27.027344 35.9375 27.300781 35.292969 C 27.570312 34.648438 27.945312 34.042969 28.460938 33.527344 C 28.976562 33.011719 29.570312 32.652344 30.175781 32.367188 C 30.871094 32.085938 31.566406 31.992188 32.261719 31.957031 C 32.960938 32.007812 33.65625 32.097656 34.300781 32.367188 C 34.90625 32.652344 35.5 33.023438 36.015625 33.527344 Z M 34.300781 37.332031 C 34.300781 37.046875 34.25 36.777344 34.15625 36.542969 C 34.066406 36.261719 33.925781 36.027344 33.695312 35.847656 C 33.511719 35.667969 33.28125 35.527344 33.050781 35.382812 C 32.765625 35.292969 32.496094 35.242188 32.261719 35.242188 C 31.980469 35.242188 31.707031 35.292969 31.476562 35.382812 C 31.191406 35.527344 30.960938 35.667969 30.78125 35.847656 C 30.601562 36.027344 30.457031 36.261719 30.316406 36.542969 C 30.226562 36.777344 30.175781 37.058594 30.175781 37.332031 C 30.175781 37.5625 30.226562 37.847656 30.316406 38.117188 C 30.457031 38.351562 30.601562 38.582031 30.78125 38.761719 C 30.960938 38.996094 31.191406 39.136719 31.476562 39.226562 C 31.707031 39.316406 31.992188 39.367188 32.261719 39.367188 C 32.496094 39.367188 32.777344 39.316406 33.050781 39.226562 C 33.28125 39.136719 33.511719 38.996094 33.695312 38.761719 C 33.925781 38.582031 34.066406 38.351562 34.15625 38.117188 C 34.25 37.835938 34.300781 37.5625 34.300781 37.332031 Z M 34.855469 11.417969 C 34.855469 11.09375 34.765625 10.773438 34.671875 10.449219 C 34.53125 10.128906 34.351562 9.84375 34.066406 9.613281 C 33.835938 9.328125 33.550781 9.148438 33.230469 9.007812 C 32.90625 8.917969 32.585938 8.828125 32.261719 8.828125 C 31.890625 8.828125 31.566406 8.917969 31.246094 9.007812 C 30.960938 9.148438 30.636719 9.328125 30.40625 9.613281 C 30.175781 9.84375 29.992188 10.128906 29.851562 10.449219 C 29.710938 10.773438 29.621094 11.09375 29.621094 11.417969 C 29.621094 11.792969 29.710938 12.113281 29.851562 12.4375 C 29.992188 12.71875 30.175781 13.042969 30.40625 13.273438 C 30.636719 13.507812 30.960938 13.738281 31.246094 13.828125 C 31.566406 13.96875 31.890625 14.0625 32.261719 14.0625 C 32.585938 14.0625 32.90625 13.96875 33.230469 13.828125 C 33.550781 13.738281 33.835938 13.507812 34.066406 13.273438 C 34.351562 13.042969 34.53125 12.71875 34.671875 12.4375 C 34.765625 12.113281 34.855469 11.792969 34.855469 11.417969 Z M 34.855469 11.417969 " clip-rule="nonzero"/></clipPath><linearGradient x1="-3063.032754" gradientTransform="matrix(0.00492742, 0, 0, -0.00492742, 17.037134, 59.920503)" y1="-2305.500656" x2="9235.563428" gradientUnits="userSpaceOnUse" y2="11478.932542" id="25b3337569"><stop stop-opacity="1" stop-color="rgb(97.999573%, 74.099731%, 8.599854%)" offset="0"/><stop stop-opacity="1" stop-color="rgb(97.999573%, 74.099731%, 8.599854%)" offset="0.125"/><stop stop-opacity="1" stop-color="rgb(97.999573%, 74.099731%, 8.599854%)" offset="0.15625"/><stop stop-opacity="1" stop-color="rgb(98.002625%, 73.980713%, 8.583069%)" offset="0.164063"/><stop stop-opacity="1" stop-color="rgb(98.01178%, 73.622131%, 8.535767%)" offset="0.167969"/><stop stop-opacity="1" stop-color="rgb(98.019409%, 73.384094%, 8.505249%)" offset="0.171875"/><stop stop-opacity="1" stop-color="rgb(98.025513%, 73.144531%, 8.473206%)" offset="0.175781"/><stop stop-opacity="1" stop-color="rgb(98.033142%, 72.906494%, 8.441162%)" offset="0.179688"/><stop stop-opacity="1" stop-color="rgb(98.039246%, 72.666931%, 8.409119%)" offset="0.183594"/><stop stop-opacity="1" stop-color="rgb(98.046875%, 72.427368%, 8.378601%)" offset="0.1875"/><stop stop-opacity="1" stop-color="rgb(98.052979%, 72.187805%, 8.346558%)" offset="0.191406"/><stop stop-opacity="1" stop-color="rgb(98.060608%, 71.949768%, 8.314514%)" offset="0.195313"/><stop stop-opacity="1" stop-color="rgb(98.066711%, 71.710205%, 8.282471%)" offset="0.199219"/><stop stop-opacity="1" stop-color="rgb(98.074341%, 71.472168%, 8.251953%)" offset="0.203125"/><stop stop-opacity="1" stop-color="rgb(98.080444%, 71.232605%, 8.21991%)" offset="0.207031"/><stop stop-opacity="1" stop-color="rgb(98.088074%, 70.993042%, 8.187866%)" offset="0.210938"/><stop stop-opacity="1" stop-color="rgb(98.095703%, 70.753479%, 8.155823%)" offset="0.214844"/><stop stop-opacity="1" stop-color="rgb(98.103333%, 70.515442%, 8.125305%)" offset="0.21875"/><stop stop-opacity="1" stop-color="rgb(98.109436%, 70.275879%, 8.093262%)" offset="0.222656"/><stop stop-opacity="1" stop-color="rgb(98.117065%, 70.037842%, 8.062744%)" offset="0.226563"/><stop stop-opacity="1" stop-color="rgb(98.123169%, 69.798279%, 8.030701%)" offset="0.230469"/><stop stop-opacity="1" stop-color="rgb(98.130798%, 69.558716%, 7.998657%)" offset="0.234375"/><stop stop-opacity="1" stop-color="rgb(98.136902%, 69.319153%, 7.966614%)" offset="0.238281"/><stop stop-opacity="1" stop-color="rgb(98.144531%, 69.081116%, 7.936096%)" offset="0.242188"/><stop stop-opacity="1" stop-color="rgb(98.150635%, 68.841553%, 7.904053%)" offset="0.246094"/><stop stop-opacity="1" stop-color="rgb(98.158264%, 68.603516%, 7.872009%)" offset="0.25"/><stop stop-opacity="1" stop-color="rgb(98.164368%, 68.363953%, 7.839966%)" offset="0.253906"/><stop stop-opacity="1" stop-color="rgb(98.171997%, 68.12439%, 7.809448%)" offset="0.257813"/><stop stop-opacity="1" stop-color="rgb(98.178101%, 67.884827%, 7.777405%)" offset="0.261719"/><stop stop-opacity="1" stop-color="rgb(98.18573%, 67.64679%, 7.745361%)" offset="0.265625"/><stop stop-opacity="1" stop-color="rgb(98.191833%, 67.407227%, 7.713318%)" offset="0.269531"/><stop stop-opacity="1" stop-color="rgb(98.199463%, 67.169189%, 7.6828%)" offset="0.273438"/><stop stop-opacity="1" stop-color="rgb(98.205566%, 66.929626%, 7.650757%)" offset="0.277344"/><stop stop-opacity="1" stop-color="rgb(98.213196%, 66.690063%, 7.620239%)" offset="0.28125"/><stop stop-opacity="1" stop-color="rgb(98.219299%, 66.4505%, 7.588196%)" offset="0.285156"/><stop stop-opacity="1" stop-color="rgb(98.226929%, 66.212463%, 7.556152%)" offset="0.289062"/><stop stop-opacity="1" stop-color="rgb(98.233032%, 65.9729%, 7.524109%)" offset="0.292969"/><stop stop-opacity="1" stop-color="rgb(98.240662%, 65.734863%, 7.493591%)" offset="0.296875"/><stop stop-opacity="1" stop-color="rgb(98.246765%, 65.4953%, 7.461548%)" offset="0.300781"/><stop stop-opacity="1" stop-color="rgb(98.254395%, 65.255737%, 7.429504%)" offset="0.304688"/><stop stop-opacity="1" stop-color="rgb(98.260498%, 65.016174%, 7.397461%)" offset="0.308594"/><stop stop-opacity="1" stop-color="rgb(98.268127%, 64.778137%, 7.366943%)" offset="0.3125"/><stop stop-opacity="1" stop-color="rgb(98.274231%, 64.538574%, 7.3349%)" offset="0.316406"/><stop stop-opacity="1" stop-color="rgb(98.28186%, 64.300537%, 7.304382%)" offset="0.320313"/><stop stop-opacity="1" stop-color="rgb(98.287964%, 64.060974%, 7.272339%)" offset="0.324219"/><stop stop-opacity="1" stop-color="rgb(98.295593%, 63.821411%, 7.240295%)" offset="0.328125"/><stop stop-opacity="1" stop-color="rgb(98.301697%, 63.581848%, 7.208252%)" offset="0.332031"/><stop stop-opacity="1" stop-color="rgb(98.309326%, 63.343811%, 7.177734%)" offset="0.335938"/><stop stop-opacity="1" stop-color="rgb(98.31543%, 63.104248%, 7.145691%)" offset="0.339844"/><stop stop-opacity="1" stop-color="rgb(98.323059%, 62.866211%, 7.113647%)" offset="0.34375"/><stop stop-opacity="1" stop-color="rgb(98.329163%, 62.626648%, 7.081604%)" offset="0.347656"/><stop stop-opacity="1" stop-color="rgb(98.336792%, 62.387085%, 7.051086%)" offset="0.351562"/><stop stop-opacity="1" stop-color="rgb(98.342896%, 62.147522%, 7.019043%)" offset="0.355469"/><stop stop-opacity="1" stop-color="rgb(98.350525%, 61.909485%, 6.987%)" offset="0.359375"/><stop stop-opacity="1" stop-color="rgb(98.356628%, 61.669922%, 6.954956%)" offset="0.363281"/><stop stop-opacity="1" stop-color="rgb(98.364258%, 61.431885%, 6.924438%)" offset="0.367188"/><stop stop-opacity="1" stop-color="rgb(98.370361%, 61.192322%, 6.892395%)" offset="0.371094"/><stop stop-opacity="1" stop-color="rgb(98.377991%, 60.952759%, 6.861877%)" offset="0.375"/><stop stop-opacity="1" stop-color="rgb(98.384094%, 60.713196%, 6.829834%)" offset="0.378906"/><stop stop-opacity="1" stop-color="rgb(98.391724%, 60.475159%, 6.797791%)" offset="0.382812"/><stop stop-opacity="1" stop-color="rgb(98.397827%, 60.235596%, 6.765747%)" offset="0.386719"/><stop stop-opacity="1" stop-color="rgb(98.405457%, 59.996033%, 6.735229%)" offset="0.390625"/><stop stop-opacity="1" stop-color="rgb(98.41156%, 59.75647%, 6.703186%)" offset="0.394531"/><stop stop-opacity="1" stop-color="rgb(98.419189%, 59.518433%, 6.671143%)" offset="0.398437"/><stop stop-opacity="1" stop-color="rgb(98.425293%, 59.27887%, 6.639099%)" offset="0.402344"/><stop stop-opacity="1" stop-color="rgb(98.432922%, 59.040833%, 6.608582%)" offset="0.40625"/><stop stop-opacity="1" stop-color="rgb(98.439026%, 58.80127%, 6.576538%)" offset="0.410156"/><stop stop-opacity="1" stop-color="rgb(98.446655%, 58.561707%, 6.544495%)" offset="0.414062"/><stop stop-opacity="1" stop-color="rgb(98.454285%, 58.322144%, 6.512451%)" offset="0.417969"/><stop stop-opacity="1" stop-color="rgb(98.461914%, 58.084106%, 6.481934%)" offset="0.421875"/><stop stop-opacity="1" stop-color="rgb(98.468018%, 57.844543%, 6.44989%)" offset="0.425781"/><stop stop-opacity="1" stop-color="rgb(98.475647%, 57.606506%, 6.419373%)" offset="0.429688"/><stop stop-opacity="1" stop-color="rgb(98.48175%, 57.366943%, 6.387329%)" offset="0.433594"/><stop stop-opacity="1" stop-color="rgb(98.48938%, 57.12738%, 6.355286%)" offset="0.4375"/><stop stop-opacity="1" stop-color="rgb(98.495483%, 56.887817%, 6.323242%)" offset="0.441406"/><stop stop-opacity="1" stop-color="rgb(98.503113%, 56.64978%, 6.292725%)" offset="0.445312"/><stop stop-opacity="1" stop-color="rgb(98.509216%, 56.410217%, 6.260681%)" offset="0.449219"/><stop stop-opacity="1" stop-color="rgb(98.516846%, 56.17218%, 6.228638%)" offset="0.453125"/><stop stop-opacity="1" stop-color="rgb(98.522949%, 55.932617%, 6.196594%)" offset="0.457031"/><stop stop-opacity="1" stop-color="rgb(98.530579%, 55.693054%, 6.166077%)" offset="0.460937"/><stop stop-opacity="1" stop-color="rgb(98.536682%, 55.453491%, 6.134033%)" offset="0.464844"/><stop stop-opacity="1" stop-color="rgb(98.544312%, 55.215454%, 6.10199%)" offset="0.46875"/><stop stop-opacity="1" stop-color="rgb(98.550415%, 54.975891%, 6.069946%)" offset="0.472656"/><stop stop-opacity="1" stop-color="rgb(98.558044%, 54.737854%, 6.039429%)" offset="0.476562"/><stop stop-opacity="1" stop-color="rgb(98.564148%, 54.498291%, 6.007385%)" offset="0.480469"/><stop stop-opacity="1" stop-color="rgb(98.571777%, 54.258728%, 5.976868%)" offset="0.484375"/><stop stop-opacity="1" stop-color="rgb(98.577881%, 54.019165%, 5.944824%)" offset="0.488281"/><stop stop-opacity="1" stop-color="rgb(98.58551%, 53.781128%, 5.912781%)" offset="0.492188"/><stop stop-opacity="1" stop-color="rgb(98.591614%, 53.541565%, 5.880737%)" offset="0.496094"/><stop stop-opacity="1" stop-color="rgb(98.599243%, 53.303528%, 5.85022%)" offset="0.5"/><stop stop-opacity="1" stop-color="rgb(98.605347%, 53.063965%, 5.818176%)" offset="0.503906"/><stop stop-opacity="1" stop-color="rgb(98.612976%, 52.824402%, 5.786133%)" offset="0.507813"/><stop stop-opacity="1" stop-color="rgb(98.61908%, 52.584839%, 5.754089%)" offset="0.511719"/><stop stop-opacity="1" stop-color="rgb(98.626709%, 52.346802%, 5.723572%)" offset="0.515625"/><stop stop-opacity="1" stop-color="rgb(98.632812%, 52.107239%, 5.691528%)" offset="0.519531"/><stop stop-opacity="1" stop-color="rgb(98.640442%, 51.869202%, 5.659485%)" offset="0.523438"/><stop stop-opacity="1" stop-color="rgb(98.646545%, 51.629639%, 5.627441%)" offset="0.527344"/><stop stop-opacity="1" stop-color="rgb(98.654175%, 51.390076%, 5.596924%)" offset="0.53125"/><stop stop-opacity="1" stop-color="rgb(98.660278%, 51.150513%, 5.56488%)" offset="0.535156"/><stop stop-opacity="1" stop-color="rgb(98.667908%, 50.912476%, 5.534363%)" offset="0.539062"/><stop stop-opacity="1" stop-color="rgb(98.674011%, 50.672913%, 5.502319%)" offset="0.542969"/><stop stop-opacity="1" stop-color="rgb(98.681641%, 50.434875%, 5.470276%)" offset="0.546875"/><stop stop-opacity="1" stop-color="rgb(98.687744%, 50.195312%, 5.438232%)" offset="0.550781"/><stop stop-opacity="1" stop-color="rgb(98.695374%, 49.95575%, 5.407715%)" offset="0.554688"/><stop stop-opacity="1" stop-color="rgb(98.701477%, 49.716187%, 5.375671%)" offset="0.558594"/><stop stop-opacity="1" stop-color="rgb(98.709106%, 49.478149%, 5.343628%)" offset="0.5625"/><stop stop-opacity="1" stop-color="rgb(98.71521%, 49.238586%, 5.311584%)" offset="0.566406"/><stop stop-opacity="1" stop-color="rgb(98.722839%, 49.000549%, 5.281067%)" offset="0.570312"/><stop stop-opacity="1" stop-color="rgb(98.728943%, 48.760986%, 5.249023%)" offset="0.574219"/><stop stop-opacity="1" stop-color="rgb(98.736572%, 48.521423%, 5.21698%)" offset="0.578125"/><stop stop-opacity="1" stop-color="rgb(98.742676%, 48.28186%, 5.184937%)" offset="0.582031"/><stop stop-opacity="1" stop-color="rgb(98.750305%, 48.043823%, 5.154419%)" offset="0.585938"/><stop stop-opacity="1" stop-color="rgb(98.756409%, 47.80426%, 5.122375%)" offset="0.589844"/><stop stop-opacity="1" stop-color="rgb(98.764038%, 47.566223%, 5.091858%)" offset="0.59375"/><stop stop-opacity="1" stop-color="rgb(98.770142%, 47.32666%, 5.059814%)" offset="0.597656"/><stop stop-opacity="1" stop-color="rgb(98.777771%, 47.087097%, 5.027771%)" offset="0.601562"/><stop stop-opacity="1" stop-color="rgb(98.783875%, 46.847534%, 4.995728%)" offset="0.605469"/><stop stop-opacity="1" stop-color="rgb(98.791504%, 46.609497%, 4.96521%)" offset="0.609375"/><stop stop-opacity="1" stop-color="rgb(98.797607%, 46.369934%, 4.933167%)" offset="0.613281"/><stop stop-opacity="1" stop-color="rgb(98.805237%, 46.131897%, 4.901123%)" offset="0.617188"/><stop stop-opacity="1" stop-color="rgb(98.812866%, 45.892334%, 4.86908%)" offset="0.621094"/><stop stop-opacity="1" stop-color="rgb(98.820496%, 45.652771%, 4.838562%)" offset="0.625"/><stop stop-opacity="1" stop-color="rgb(98.826599%, 45.413208%, 4.806519%)" offset="0.628906"/><stop stop-opacity="1" stop-color="rgb(98.834229%, 45.175171%, 4.774475%)" offset="0.632812"/><stop stop-opacity="1" stop-color="rgb(98.840332%, 44.935608%, 4.742432%)" offset="0.636719"/><stop stop-opacity="1" stop-color="rgb(98.847961%, 44.697571%, 4.711914%)" offset="0.640625"/><stop stop-opacity="1" stop-color="rgb(98.854065%, 44.458008%, 4.679871%)" offset="0.644531"/><stop stop-opacity="1" stop-color="rgb(98.861694%, 44.218445%, 4.649353%)" offset="0.648437"/><stop stop-opacity="1" stop-color="rgb(98.867798%, 43.978882%, 4.61731%)" offset="0.652344"/><stop stop-opacity="1" stop-color="rgb(98.875427%, 43.740845%, 4.585266%)" offset="0.65625"/><stop stop-opacity="1" stop-color="rgb(98.881531%, 43.501282%, 4.553223%)" offset="0.660156"/><stop stop-opacity="1" stop-color="rgb(98.88916%, 43.263245%, 4.522705%)" offset="0.664062"/><stop stop-opacity="1" stop-color="rgb(98.895264%, 43.023682%, 4.490662%)" offset="0.667969"/><stop stop-opacity="1" stop-color="rgb(98.902893%, 42.784119%, 4.458618%)" offset="0.671875"/><stop stop-opacity="1" stop-color="rgb(98.908997%, 42.544556%, 4.426575%)" offset="0.675781"/><stop stop-opacity="1" stop-color="rgb(98.916626%, 42.306519%, 4.396057%)" offset="0.679687"/><stop stop-opacity="1" stop-color="rgb(98.922729%, 42.066956%, 4.364014%)" offset="0.683594"/><stop stop-opacity="1" stop-color="rgb(98.930359%, 41.828918%, 4.33197%)" offset="0.6875"/><stop stop-opacity="1" stop-color="rgb(98.936462%, 41.589355%, 4.299927%)" offset="0.691406"/><stop stop-opacity="1" stop-color="rgb(98.944092%, 41.349792%, 4.269409%)" offset="0.695312"/><stop stop-opacity="1" stop-color="rgb(98.950195%, 41.110229%, 4.237366%)" offset="0.699219"/><stop stop-opacity="1" stop-color="rgb(98.957825%, 40.872192%, 4.206848%)" offset="0.703125"/><stop stop-opacity="1" stop-color="rgb(98.963928%, 40.632629%, 4.174805%)" offset="0.707031"/><stop stop-opacity="1" stop-color="rgb(98.971558%, 40.394592%, 4.142761%)" offset="0.710938"/><stop stop-opacity="1" stop-color="rgb(98.977661%, 40.155029%, 4.110718%)" offset="0.714844"/><stop stop-opacity="1" stop-color="rgb(98.985291%, 39.915466%, 4.0802%)" offset="0.71875"/><stop stop-opacity="1" stop-color="rgb(98.991394%, 39.675903%, 4.048157%)" offset="0.722656"/><stop stop-opacity="1" stop-color="rgb(98.999023%, 39.437866%, 4.016113%)" offset="0.726562"/><stop stop-opacity="1" stop-color="rgb(99.005127%, 39.198303%, 3.98407%)" offset="0.730469"/><stop stop-opacity="1" stop-color="rgb(99.012756%, 38.960266%, 3.953552%)" offset="0.734375"/><stop stop-opacity="1" stop-color="rgb(99.01886%, 38.720703%, 3.921509%)" offset="0.738281"/><stop stop-opacity="1" stop-color="rgb(99.026489%, 38.48114%, 3.889465%)" offset="0.742188"/><stop stop-opacity="1" stop-color="rgb(99.032593%, 38.241577%, 3.857422%)" offset="0.746094"/><stop stop-opacity="1" stop-color="rgb(99.040222%, 38.00354%, 3.826904%)" offset="0.75"/><stop stop-opacity="1" stop-color="rgb(99.046326%, 37.763977%, 3.794861%)" offset="0.753906"/><stop stop-opacity="1" stop-color="rgb(99.053955%, 37.52594%, 3.764343%)" offset="0.757812"/><stop stop-opacity="1" stop-color="rgb(99.060059%, 37.286377%, 3.7323%)" offset="0.761719"/><stop stop-opacity="1" stop-color="rgb(99.067688%, 37.046814%, 3.700256%)" offset="0.765625"/><stop stop-opacity="1" stop-color="rgb(99.073792%, 36.807251%, 3.668213%)" offset="0.769531"/><stop stop-opacity="1" stop-color="rgb(99.081421%, 36.569214%, 3.637695%)" offset="0.773437"/><stop stop-opacity="1" stop-color="rgb(99.087524%, 36.329651%, 3.605652%)" offset="0.777344"/><stop stop-opacity="1" stop-color="rgb(99.095154%, 36.091614%, 3.573608%)" offset="0.78125"/><stop stop-opacity="1" stop-color="rgb(99.101257%, 35.852051%, 3.541565%)" offset="0.785156"/><stop stop-opacity="1" stop-color="rgb(99.108887%, 35.612488%, 3.511047%)" offset="0.789062"/><stop stop-opacity="1" stop-color="rgb(99.11499%, 35.372925%, 3.479004%)" offset="0.792969"/><stop stop-opacity="1" stop-color="rgb(99.12262%, 35.134888%, 3.44696%)" offset="0.796875"/><stop stop-opacity="1" stop-color="rgb(99.128723%, 34.895325%, 3.414917%)" offset="0.800781"/><stop stop-opacity="1" stop-color="rgb(99.136353%, 34.657288%, 3.384399%)" offset="0.804687"/><stop stop-opacity="1" stop-color="rgb(99.142456%, 34.417725%, 3.352356%)" offset="0.808594"/><stop stop-opacity="1" stop-color="rgb(99.150085%, 34.178162%, 3.321838%)" offset="0.8125"/><stop stop-opacity="1" stop-color="rgb(99.156189%, 33.938599%, 3.289795%)" offset="0.816406"/><stop stop-opacity="1" stop-color="rgb(99.163818%, 33.700562%, 3.257751%)" offset="0.820312"/><stop stop-opacity="1" stop-color="rgb(99.171448%, 33.460999%, 3.225708%)" offset="0.824219"/><stop stop-opacity="1" stop-color="rgb(99.179077%, 33.222961%, 3.19519%)" offset="0.828125"/><stop stop-opacity="1" stop-color="rgb(99.185181%, 32.983398%, 3.163147%)" offset="0.832031"/><stop stop-opacity="1" stop-color="rgb(99.19281%, 32.743835%, 3.131104%)" offset="0.835938"/><stop stop-opacity="1" stop-color="rgb(99.195862%, 32.621765%, 3.114319%)" offset="0.84375"/><stop stop-opacity="1" stop-color="rgb(99.198914%, 32.499695%, 3.09906%)" offset="0.875"/><stop stop-opacity="1" stop-color="rgb(99.198914%, 32.499695%, 3.09906%)" offset="1"/></linearGradient></defs><g clip-path="url(#be14861988)"><g clip-path="url(#5decb58df2)"><path fill="url(#25b3337569)" d="M 0.03125 69.574219 L 0.03125 5.074219 L 64.46875 5.074219 L 64.46875 69.574219 Z M 0.03125 69.574219 " fill-rule="nonzero"/></g></g><g fill="#3b3b3b" fill-opacity="1"><g transform="translate(69.307537, 48.592396)"><g><path d="M 22.8125 -22.515625 C 23.394531 -21.796875 23.828125 -20.816406 24.109375 -19.578125 C 24.222656 -18.992188 24.316406 -18.34375 24.390625 -17.625 C 24.460938 -16.90625 24.5 -16.140625 24.5 -15.328125 L 24.5 -9.390625 C 24.5 -8.546875 24.460938 -7.765625 24.390625 -7.046875 C 24.316406 -6.328125 24.222656 -5.675781 24.109375 -5.09375 C 23.828125 -3.875 23.394531 -2.882812 22.8125 -2.125 C 22.195312 -1.34375 21.421875 -0.796875 20.484375 -0.484375 C 19.523438 -0.140625 18.394531 0.03125 17.09375 0.03125 L 9.78125 0.03125 C 8.457031 0.03125 7.335938 -0.140625 6.421875 -0.484375 C 5.472656 -0.796875 4.691406 -1.351562 4.078125 -2.15625 C 3.472656 -2.9375 3.039062 -3.914062 2.78125 -5.09375 C 2.644531 -5.675781 2.546875 -6.328125 2.484375 -7.046875 C 2.429688 -7.765625 2.40625 -8.546875 2.40625 -9.390625 L 2.40625 -15.328125 C 2.40625 -17.046875 2.53125 -18.460938 2.78125 -19.578125 C 3.039062 -20.753906 3.472656 -21.734375 4.078125 -22.515625 C 4.691406 -23.273438 5.472656 -23.835938 6.421875 -24.203125 C 7.378906 -24.535156 8.5 -24.703125 9.78125 -24.703125 L 17.09375 -24.703125 C 18.394531 -24.703125 19.523438 -24.535156 20.484375 -24.203125 C 21.421875 -23.835938 22.195312 -23.273438 22.8125 -22.515625 Z M 20.03125 -15.828125 C 20.03125 -16.265625 20.019531 -16.664062 20 -17.03125 C 19.976562 -17.40625 19.9375 -17.742188 19.875 -18.046875 C 19.800781 -18.609375 19.632812 -19.0625 19.375 -19.40625 C 19.164062 -19.675781 18.863281 -19.894531 18.46875 -20.0625 C 18.269531 -20.125 18.046875 -20.171875 17.796875 -20.203125 C 17.546875 -20.242188 17.257812 -20.265625 16.9375 -20.265625 L 9.921875 -20.265625 C 9.597656 -20.265625 9.3125 -20.242188 9.0625 -20.203125 C 8.820312 -20.171875 8.597656 -20.125 8.390625 -20.0625 C 7.992188 -19.894531 7.695312 -19.675781 7.5 -19.40625 C 7.375 -19.238281 7.269531 -19.039062 7.1875 -18.8125 C 7.113281 -18.582031 7.046875 -18.328125 6.984375 -18.046875 C 6.941406 -17.742188 6.90625 -17.40625 6.875 -17.03125 C 6.851562 -16.664062 6.84375 -16.265625 6.84375 -15.828125 L 6.84375 -8.84375 C 6.84375 -8.40625 6.851562 -8 6.875 -7.625 C 6.90625 -7.257812 6.941406 -6.925781 6.984375 -6.625 C 7.046875 -6.363281 7.113281 -6.117188 7.1875 -5.890625 C 7.269531 -5.660156 7.375 -5.46875 7.5 -5.3125 C 7.695312 -4.988281 7.992188 -4.765625 8.390625 -4.640625 C 8.753906 -4.503906 9.265625 -4.4375 9.921875 -4.4375 L 16.9375 -4.4375 C 17.601562 -4.4375 18.113281 -4.503906 18.46875 -4.640625 C 18.863281 -4.765625 19.164062 -4.988281 19.375 -5.3125 C 19.613281 -5.601562 19.78125 -6.039062 19.875 -6.625 C 19.9375 -6.925781 19.976562 -7.257812 20 -7.625 C 20.019531 -8 20.03125 -8.40625 20.03125 -8.84375 Z M 20.03125 -15.828125 "/></g></g></g><g fill="#3b3b3b" fill-opacity="1"><g transform="translate(97.695326, 48.592396)"><g><path d="M 22.84375 -17.546875 L 22.84375 -17.359375 C 22.84375 -17.378906 22.84375 -17.394531 22.84375 -17.40625 C 22.84375 -17.414062 22.84375 -17.429688 22.84375 -17.453125 C 22.84375 -17.472656 22.84375 -17.488281 22.84375 -17.5 C 22.84375 -17.507812 22.84375 -17.523438 22.84375 -17.546875 Z M 23.421875 -1.296875 C 23.535156 -1.128906 23.570312 -0.882812 23.53125 -0.5625 C 23.476562 -0.164062 23.25 0.03125 22.84375 0.03125 L 19.546875 0.03125 C 19.285156 0.03125 19.078125 -0.03125 18.921875 -0.15625 C 18.859375 -0.1875 18.800781 -0.242188 18.75 -0.328125 C 18.707031 -0.410156 18.65625 -0.488281 18.59375 -0.5625 L 13.15625 -10.1875 L 6.84375 -10.1875 L 6.84375 -1.015625 C 6.84375 -0.554688 6.734375 -0.265625 6.515625 -0.140625 C 6.304688 -0.0234375 6.132812 0.03125 6 0.03125 L 3.265625 0.03125 C 3.128906 0.03125 2.953125 -0.0234375 2.734375 -0.140625 C 2.515625 -0.265625 2.40625 -0.554688 2.40625 -1.015625 L 2.40625 -13.609375 C 2.40625 -14.066406 2.515625 -14.347656 2.734375 -14.453125 C 2.953125 -14.566406 3.128906 -14.625 3.265625 -14.625 L 16.3125 -14.625 C 17.070312 -14.625 17.601562 -14.847656 17.90625 -15.296875 C 18.21875 -15.734375 18.375 -16.453125 18.375 -17.453125 C 18.375 -18.453125 18.21875 -19.171875 17.90625 -19.609375 C 17.601562 -20.046875 17.070312 -20.265625 16.3125 -20.265625 L 3.265625 -20.265625 C 3.128906 -20.265625 2.953125 -20.316406 2.734375 -20.421875 C 2.515625 -20.535156 2.40625 -20.820312 2.40625 -21.28125 L 2.40625 -23.65625 C 2.40625 -24.132812 2.515625 -24.425781 2.734375 -24.53125 C 2.953125 -24.644531 3.128906 -24.703125 3.265625 -24.703125 L 17.09375 -24.703125 C 19.144531 -24.703125 20.625 -24.0625 21.53125 -22.78125 C 22.382812 -21.539062 22.820312 -19.765625 22.84375 -17.453125 C 22.820312 -15.128906 22.382812 -13.347656 21.53125 -12.109375 C 20.769531 -11.066406 19.648438 -10.457031 18.171875 -10.28125 Z M 23.421875 -1.296875 "/></g></g></g><g fill="#3b3b3b" fill-opacity="1"><g transform="translate(125.153843, 48.592396)"><g><path d="M 22.703125 -24.703125 C 22.816406 -24.703125 22.984375 -24.640625 23.203125 -24.515625 C 23.421875 -24.398438 23.53125 -24.113281 23.53125 -23.65625 L 23.53125 -21.3125 C 23.53125 -20.832031 23.421875 -20.535156 23.203125 -20.421875 C 22.984375 -20.316406 22.816406 -20.265625 22.703125 -20.265625 L 9.953125 -20.265625 C 9.628906 -20.265625 9.335938 -20.242188 9.078125 -20.203125 C 8.828125 -20.171875 8.597656 -20.125 8.390625 -20.0625 C 8.035156 -19.914062 7.738281 -19.695312 7.5 -19.40625 C 7.257812 -19.039062 7.097656 -18.597656 7.015625 -18.078125 C 6.898438 -17.484375 6.84375 -16.734375 6.84375 -15.828125 L 6.84375 -8.875 C 6.84375 -7.976562 6.898438 -7.226562 7.015625 -6.625 C 7.097656 -6.082031 7.257812 -5.644531 7.5 -5.3125 C 7.738281 -4.988281 8.035156 -4.765625 8.390625 -4.640625 C 8.753906 -4.503906 9.273438 -4.4375 9.953125 -4.4375 L 18.34375 -4.4375 C 18.6875 -4.4375 18.925781 -4.546875 19.0625 -4.765625 C 19.125 -4.867188 19.1875 -5.03125 19.25 -5.25 C 19.3125 -5.46875 19.34375 -5.804688 19.34375 -6.265625 C 19.34375 -6.265625 19.34375 -6.40625 19.34375 -6.6875 C 19.34375 -6.96875 19.34375 -7.316406 19.34375 -7.734375 C 19.34375 -8.148438 19.335938 -8.566406 19.328125 -8.984375 C 19.316406 -9.410156 19.3125 -9.765625 19.3125 -10.046875 C 19.3125 -10.328125 19.3125 -10.46875 19.3125 -10.46875 L 11.84375 -10.46875 C 11.71875 -10.46875 11.546875 -10.519531 11.328125 -10.625 C 11.109375 -10.738281 11 -11.046875 11 -11.546875 L 11 -13.828125 C 11 -14.304688 11.109375 -14.601562 11.328125 -14.71875 C 11.546875 -14.84375 11.71875 -14.90625 11.84375 -14.90625 L 22.453125 -14.90625 C 22.660156 -14.90625 22.890625 -14.828125 23.140625 -14.671875 C 23.390625 -14.523438 23.515625 -14.160156 23.515625 -13.578125 L 23.515625 -5.546875 C 23.515625 -3.566406 23.222656 -2.148438 22.640625 -1.296875 C 22.035156 -0.410156 21.175781 0.03125 20.0625 0.03125 L 9.8125 0.03125 C 8.507812 0.03125 7.378906 -0.140625 6.421875 -0.484375 C 5.492188 -0.796875 4.722656 -1.34375 4.109375 -2.125 C 3.484375 -2.925781 3.039062 -3.90625 2.78125 -5.0625 C 2.644531 -5.664062 2.546875 -6.328125 2.484375 -7.046875 C 2.429688 -7.765625 2.40625 -8.546875 2.40625 -9.390625 L 2.40625 -15.328125 C 2.40625 -16.140625 2.429688 -16.90625 2.484375 -17.625 C 2.546875 -18.34375 2.644531 -18.992188 2.78125 -19.578125 C 2.925781 -20.179688 3.109375 -20.726562 3.328125 -21.21875 C 3.546875 -21.707031 3.804688 -22.140625 4.109375 -22.515625 C 4.671875 -23.253906 5.441406 -23.816406 6.421875 -24.203125 C 7.378906 -24.535156 8.507812 -24.703125 9.8125 -24.703125 Z M 22.703125 -24.703125 "/></g></g></g><g fill="#3b3b3b" fill-opacity="1"><g transform="translate(152.582376, 48.592396)"><g><path d="M 20.71875 -24.703125 C 20.84375 -24.703125 21.015625 -24.640625 21.234375 -24.515625 C 21.453125 -24.398438 21.5625 -24.113281 21.5625 -23.65625 L 21.5625 -21.34375 C 21.5625 -20.863281 21.453125 -20.5625 21.234375 -20.4375 C 21.015625 -20.320312 20.84375 -20.265625 20.71875 -20.265625 L 9.953125 -20.265625 C 9.273438 -20.265625 8.753906 -20.195312 8.390625 -20.0625 C 8.035156 -19.9375 7.738281 -19.71875 7.5 -19.40625 C 7.28125 -19.101562 7.109375 -18.660156 6.984375 -18.078125 C 6.941406 -17.796875 6.90625 -17.46875 6.875 -17.09375 C 6.851562 -16.726562 6.84375 -16.316406 6.84375 -15.859375 L 6.84375 -8.875 C 6.84375 -8.4375 6.851562 -8.023438 6.875 -7.640625 C 6.90625 -7.265625 6.941406 -6.925781 6.984375 -6.625 C 7.046875 -6.34375 7.113281 -6.09375 7.1875 -5.875 C 7.269531 -5.65625 7.375 -5.46875 7.5 -5.3125 C 7.738281 -4.988281 8.035156 -4.765625 8.390625 -4.640625 C 8.753906 -4.503906 9.273438 -4.4375 9.953125 -4.4375 L 20.71875 -4.4375 C 20.84375 -4.4375 21.015625 -4.375 21.234375 -4.25 C 21.453125 -4.132812 21.5625 -3.847656 21.5625 -3.390625 L 21.5625 -1.015625 C 21.5625 -0.554688 21.453125 -0.265625 21.234375 -0.140625 C 21.015625 -0.0234375 20.84375 0.03125 20.71875 0.03125 L 9.8125 0.03125 C 8.507812 0.03125 7.378906 -0.140625 6.421875 -0.484375 C 5.492188 -0.796875 4.722656 -1.34375 4.109375 -2.125 C 3.484375 -2.925781 3.039062 -3.90625 2.78125 -5.0625 C 2.644531 -5.664062 2.546875 -6.328125 2.484375 -7.046875 C 2.429688 -7.765625 2.40625 -8.546875 2.40625 -9.390625 L 2.40625 -15.328125 C 2.40625 -16.140625 2.429688 -16.90625 2.484375 -17.625 C 2.546875 -18.34375 2.644531 -18.992188 2.78125 -19.578125 C 3.039062 -20.773438 3.484375 -21.753906 4.109375 -22.515625 C 4.691406 -23.273438 5.460938 -23.835938 6.421875 -24.203125 C 7.378906 -24.535156 8.507812 -24.703125 9.8125 -24.703125 Z M 20.71875 -24.703125 "/></g></g></g><g fill="#3b3b3b" fill-opacity="1"><g transform="translate(178.032466, 48.592396)"><g><path d="M 22.8125 -22.515625 C 23.394531 -21.796875 23.828125 -20.816406 24.109375 -19.578125 C 24.222656 -18.992188 24.316406 -18.34375 24.390625 -17.625 C 24.460938 -16.90625 24.5 -16.140625 24.5 -15.328125 L 24.5 -9.390625 C 24.5 -8.546875 24.460938 -7.765625 24.390625 -7.046875 C 24.316406 -6.328125 24.222656 -5.675781 24.109375 -5.09375 C 23.828125 -3.875 23.394531 -2.882812 22.8125 -2.125 C 22.195312 -1.34375 21.421875 -0.796875 20.484375 -0.484375 C 19.523438 -0.140625 18.394531 0.03125 17.09375 0.03125 L 9.78125 0.03125 C 8.457031 0.03125 7.335938 -0.140625 6.421875 -0.484375 C 5.472656 -0.796875 4.691406 -1.351562 4.078125 -2.15625 C 3.472656 -2.9375 3.039062 -3.914062 2.78125 -5.09375 C 2.644531 -5.675781 2.546875 -6.328125 2.484375 -7.046875 C 2.429688 -7.765625 2.40625 -8.546875 2.40625 -9.390625 L 2.40625 -15.328125 C 2.40625 -17.046875 2.53125 -18.460938 2.78125 -19.578125 C 3.039062 -20.753906 3.472656 -21.734375 4.078125 -22.515625 C 4.691406 -23.273438 5.472656 -23.835938 6.421875 -24.203125 C 7.378906 -24.535156 8.5 -24.703125 9.78125 -24.703125 L 17.09375 -24.703125 C 18.394531 -24.703125 19.523438 -24.535156 20.484375 -24.203125 C 21.421875 -23.835938 22.195312 -23.273438 22.8125 -22.515625 Z M 20.03125 -15.828125 C 20.03125 -16.265625 20.019531 -16.664062 20 -17.03125 C 19.976562 -17.40625 19.9375 -17.742188 19.875 -18.046875 C 19.800781 -18.609375 19.632812 -19.0625 19.375 -19.40625 C 19.164062 -19.675781 18.863281 -19.894531 18.46875 -20.0625 C 18.269531 -20.125 18.046875 -20.171875 17.796875 -20.203125 C 17.546875 -20.242188 17.257812 -20.265625 16.9375 -20.265625 L 9.921875 -20.265625 C 9.597656 -20.265625 9.3125 -20.242188 9.0625 -20.203125 C 8.820312 -20.171875 8.597656 -20.125 8.390625 -20.0625 C 7.992188 -19.894531 7.695312 -19.675781 7.5 -19.40625 C 7.375 -19.238281 7.269531 -19.039062 7.1875 -18.8125 C 7.113281 -18.582031 7.046875 -18.328125 6.984375 -18.046875 C 6.941406 -17.742188 6.90625 -17.40625 6.875 -17.03125 C 6.851562 -16.664062 6.84375 -16.265625 6.84375 -15.828125 L 6.84375 -8.84375 C 6.84375 -8.40625 6.851562 -8 6.875 -7.625 C 6.90625 -7.257812 6.941406 -6.925781 6.984375 -6.625 C 7.046875 -6.363281 7.113281 -6.117188 7.1875 -5.890625 C 7.269531 -5.660156 7.375 -5.46875 7.5 -5.3125 C 7.695312 -4.988281 7.992188 -4.765625 8.390625 -4.640625 C 8.753906 -4.503906 9.265625 -4.4375 9.921875 -4.4375 L 16.9375 -4.4375 C 17.601562 -4.4375 18.113281 -4.503906 18.46875 -4.640625 C 18.863281 -4.765625 19.164062 -4.988281 19.375 -5.3125 C 19.613281 -5.601562 19.78125 -6.039062 19.875 -6.625 C 19.9375 -6.925781 19.976562 -7.257812 20 -7.625 C 20.019531 -8 20.03125 -8.40625 20.03125 -8.84375 Z M 20.03125 -15.828125 "/></g></g></g><g fill="#3b3b3b" fill-opacity="1"><g transform="translate(206.420255, 48.592396)"><g><path d="M 23.625 -24.703125 C 23.75 -24.703125 23.921875 -24.644531 24.140625 -24.53125 C 24.359375 -24.425781 24.46875 -24.132812 24.46875 -23.65625 L 24.46875 -3.84375 C 24.46875 -2.382812 24.257812 -1.382812 23.84375 -0.84375 C 23.414062 -0.257812 22.765625 0.03125 21.890625 0.03125 L 19.703125 0.03125 C 19.296875 0.03125 18.957031 0 18.6875 -0.0625 C 18.539062 -0.101562 18.394531 -0.144531 18.25 -0.1875 C 18.113281 -0.238281 17.988281 -0.304688 17.875 -0.390625 C 17.632812 -0.523438 17.414062 -0.742188 17.21875 -1.046875 C 17.113281 -1.191406 17 -1.351562 16.875 -1.53125 C 16.757812 -1.707031 16.640625 -1.914062 16.515625 -2.15625 L 7.015625 -19.015625 C 6.992188 -19.046875 6.972656 -19.066406 6.953125 -19.078125 C 6.929688 -19.085938 6.921875 -19.09375 6.921875 -19.09375 L 6.78125 -19.09375 C 6.78125 -19.09375 6.78125 -19.085938 6.78125 -19.078125 C 6.78125 -19.066406 6.78125 -19.054688 6.78125 -19.046875 L 6.78125 -1.015625 C 6.78125 -0.554688 6.671875 -0.265625 6.453125 -0.140625 C 6.242188 -0.0234375 6.070312 0.03125 5.9375 0.03125 L 3.265625 0.03125 C 3.128906 0.03125 2.953125 -0.0234375 2.734375 -0.140625 C 2.515625 -0.265625 2.40625 -0.554688 2.40625 -1.015625 L 2.40625 -20.84375 C 2.40625 -22.300781 2.613281 -23.3125 3.03125 -23.875 C 3.46875 -24.425781 4.117188 -24.703125 4.984375 -24.703125 L 7.21875 -24.703125 C 7.425781 -24.703125 7.617188 -24.695312 7.796875 -24.6875 C 7.972656 -24.675781 8.132812 -24.660156 8.28125 -24.640625 C 8.59375 -24.585938 8.867188 -24.46875 9.109375 -24.28125 C 9.316406 -24.144531 9.53125 -23.914062 9.75 -23.59375 C 9.84375 -23.457031 9.941406 -23.296875 10.046875 -23.109375 C 10.160156 -22.929688 10.28125 -22.734375 10.40625 -22.515625 L 19.875 -5.671875 C 19.894531 -5.609375 19.925781 -5.578125 19.96875 -5.578125 L 20.125 -5.578125 C 20.125 -5.597656 20.125 -5.609375 20.125 -5.609375 C 20.125 -5.609375 20.125 -5.617188 20.125 -5.640625 L 20.125 -23.65625 C 20.125 -24.132812 20.226562 -24.425781 20.4375 -24.53125 C 20.644531 -24.644531 20.816406 -24.703125 20.953125 -24.703125 Z M 23.625 -24.703125 "/></g></g></g><g fill="#3b3b3b" fill-opacity="1"><g transform="translate(234.778071, 48.592396)"><g><path d="M 23.625 -24.703125 C 23.75 -24.703125 23.921875 -24.644531 24.140625 -24.53125 C 24.359375 -24.425781 24.46875 -24.132812 24.46875 -23.65625 L 24.46875 -3.84375 C 24.46875 -2.382812 24.257812 -1.382812 23.84375 -0.84375 C 23.414062 -0.257812 22.765625 0.03125 21.890625 0.03125 L 19.703125 0.03125 C 19.296875 0.03125 18.957031 0 18.6875 -0.0625 C 18.539062 -0.101562 18.394531 -0.144531 18.25 -0.1875 C 18.113281 -0.238281 17.988281 -0.304688 17.875 -0.390625 C 17.632812 -0.523438 17.414062 -0.742188 17.21875 -1.046875 C 17.113281 -1.191406 17 -1.351562 16.875 -1.53125 C 16.757812 -1.707031 16.640625 -1.914062 16.515625 -2.15625 L 7.015625 -19.015625 C 6.992188 -19.046875 6.972656 -19.066406 6.953125 -19.078125 C 6.929688 -19.085938 6.921875 -19.09375 6.921875 -19.09375 L 6.78125 -19.09375 C 6.78125 -19.09375 6.78125 -19.085938 6.78125 -19.078125 C 6.78125 -19.066406 6.78125 -19.054688 6.78125 -19.046875 L 6.78125 -1.015625 C 6.78125 -0.554688 6.671875 -0.265625 6.453125 -0.140625 C 6.242188 -0.0234375 6.070312 0.03125 5.9375 0.03125 L 3.265625 0.03125 C 3.128906 0.03125 2.953125 -0.0234375 2.734375 -0.140625 C 2.515625 -0.265625 2.40625 -0.554688 2.40625 -1.015625 L 2.40625 -20.84375 C 2.40625 -22.300781 2.613281 -23.3125 3.03125 -23.875 C 3.46875 -24.425781 4.117188 -24.703125 4.984375 -24.703125 L 7.21875 -24.703125 C 7.425781 -24.703125 7.617188 -24.695312 7.796875 -24.6875 C 7.972656 -24.675781 8.132812 -24.660156 8.28125 -24.640625 C 8.59375 -24.585938 8.867188 -24.46875 9.109375 -24.28125 C 9.316406 -24.144531 9.53125 -23.914062 9.75 -23.59375 C 9.84375 -23.457031 9.941406 -23.296875 10.046875 -23.109375 C 10.160156 -22.929688 10.28125 -22.734375 10.40625 -22.515625 L 19.875 -5.671875 C 19.894531 -5.609375 19.925781 -5.578125 19.96875 -5.578125 L 20.125 -5.578125 C 20.125 -5.597656 20.125 -5.609375 20.125 -5.609375 C 20.125 -5.609375 20.125 -5.617188 20.125 -5.640625 L 20.125 -23.65625 C 20.125 -24.132812 20.226562 -24.425781 20.4375 -24.53125 C 20.644531 -24.644531 20.816406 -24.703125 20.953125 -24.703125 Z M 23.625 -24.703125 "/></g></g></g><g fill="#3b3b3b" fill-opacity="1"><g transform="translate(263.135877, 48.592396)"><g><path d="M 20.421875 -5.375 C 20.554688 -5.375 20.734375 -5.316406 20.953125 -5.203125 C 21.171875 -5.085938 21.28125 -4.800781 21.28125 -4.34375 L 21.28125 -1.046875 C 21.28125 -0.585938 21.171875 -0.300781 20.953125 -0.1875 C 20.734375 -0.0820312 20.554688 -0.03125 20.421875 -0.03125 L 9.78125 -0.03125 C 9.113281 -0.03125 8.5 -0.0664062 7.9375 -0.140625 C 7.382812 -0.222656 6.878906 -0.359375 6.421875 -0.546875 C 5.441406 -0.878906 4.660156 -1.425781 4.078125 -2.1875 C 3.472656 -2.96875 3.039062 -3.945312 2.78125 -5.125 C 2.6875 -5.625 2.601562 -6.171875 2.53125 -6.765625 C 2.457031 -7.367188 2.414062 -8.019531 2.40625 -8.71875 L 2.40625 -8.875 L 2.453125 -12.65625 C 2.515625 -12.875 2.625 -13.125 2.78125 -13.40625 C 3.226562 -14.1875 3.910156 -14.601562 4.828125 -14.65625 L 20.296875 -14.6875 C 20.421875 -14.6875 20.59375 -14.628906 20.8125 -14.515625 C 21.03125 -14.410156 21.140625 -14.128906 21.140625 -13.671875 L 21.140625 -11.296875 C 21.140625 -10.835938 21.03125 -10.546875 20.8125 -10.421875 C 20.59375 -10.304688 20.421875 -10.25 20.296875 -10.25 L 6.890625 -10.25 C 6.890625 -10.25 6.882812 -10.140625 6.875 -9.921875 C 6.863281 -9.703125 6.851562 -9.453125 6.84375 -9.171875 C 6.84375 -8.890625 6.84375 -8.640625 6.84375 -8.421875 C 6.84375 -8.203125 6.84375 -8.09375 6.84375 -8.09375 C 6.851562 -8.007812 6.859375 -7.921875 6.859375 -7.828125 C 6.859375 -7.742188 6.867188 -7.664062 6.890625 -7.59375 C 6.972656 -7.03125 7.144531 -6.578125 7.40625 -6.234375 C 7.644531 -5.929688 7.945312 -5.710938 8.3125 -5.578125 C 8.53125 -5.515625 8.765625 -5.460938 9.015625 -5.421875 C 9.265625 -5.390625 9.546875 -5.375 9.859375 -5.375 Z M 5.03125 -14.421875 Z M 20.453125 -24.765625 C 20.566406 -24.765625 20.734375 -24.703125 20.953125 -24.578125 C 21.171875 -24.460938 21.28125 -24.175781 21.28125 -23.71875 L 21.28125 -21.34375 C 21.28125 -20.882812 21.171875 -20.59375 20.953125 -20.46875 C 20.734375 -20.351562 20.566406 -20.296875 20.453125 -20.296875 L 3.203125 -20.328125 C 3.085938 -20.328125 2.925781 -20.378906 2.71875 -20.484375 C 2.507812 -20.597656 2.40625 -20.882812 2.40625 -21.34375 L 2.40625 -23.6875 C 2.40625 -24.164062 2.507812 -24.460938 2.71875 -24.578125 C 2.925781 -24.703125 3.085938 -24.765625 3.203125 -24.765625 Z M 20.453125 -24.765625 "/></g></g></g><g fill="#3b3b3b" fill-opacity="1"><g transform="translate(288.316172, 48.592396)"><g><path d="M 20.71875 -24.703125 C 20.84375 -24.703125 21.015625 -24.640625 21.234375 -24.515625 C 21.453125 -24.398438 21.5625 -24.113281 21.5625 -23.65625 L 21.5625 -21.34375 C 21.5625 -20.863281 21.453125 -20.5625 21.234375 -20.4375 C 21.015625 -20.320312 20.84375 -20.265625 20.71875 -20.265625 L 9.953125 -20.265625 C 9.273438 -20.265625 8.753906 -20.195312 8.390625 -20.0625 C 8.035156 -19.9375 7.738281 -19.71875 7.5 -19.40625 C 7.28125 -19.101562 7.109375 -18.660156 6.984375 -18.078125 C 6.941406 -17.796875 6.90625 -17.46875 6.875 -17.09375 C 6.851562 -16.726562 6.84375 -16.316406 6.84375 -15.859375 L 6.84375 -8.875 C 6.84375 -8.4375 6.851562 -8.023438 6.875 -7.640625 C 6.90625 -7.265625 6.941406 -6.925781 6.984375 -6.625 C 7.046875 -6.34375 7.113281 -6.09375 7.1875 -5.875 C 7.269531 -5.65625 7.375 -5.46875 7.5 -5.3125 C 7.738281 -4.988281 8.035156 -4.765625 8.390625 -4.640625 C 8.753906 -4.503906 9.273438 -4.4375 9.953125 -4.4375 L 20.71875 -4.4375 C 20.84375 -4.4375 21.015625 -4.375 21.234375 -4.25 C 21.453125 -4.132812 21.5625 -3.847656 21.5625 -3.390625 L 21.5625 -1.015625 C 21.5625 -0.554688 21.453125 -0.265625 21.234375 -0.140625 C 21.015625 -0.0234375 20.84375 0.03125 20.71875 0.03125 L 9.8125 0.03125 C 8.507812 0.03125 7.378906 -0.140625 6.421875 -0.484375 C 5.492188 -0.796875 4.722656 -1.34375 4.109375 -2.125 C 3.484375 -2.925781 3.039062 -3.90625 2.78125 -5.0625 C 2.644531 -5.664062 2.546875 -6.328125 2.484375 -7.046875 C 2.429688 -7.765625 2.40625 -8.546875 2.40625 -9.390625 L 2.40625 -15.328125 C 2.40625 -16.140625 2.429688 -16.90625 2.484375 -17.625 C 2.546875 -18.34375 2.644531 -18.992188 2.78125 -19.578125 C 3.039062 -20.773438 3.484375 -21.753906 4.109375 -22.515625 C 4.691406 -23.273438 5.460938 -23.835938 6.421875 -24.203125 C 7.378906 -24.535156 8.507812 -24.703125 9.8125 -24.703125 Z M 20.71875 -24.703125 "/></g></g></g><g fill="#3b3b3b" fill-opacity="1"><g transform="translate(313.766274, 48.592396)"><g><path d="M 23.125 -24.703125 C 23.257812 -24.703125 23.4375 -24.644531 23.65625 -24.53125 C 23.875 -24.425781 23.984375 -24.144531 23.984375 -23.6875 L 23.984375 -21.34375 C 23.984375 -20.84375 23.875 -20.535156 23.65625 -20.421875 C 23.4375 -20.316406 23.257812 -20.265625 23.125 -20.265625 L 15.40625 -20.265625 L 15.40625 -1.015625 C 15.40625 -0.554688 15.300781 -0.269531 15.09375 -0.15625 C 14.882812 -0.0507812 14.710938 0 14.578125 0 L 11.8125 0 C 11.695312 0 11.523438 -0.0507812 11.296875 -0.15625 C 11.078125 -0.269531 10.96875 -0.554688 10.96875 -1.015625 L 10.96875 -20.265625 L 3.265625 -20.265625 C 3.128906 -20.265625 2.953125 -20.316406 2.734375 -20.421875 C 2.515625 -20.535156 2.40625 -20.84375 2.40625 -21.34375 L 2.40625 -23.6875 C 2.40625 -24.144531 2.515625 -24.425781 2.734375 -24.53125 C 2.953125 -24.644531 3.128906 -24.703125 3.265625 -24.703125 Z M 23.125 -24.703125 "/></g></g></g></svg>