<svg xmlns="http://www.w3.org/2000/svg" xmlns:xlink="http://www.w3.org/1999/xlink" width="500" zoomAndPan="magnify" viewBox="0 0 375 374.999991" height="500" preserveAspectRatio="xMidYMid meet" version="1.0"><defs><g/><clipPath id="5b3003a58a"><path d="M 122 121 L 253 121 L 253 162.75 L 122 162.75 Z M 122 121 " clip-rule="nonzero"/></clipPath><clipPath id="6a5fb402f5"><path d="M 246 156 L 322 156 L 322 162.75 L 246 162.75 Z M 246 156 " clip-rule="nonzero"/></clipPath><clipPath id="7421ea6b20"><path d="M 312 138 L 336.339844 138 L 336.339844 162.75 L 312 162.75 Z M 312 138 " clip-rule="nonzero"/></clipPath><clipPath id="4af4e22c1d"><path d="M 138 37.5 L 163 37.5 L 163 62 L 138 62 Z M 138 37.5 " clip-rule="nonzero"/></clipPath><clipPath id="37ef8eeb32"><path d="M 59 139 L 84 139 L 84 162.75 L 59 162.75 Z M 59 139 " clip-rule="nonzero"/></clipPath><clipPath id="40b447b046"><path d="M 150 150 L 225 150 L 225 162.75 L 150 162.75 Z M 150 150 " clip-rule="nonzero"/></clipPath><clipPath id="b62e0234da"><path d="M 121 211.753906 L 251 211.753906 L 251 254 L 121 254 Z M 121 211.753906 " clip-rule="nonzero"/></clipPath><clipPath id="05f8cd4dca"><path d="M 290 211.753906 L 315 211.753906 L 315 237 L 290 237 Z M 290 211.753906 " clip-rule="nonzero"/></clipPath><clipPath id="26016b356e"><path d="M 52 211.753906 L 128 211.753906 L 128 219 L 52 219 Z M 52 211.753906 " clip-rule="nonzero"/></clipPath><clipPath id="a061704bcb"><path d="M 37.5 212 L 62 212 L 62 237 L 37.5 237 Z M 37.5 212 " clip-rule="nonzero"/></clipPath><clipPath id="26a421f9ce"><path d="M 211 313 L 236 313 L 236 337.5 L 211 337.5 Z M 211 313 " clip-rule="nonzero"/></clipPath><clipPath id="bef3eefd3a"><path d="M 149 211.753906 L 224 211.753906 L 224 225 L 149 225 Z M 149 211.753906 " clip-rule="nonzero"/></clipPath></defs><g clip-path="url(#5b3003a58a)"><path fill="#f58447" d="M 183.898438 253.226562 C 165.617188 253.226562 134.199219 251.929688 129.148438 243.253906 C 124.769531 235.722656 123.0625 206.867188 122.929688 184.445312 C 122.839844 169.539062 123.328125 134.253906 129.714844 128.488281 C 136.648438 122.230469 179.367188 121.914062 187.859375 121.914062 C 199.359375 121.914062 237.445312 122.378906 244.667969 128.417969 C 251.550781 134.164062 252.207031 166.558594 251.988281 185.355469 C 251.773438 203.589844 250.101562 236.34375 245.199219 243.441406 C 238.625 252.953125 189.480469 253.226562 183.898438 253.226562 Z M 187.859375 127.726562 C 154.324219 127.726562 135.945312 130.695312 133.613281 132.804688 C 131.621094 134.675781 128.535156 150.371094 128.746094 184.53125 C 128.910156 211.300781 131.246094 235.285156 134.175781 240.328125 C 135.769531 243.066406 150.675781 247.410156 183.898438 247.410156 C 217.050781 247.410156 238.359375 243.109375 240.414062 240.132812 C 242.972656 236.433594 245.824219 214.90625 246.171875 185.285156 C 246.578125 150.625 243.179688 134.746094 240.941406 132.875 C 237.949219 130.382812 218.332031 127.726562 187.859375 127.726562 Z M 187.859375 127.726562 " fill-opacity="1" fill-rule="nonzero"/></g><path fill="#f58447" d="M 285.117188 152.804688 L 249.109375 152.804688 C 247.503906 152.804688 246.203125 151.503906 246.203125 149.898438 C 246.203125 148.292969 247.503906 146.988281 249.109375 146.988281 L 285.117188 146.988281 C 286.722656 146.988281 288.027344 148.292969 288.027344 149.898438 C 288.023438 151.503906 286.722656 152.804688 285.117188 152.804688 Z M 285.117188 152.804688 " fill-opacity="1" fill-rule="nonzero"/><g clip-path="url(#6a5fb402f5)"><path fill="#f58447" d="M 289.214844 192.746094 L 249.109375 192.746094 C 247.503906 192.746094 246.203125 191.445312 246.203125 189.839844 C 246.203125 188.234375 247.503906 186.929688 249.109375 186.929688 L 286.835938 186.929688 L 316.726562 157.523438 C 317.871094 156.398438 319.710938 156.414062 320.839844 157.558594 C 321.964844 158.703125 321.949219 160.542969 320.804688 161.671875 Z M 289.214844 192.746094 " fill-opacity="1" fill-rule="nonzero"/></g><g clip-path="url(#7421ea6b20)"><path fill="#f58447" d="M 324.230469 162.695312 C 317.589844 162.695312 312.1875 157.289062 312.1875 150.648438 C 312.1875 144.007812 317.589844 138.605469 324.230469 138.605469 C 330.875 138.605469 336.277344 144.007812 336.277344 150.648438 C 336.277344 157.292969 330.875 162.695312 324.230469 162.695312 Z M 324.230469 144.417969 C 320.796875 144.417969 318 147.214844 318 150.652344 C 318 154.085938 320.796875 156.882812 324.230469 156.882812 C 327.667969 156.882812 330.460938 154.085938 330.460938 150.652344 C 330.460938 147.214844 327.667969 144.417969 324.230469 144.417969 Z M 324.230469 144.417969 " fill-opacity="1" fill-rule="nonzero"/></g><path fill="#f58447" d="M 207.300781 127.625 C 205.691406 127.625 204.390625 126.324219 204.390625 124.714844 L 204.390625 88.707031 C 204.390625 87.101562 205.691406 85.800781 207.300781 85.800781 C 208.90625 85.800781 210.207031 87.101562 210.207031 88.707031 L 210.207031 124.714844 C 210.207031 126.324219 208.90625 127.625 207.300781 127.625 Z M 207.300781 127.625 " fill-opacity="1" fill-rule="nonzero"/><path fill="#f58447" d="M 150.027344 127.625 C 148.421875 127.625 147.121094 126.324219 147.121094 124.714844 L 147.121094 88.707031 C 147.121094 87.101562 148.421875 85.800781 150.027344 85.800781 C 151.632812 85.800781 152.9375 87.101562 152.9375 88.707031 L 152.9375 124.714844 C 152.933594 126.324219 151.632812 127.625 150.027344 127.625 Z M 150.027344 127.625 " fill-opacity="1" fill-rule="nonzero"/><path fill="#f58447" d="M 169.425781 125.546875 C 167.820312 125.546875 166.515625 124.246094 166.515625 122.640625 L 166.515625 102.628906 C 166.515625 101.023438 167.820312 99.722656 169.425781 99.722656 C 171.03125 99.722656 172.335938 101.023438 172.335938 102.628906 L 172.335938 122.640625 C 172.335938 124.246094 171.03125 125.546875 169.425781 125.546875 Z M 169.425781 125.546875 " fill-opacity="1" fill-rule="nonzero"/><path fill="#f58447" d="M 189.96875 127.625 C 188.363281 127.625 187.058594 126.324219 187.058594 124.714844 L 187.058594 86.992188 L 157.652344 57.101562 C 156.527344 55.957031 156.542969 54.117188 157.6875 52.988281 C 158.832031 51.863281 160.675781 51.878906 161.800781 53.023438 L 192.875 84.609375 L 192.875 124.714844 C 192.875 126.324219 191.574219 127.625 189.96875 127.625 Z M 189.96875 127.625 " fill-opacity="1" fill-rule="nonzero"/><path fill="#f58447" d="M 224.160156 127.625 C 222.554688 127.625 221.253906 126.324219 221.253906 124.714844 L 221.253906 79.570312 C 221.253906 77.964844 222.554688 76.660156 224.160156 76.660156 C 225.765625 76.660156 227.070312 77.964844 227.070312 79.570312 L 227.070312 124.714844 C 227.066406 126.324219 225.765625 127.625 224.160156 127.625 Z M 224.160156 127.625 " fill-opacity="1" fill-rule="nonzero"/><path fill="#f58447" d="M 224.160156 82.480469 C 217.519531 82.480469 212.113281 77.074219 212.113281 70.433594 C 212.113281 63.789062 217.519531 58.386719 224.160156 58.386719 C 230.804688 58.386719 236.207031 63.789062 236.207031 70.433594 C 236.207031 77.074219 230.804688 82.480469 224.160156 82.480469 Z M 224.160156 64.203125 C 220.726562 64.203125 217.929688 66.996094 217.929688 70.433594 C 217.929688 73.867188 220.722656 76.664062 224.160156 76.664062 C 227.597656 76.664062 230.390625 73.867188 230.390625 70.433594 C 230.390625 66.996094 227.597656 64.203125 224.160156 64.203125 Z M 224.160156 64.203125 " fill-opacity="1" fill-rule="nonzero"/><g clip-path="url(#4af4e22c1d)"><path fill="#f58447" d="M 150.777344 61.640625 C 144.136719 61.640625 138.730469 56.234375 138.730469 49.59375 C 138.730469 42.953125 144.136719 37.550781 150.777344 37.550781 C 157.421875 37.550781 162.824219 42.953125 162.824219 49.59375 C 162.824219 56.234375 157.421875 61.640625 150.777344 61.640625 Z M 150.777344 43.363281 C 147.34375 43.363281 144.546875 46.160156 144.546875 49.59375 C 144.546875 53.03125 147.34375 55.824219 150.777344 55.824219 C 154.214844 55.824219 157.007812 53.03125 157.007812 49.59375 C 157.007812 46.160156 154.214844 43.363281 150.777344 43.363281 Z M 150.777344 43.363281 " fill-opacity="1" fill-rule="nonzero"/></g><path fill="#f58447" d="M 125.878906 153.992188 L 80.734375 153.992188 C 79.128906 153.992188 77.828125 152.691406 77.828125 151.085938 C 77.828125 149.476562 79.128906 148.175781 80.734375 148.175781 L 125.878906 148.175781 C 127.488281 148.175781 128.789062 149.476562 128.789062 151.085938 C 128.789062 152.691406 127.484375 153.992188 125.878906 153.992188 Z M 125.878906 153.992188 " fill-opacity="1" fill-rule="nonzero"/><g clip-path="url(#37ef8eeb32)"><path fill="#f58447" d="M 71.597656 163.132812 C 64.953125 163.132812 59.550781 157.726562 59.550781 151.085938 C 59.550781 144.445312 64.953125 139.039062 71.597656 139.039062 C 78.238281 139.039062 83.640625 144.445312 83.640625 151.085938 C 83.640625 157.726562 78.238281 163.132812 71.597656 163.132812 Z M 71.597656 144.855469 C 68.160156 144.855469 65.367188 147.648438 65.367188 151.085938 C 65.367188 154.519531 68.160156 157.316406 71.597656 157.316406 C 75.03125 157.316406 77.828125 154.519531 77.828125 151.085938 C 77.828125 147.648438 75.03125 144.855469 71.597656 144.855469 Z M 71.597656 144.855469 " fill-opacity="1" fill-rule="nonzero"/></g><g clip-path="url(#40b447b046)"><path fill="#f58447" d="M 187.703125 224.84375 C 186.132812 224.84375 182.285156 224.625 180.507812 222.585938 C 179.964844 221.964844 178.996094 220.855469 178.402344 214.261719 C 177.183594 213.914062 175.984375 213.484375 174.820312 212.972656 C 170.105469 216.730469 168.527344 217 167.820312 217.117188 C 167.582031 217.15625 167.332031 217.179688 167.085938 217.179688 C 164.53125 217.179688 162.09375 214.976562 160.863281 213.664062 C 159.644531 212.359375 157.621094 209.808594 157.785156 207.40625 C 157.855469 206.355469 158.230469 204.894531 161.511719 200.847656 C 160.734375 199.445312 160.078125 197.980469 159.554688 196.464844 C 155.046875 195.882812 153.507812 195.15625 152.679688 194.570312 C 151.1875 193.511719 150.359375 191.515625 150.214844 188.640625 C 150.167969 187.667969 150.046875 182.707031 152.453125 180.605469 C 153.222656 179.9375 154.472656 179.1875 159.359375 178.648438 C 159.878906 177.039062 160.539062 175.484375 161.34375 173.996094 C 158.648438 170.484375 158.089844 168.910156 157.917969 167.921875 C 157.632812 166.238281 158.34375 164.371094 160.023438 162.382812 C 161.4375 160.707031 164.570312 157.878906 167.34375 157.878906 C 167.441406 157.878906 167.539062 157.878906 167.632812 157.886719 C 168.695312 157.960938 170.1875 158.347656 174.359375 161.753906 C 175.699219 161.140625 177.082031 160.632812 178.5 160.238281 C 179.171875 154.605469 180.0625 153.351562 180.46875 152.78125 C 181.925781 150.730469 184.953125 150.296875 187.234375 150.296875 C 188.804688 150.296875 192.652344 150.519531 194.429688 152.554688 C 194.984375 153.1875 195.976562 154.328125 196.566406 161.234375 C 197.578125 161.644531 198.570312 162.113281 199.53125 162.640625 C 204.683594 158.433594 206.421875 158.140625 207.117188 158.023438 C 207.355469 157.980469 207.605469 157.960938 207.851562 157.960938 C 210.40625 157.960938 212.84375 160.164062 214.070312 161.476562 C 215.292969 162.78125 217.316406 165.332031 217.152344 167.734375 C 217.097656 168.570312 216.984375 170.246094 211.832031 176.195312 C 212.136719 176.9375 212.433594 177.703125 212.679688 178.367188 C 216.039062 178.660156 220.4375 179.277344 222.257812 180.570312 C 223.75 181.628906 224.578125 183.621094 224.722656 186.5 C 224.769531 187.472656 224.894531 192.433594 222.484375 194.53125 C 221.839844 195.097656 220.546875 196.226562 212.46875 196.773438 C 212.21875 197.484375 211.953125 198.1875 211.71875 198.789062 C 213.90625 201.382812 216.640625 204.992188 217.019531 207.21875 C 217.304688 208.902344 216.597656 210.765625 214.914062 212.757812 C 213.5 214.433594 210.367188 217.261719 207.59375 217.261719 C 207.496094 217.261719 207.398438 217.257812 207.304688 217.253906 C 206.484375 217.195312 204.839844 217.085938 199.074219 212.128906 C 198.273438 212.550781 197.453125 212.929688 196.617188 213.269531 C 195.949219 220.273438 194.851562 221.820312 194.46875 222.355469 C 193.011719 224.410156 189.984375 224.84375 187.703125 224.84375 Z M 184.941406 218.664062 C 185.449219 218.828125 186.457031 219.027344 187.703125 219.027344 C 188.792969 219.027344 189.488281 218.878906 189.824219 218.769531 C 190.171875 217.808594 190.683594 214.90625 190.976562 210.964844 L 191.121094 209.019531 L 192.972656 208.414062 C 194.695312 207.851562 196.347656 207.078125 197.886719 206.113281 L 199.742188 204.945312 L 201.375 206.40625 C 204.628906 209.328125 206.769531 210.863281 207.679688 211.351562 C 208.789062 210.824219 210.734375 208.96875 211.203125 207.976562 C 210.695312 206.867188 208.464844 203.859375 206.183594 201.277344 L 204.976562 199.914062 L 205.675781 198.234375 C 205.691406 198.203125 207 195.050781 207.507812 193.210938 L 208.070312 191.1875 L 210.167969 191.082031 C 214.339844 190.875 217.425781 190.449219 218.574219 190.097656 C 218.988281 188.941406 219.054688 186.25 218.683594 185.21875 C 217.539062 184.792969 213.835938 184.242188 210.394531 184.03125 L 208.445312 183.910156 L 207.820312 182.058594 C 207.496094 181.105469 206.511719 178.347656 205.824219 177.023438 L 204.894531 175.238281 L 206.242188 173.742188 C 209.203125 170.445312 210.757812 168.277344 211.25 167.359375 C 210.726562 166.25 208.875 164.308594 207.878906 163.839844 C 207.09375 164.207031 204.960938 165.613281 201.703125 168.402344 L 200.046875 169.820312 L 198.21875 168.628906 C 196.566406 167.546875 194.78125 166.691406 192.914062 166.089844 L 191.03125 165.480469 L 190.90625 163.507812 C 190.644531 159.464844 190.25 157.324219 190 156.476562 C 189.488281 156.308594 188.480469 156.109375 187.238281 156.109375 C 186.152344 156.109375 185.457031 156.257812 185.121094 156.367188 C 184.882812 157.046875 184.429688 159.019531 184.074219 162.851562 L 183.875 165.015625 L 181.742188 165.4375 C 179.503906 165.878906 177.359375 166.65625 175.363281 167.757812 L 173.597656 168.730469 L 172.066406 167.417969 C 169.226562 164.980469 167.828125 164.097656 167.257812 163.789062 C 166.152344 164.316406 164.222656 166.152344 163.746094 167.148438 C 163.976562 167.621094 164.742188 169 167.113281 171.910156 L 168.441406 173.539062 L 167.308594 175.3125 C 165.984375 177.386719 165.023438 179.648438 164.449219 182.03125 L 163.957031 184.074219 L 161.863281 184.246094 C 158.460938 184.527344 156.957031 184.871094 156.363281 185.046875 C 155.953125 186.207031 155.890625 188.875 156.257812 189.914062 C 156.882812 190.128906 158.660156 190.554688 162.070312 190.898438 L 164.066406 191.101562 L 164.585938 193.039062 C 165.203125 195.339844 166.1875 197.519531 167.503906 199.515625 L 168.714844 201.34375 L 167.289062 203.007812 C 164.878906 205.828125 164 207.21875 163.691406 207.78125 C 164.222656 208.894531 166.066406 210.828125 167.058594 211.300781 C 167.714844 210.984375 169.484375 209.882812 172.550781 207.320312 L 174.042969 206.074219 L 175.761719 206.976562 C 177.644531 207.960938 179.644531 208.667969 181.710938 209.078125 L 183.898438 209.515625 L 184.046875 211.742188 C 184.304688 215.714844 184.691406 217.824219 184.941406 218.664062 Z M 184.941406 218.664062 " fill-opacity="1" fill-rule="nonzero"/></g><g clip-path="url(#b62e0234da)"><path fill="#ff914d" d="M 182.808594 253.226562 C 164.527344 253.226562 133.105469 251.929688 128.058594 243.253906 C 123.679688 235.722656 121.972656 206.867188 121.835938 184.445312 C 121.75 169.539062 122.234375 134.253906 128.625 128.488281 C 135.558594 122.230469 178.273438 121.914062 186.769531 121.914062 C 198.269531 121.914062 236.355469 122.378906 243.578125 128.417969 C 250.460938 134.164062 251.117188 166.558594 250.894531 185.355469 C 250.679688 203.589844 249.011719 236.34375 244.105469 243.441406 C 237.535156 252.953125 188.386719 253.226562 182.808594 253.226562 Z M 186.769531 127.726562 C 153.230469 127.726562 134.855469 130.695312 132.519531 132.804688 C 130.527344 134.675781 127.445312 150.371094 127.65625 184.53125 C 127.820312 211.300781 130.152344 235.285156 133.085938 240.328125 C 134.679688 243.066406 149.585938 247.410156 182.808594 247.410156 C 215.957031 247.410156 237.265625 243.109375 239.324219 240.132812 C 241.878906 236.433594 244.734375 214.90625 245.082031 185.285156 C 245.488281 150.625 242.089844 134.746094 239.851562 132.875 C 236.859375 130.382812 217.242188 127.726562 186.769531 127.726562 Z M 186.769531 127.726562 " fill-opacity="1" fill-rule="nonzero"/></g><path fill="#ff914d" d="M 293.164062 226.941406 L 248.019531 226.941406 C 246.414062 226.941406 245.113281 225.640625 245.113281 224.03125 C 245.113281 222.425781 246.414062 221.125 248.019531 221.125 L 293.164062 221.125 C 294.769531 221.125 296.074219 222.425781 296.074219 224.03125 C 296.074219 225.640625 294.769531 226.941406 293.164062 226.941406 Z M 293.164062 226.941406 " fill-opacity="1" fill-rule="nonzero"/><g clip-path="url(#05f8cd4dca)"><path fill="#ff914d" d="M 302.304688 236.078125 C 295.660156 236.078125 290.257812 230.675781 290.257812 224.03125 C 290.257812 217.390625 295.660156 211.988281 302.304688 211.988281 C 308.945312 211.988281 314.347656 217.390625 314.347656 224.03125 C 314.347656 230.675781 308.945312 236.078125 302.304688 236.078125 Z M 302.304688 217.800781 C 298.867188 217.800781 296.074219 220.597656 296.074219 224.03125 C 296.074219 227.46875 298.867188 230.265625 302.304688 230.265625 C 305.738281 230.265625 308.535156 227.46875 308.535156 224.03125 C 308.535156 220.597656 305.738281 217.800781 302.304688 217.800781 Z M 302.304688 217.800781 " fill-opacity="1" fill-rule="nonzero"/></g><path fill="#ff914d" d="M 124.789062 228.125 L 88.78125 228.125 C 87.175781 228.125 85.875 226.824219 85.875 225.21875 C 85.875 223.613281 87.175781 222.308594 88.78125 222.308594 L 124.789062 222.308594 C 126.394531 222.308594 127.699219 223.609375 127.699219 225.21875 C 127.695312 226.824219 126.394531 228.125 124.789062 228.125 Z M 124.789062 228.125 " fill-opacity="1" fill-rule="nonzero"/><g clip-path="url(#26016b356e)"><path fill="#ff914d" d="M 55.136719 218.425781 C 54.382812 218.425781 53.632812 218.136719 53.0625 217.558594 C 51.9375 216.414062 51.953125 214.574219 53.097656 213.445312 L 84.683594 182.371094 L 124.789062 182.371094 C 126.394531 182.371094 127.699219 183.671875 127.699219 185.277344 C 127.699219 186.886719 126.394531 188.1875 124.789062 188.1875 L 87.0625 188.1875 L 57.175781 217.59375 C 56.609375 218.148438 55.871094 218.425781 55.136719 218.425781 Z M 55.136719 218.425781 " fill-opacity="1" fill-rule="nonzero"/></g><g clip-path="url(#a061704bcb)"><path fill="#ff914d" d="M 49.667969 236.515625 C 43.023438 236.515625 37.621094 231.109375 37.621094 224.46875 C 37.621094 217.828125 43.023438 212.421875 49.667969 212.421875 C 56.308594 212.421875 61.714844 217.828125 61.714844 224.46875 C 61.714844 231.109375 56.308594 236.515625 49.667969 236.515625 Z M 49.667969 218.238281 C 46.230469 218.238281 43.4375 221.03125 43.4375 224.46875 C 43.4375 227.902344 46.230469 230.699219 49.667969 230.699219 C 53.101562 230.699219 55.898438 227.902344 55.898438 224.46875 C 55.898438 221.03125 53.105469 218.238281 49.667969 218.238281 Z M 49.667969 218.238281 " fill-opacity="1" fill-rule="nonzero"/></g><path fill="#ff914d" d="M 166.601562 289.316406 C 164.992188 289.316406 163.691406 288.015625 163.691406 286.410156 L 163.691406 250.402344 C 163.691406 248.792969 164.992188 247.492188 166.601562 247.492188 C 168.207031 247.492188 169.507812 248.792969 169.507812 250.402344 L 169.507812 286.410156 C 169.507812 288.015625 168.207031 289.316406 166.601562 289.316406 Z M 166.601562 289.316406 " fill-opacity="1" fill-rule="nonzero"/><path fill="#ff914d" d="M 223.871094 289.316406 C 222.265625 289.316406 220.964844 288.015625 220.964844 286.410156 L 220.964844 250.402344 C 220.964844 248.792969 222.265625 247.492188 223.871094 247.492188 C 225.476562 247.492188 226.777344 248.792969 226.777344 250.402344 L 226.777344 286.410156 C 226.78125 288.015625 225.476562 289.316406 223.871094 289.316406 Z M 223.871094 289.316406 " fill-opacity="1" fill-rule="nonzero"/><path fill="#ff914d" d="M 204.472656 275.394531 C 202.867188 275.394531 201.566406 274.09375 201.566406 272.488281 L 201.566406 252.476562 C 201.566406 250.871094 202.867188 249.570312 204.472656 249.570312 C 206.082031 249.570312 207.382812 250.871094 207.382812 252.476562 L 207.382812 272.488281 C 207.382812 274.09375 206.082031 275.394531 204.472656 275.394531 Z M 204.472656 275.394531 " fill-opacity="1" fill-rule="nonzero"/><path fill="#ff914d" d="M 214.171875 322.964844 C 213.421875 322.964844 212.667969 322.671875 212.101562 322.09375 L 181.023438 290.507812 L 181.023438 250.402344 C 181.023438 248.796875 182.324219 247.492188 183.929688 247.492188 C 185.539062 247.492188 186.839844 248.792969 186.839844 250.402344 L 186.839844 288.125 L 216.246094 318.015625 C 217.371094 319.160156 217.355469 321 216.210938 322.128906 C 215.644531 322.683594 214.910156 322.964844 214.171875 322.964844 Z M 214.171875 322.964844 " fill-opacity="1" fill-rule="nonzero"/><path fill="#ff914d" d="M 149.738281 298.457031 C 148.132812 298.457031 146.832031 297.152344 146.832031 295.546875 L 146.832031 250.402344 C 146.832031 248.792969 148.132812 247.492188 149.738281 247.492188 C 151.34375 247.492188 152.644531 248.792969 152.644531 250.402344 L 152.644531 295.546875 C 152.648438 297.152344 151.34375 298.457031 149.738281 298.457031 Z M 149.738281 298.457031 " fill-opacity="1" fill-rule="nonzero"/><path fill="#ff914d" d="M 149.738281 316.730469 C 143.097656 316.730469 137.691406 311.328125 137.691406 304.6875 C 137.691406 298.042969 143.09375 292.640625 149.738281 292.640625 C 156.378906 292.640625 161.785156 298.042969 161.785156 304.6875 C 161.785156 311.328125 156.378906 316.730469 149.738281 316.730469 Z M 149.738281 298.457031 C 146.300781 298.457031 143.507812 301.25 143.507812 304.6875 C 143.507812 308.121094 146.300781 310.917969 149.738281 310.917969 C 153.171875 310.917969 155.96875 308.121094 155.96875 304.6875 C 155.96875 301.25 153.175781 298.457031 149.738281 298.457031 Z M 149.738281 298.457031 " fill-opacity="1" fill-rule="nonzero"/><g clip-path="url(#26a421f9ce)"><path fill="#ff914d" d="M 223.121094 337.570312 C 216.480469 337.570312 211.074219 332.164062 211.074219 325.523438 C 211.074219 318.882812 216.480469 313.476562 223.121094 313.476562 C 229.765625 313.476562 235.167969 318.882812 235.167969 325.523438 C 235.167969 332.164062 229.765625 337.570312 223.121094 337.570312 Z M 223.121094 319.292969 C 219.683594 319.292969 216.890625 322.089844 216.890625 325.523438 C 216.890625 328.960938 219.683594 331.753906 223.121094 331.753906 C 226.558594 331.753906 229.351562 328.960938 229.351562 325.523438 C 229.351562 322.089844 226.558594 319.292969 223.121094 319.292969 Z M 223.121094 319.292969 " fill-opacity="1" fill-rule="nonzero"/></g><g clip-path="url(#bef3eefd3a)"><path fill="#ff914d" d="M 186.609375 224.84375 C 185.039062 224.84375 181.195312 224.625 179.414062 222.585938 C 178.875 221.964844 177.90625 220.855469 177.3125 214.261719 C 176.09375 213.914062 174.894531 213.484375 173.726562 212.972656 C 169.011719 216.730469 167.4375 217 166.730469 217.117188 C 166.488281 217.15625 166.242188 217.179688 165.996094 217.179688 C 163.441406 217.179688 161 214.976562 159.773438 213.664062 C 158.554688 212.359375 156.53125 209.808594 156.695312 207.40625 C 156.765625 206.355469 157.140625 204.894531 160.421875 200.847656 C 159.644531 199.445312 158.988281 197.980469 158.464844 196.464844 C 153.957031 195.882812 152.417969 195.15625 151.589844 194.570312 C 150.097656 193.511719 149.269531 191.515625 149.125 188.640625 C 149.074219 187.667969 148.953125 182.707031 151.359375 180.605469 C 152.128906 179.9375 153.378906 179.1875 158.269531 178.648438 C 158.785156 177.039062 159.449219 175.484375 160.253906 173.996094 C 157.558594 170.484375 156.996094 168.910156 156.828125 167.921875 C 156.542969 166.238281 157.25 164.371094 158.933594 162.382812 C 160.347656 160.707031 163.480469 157.878906 166.253906 157.878906 C 166.351562 157.878906 166.449219 157.878906 166.539062 157.886719 C 167.605469 157.960938 169.097656 158.347656 173.269531 161.753906 C 174.609375 161.140625 175.992188 160.632812 177.410156 160.238281 C 178.082031 154.605469 178.972656 153.351562 179.375 152.78125 C 180.835938 150.730469 183.863281 150.296875 186.144531 150.296875 C 187.714844 150.296875 191.5625 150.519531 193.339844 152.554688 C 193.894531 153.1875 194.886719 154.328125 195.472656 161.234375 C 196.488281 161.644531 197.476562 162.113281 198.4375 162.640625 C 203.589844 158.433594 205.332031 158.140625 206.027344 158.023438 C 206.265625 157.980469 206.511719 157.960938 206.761719 157.960938 C 209.316406 157.960938 211.753906 160.164062 212.980469 161.476562 C 214.203125 162.78125 216.226562 165.332031 216.0625 167.734375 C 216.003906 168.570312 215.890625 170.246094 210.738281 176.195312 C 211.046875 176.9375 211.339844 177.703125 211.585938 178.367188 C 214.949219 178.660156 219.347656 179.277344 221.164062 180.570312 C 222.660156 181.628906 223.488281 183.621094 223.632812 186.5 C 223.679688 187.472656 223.800781 192.433594 221.394531 194.53125 C 220.75 195.097656 219.453125 196.226562 211.375 196.773438 C 211.128906 197.484375 210.863281 198.1875 210.628906 198.789062 C 212.8125 201.382812 215.550781 204.992188 215.929688 207.21875 C 216.214844 208.902344 215.507812 210.765625 213.820312 212.757812 C 212.410156 214.433594 209.277344 217.261719 206.5 217.261719 C 206.40625 217.261719 206.308594 217.257812 206.214844 217.253906 C 205.390625 217.195312 203.75 217.085938 197.984375 212.128906 C 197.183594 212.550781 196.363281 212.929688 195.527344 213.269531 C 194.859375 220.273438 193.761719 221.820312 193.378906 222.355469 C 191.921875 224.410156 188.894531 224.84375 186.609375 224.84375 Z M 183.847656 218.664062 C 184.359375 218.828125 185.367188 219.027344 186.609375 219.027344 C 187.699219 219.027344 188.398438 218.878906 188.730469 218.769531 C 189.082031 217.808594 189.59375 214.90625 189.882812 210.964844 L 190.027344 209.019531 L 191.882812 208.414062 C 193.605469 207.851562 195.257812 207.078125 196.796875 206.113281 L 198.652344 204.945312 L 200.285156 206.40625 C 203.539062 209.328125 205.679688 210.863281 206.585938 211.351562 C 207.699219 210.824219 209.644531 208.96875 210.113281 207.976562 C 209.605469 206.867188 207.375 203.859375 205.09375 201.277344 L 203.886719 199.914062 L 204.585938 198.234375 C 204.597656 198.203125 205.910156 195.050781 206.417969 193.210938 L 206.980469 191.1875 L 209.078125 191.082031 C 213.246094 190.875 216.332031 190.449219 217.484375 190.097656 C 217.898438 188.941406 217.964844 186.25 217.589844 185.21875 C 216.449219 184.792969 212.742188 184.242188 209.304688 184.03125 L 207.355469 183.910156 L 206.726562 182.058594 C 206.40625 181.105469 205.417969 178.347656 204.730469 177.023438 L 203.804688 175.238281 L 205.148438 173.742188 C 208.113281 170.445312 209.667969 168.277344 210.160156 167.359375 C 209.632812 166.25 207.78125 164.308594 206.789062 163.839844 C 206 164.207031 203.871094 165.613281 200.613281 168.402344 L 198.953125 169.820312 L 197.128906 168.628906 C 195.476562 167.546875 193.691406 166.691406 191.820312 166.089844 L 189.941406 165.480469 L 189.8125 163.507812 C 189.550781 159.464844 189.160156 157.324219 188.90625 156.476562 C 188.398438 156.308594 187.390625 156.109375 186.144531 156.109375 C 185.0625 156.109375 184.363281 156.257812 184.03125 156.367188 C 183.792969 157.046875 183.335938 159.019531 182.984375 162.851562 L 182.785156 165.015625 L 180.648438 165.4375 C 178.414062 165.878906 176.265625 166.65625 174.269531 167.757812 L 172.507812 168.730469 L 170.976562 167.417969 C 168.136719 164.980469 166.734375 164.097656 166.167969 163.789062 C 165.058594 164.316406 163.132812 166.152344 162.65625 167.148438 C 162.882812 167.621094 163.652344 169 166.023438 171.910156 L 167.351562 173.539062 L 166.21875 175.3125 C 164.894531 177.386719 163.933594 179.648438 163.359375 182.03125 L 162.867188 184.074219 L 160.773438 184.246094 C 157.371094 184.527344 155.867188 184.871094 155.273438 185.046875 C 154.863281 186.207031 154.800781 188.875 155.167969 189.914062 C 155.789062 190.128906 157.570312 190.554688 160.980469 190.898438 L 162.976562 191.101562 L 163.496094 193.039062 C 164.113281 195.339844 165.09375 197.519531 166.414062 199.515625 L 167.625 201.34375 L 166.199219 203.007812 C 163.785156 205.828125 162.90625 207.21875 162.601562 207.78125 C 163.132812 208.894531 164.976562 210.828125 165.96875 211.300781 C 166.621094 210.984375 168.390625 209.882812 171.457031 207.320312 L 172.949219 206.074219 L 174.671875 206.976562 C 176.554688 207.960938 178.554688 208.667969 180.621094 209.078125 L 182.808594 209.515625 L 182.953125 211.742188 C 183.210938 215.714844 183.601562 217.824219 183.847656 218.664062 Z M 183.847656 218.664062 " fill-opacity="1" fill-rule="nonzero"/></g><g fill="#000000" fill-opacity="1"><g transform="translate(26.87216, 205.524278)"><g><path d="M 18.5625 0.53125 C 13.5625 0.53125 9.484375 -1.101562 6.328125 -4.375 C 3.179688 -7.65625 1.609375 -12.4375 1.609375 -18.71875 C 1.609375 -25 3.195312 -29.757812 6.375 -33 C 9.5625 -36.238281 13.675781 -37.859375 18.71875 -37.859375 C 23.757812 -37.859375 27.828125 -36.265625 30.921875 -33.078125 C 34.015625 -29.898438 35.5625 -25.078125 35.5625 -18.609375 C 35.5625 -12.148438 33.976562 -7.34375 30.8125 -4.1875 C 27.644531 -1.039062 23.5625 0.53125 18.5625 0.53125 Z M 18.578125 -27.609375 C 16.867188 -27.609375 15.4375 -26.820312 14.28125 -25.25 C 13.125 -23.6875 12.546875 -21.488281 12.546875 -18.65625 C 12.546875 -15.832031 13.097656 -13.660156 14.203125 -12.140625 C 15.304688 -10.628906 16.753906 -9.875 18.546875 -9.875 C 20.347656 -9.875 21.8125 -10.640625 22.9375 -12.171875 C 24.0625 -13.703125 24.625 -15.890625 24.625 -18.734375 C 24.625 -21.585938 24.046875 -23.78125 22.890625 -25.3125 C 21.734375 -26.84375 20.296875 -27.609375 18.578125 -27.609375 Z M 18.578125 -27.609375 "/></g></g></g><g fill="#000000" fill-opacity="1"><g transform="translate(64.038541, 205.524278)"><g><path d="M 12.875 -0.75 C 12.875 -0.175781 11.179688 0.109375 7.796875 0.109375 C 4.378906 0.109375 2.671875 -0.15625 2.671875 -0.6875 L 2.671875 -35.515625 C 2.671875 -36.765625 3.328125 -37.390625 4.640625 -37.390625 L 14.84375 -37.390625 C 24.207031 -37.390625 28.890625 -33.738281 28.890625 -26.4375 C 28.890625 -24.226562 28.460938 -22.222656 27.609375 -20.421875 C 26.753906 -18.628906 25.546875 -17.195312 23.984375 -16.125 L 30.703125 -4.90625 C 30.421875 -4.050781 29.5 -3.070312 27.9375 -1.96875 C 25.800781 -0.4375 24.035156 0.328125 22.640625 0.328125 C 21.253906 0.328125 20.222656 -0.171875 19.546875 -1.171875 L 14.53125 -12.875 L 12.875 -12.875 Z M 12.875 -27.9375 L 12.875 -19.921875 L 13.140625 -19.921875 C 16.523438 -19.921875 18.21875 -21.328125 18.21875 -24.140625 C 18.21875 -25.421875 17.882812 -26.375 17.21875 -27 C 16.5625 -27.625 15.488281 -27.9375 14 -27.9375 Z M 12.875 -27.9375 "/></g></g></g><g fill="#000000" fill-opacity="1"><g transform="translate(95.544527, 205.524278)"><g><path d="M 22.4375 -11.15625 L 22.53125 -18.421875 C 22.53125 -18.921875 23.046875 -19.25 24.078125 -19.40625 C 25.117188 -19.570312 25.976562 -19.65625 26.65625 -19.65625 L 28.734375 -19.5 C 30.085938 -19.28125 30.765625 -18.90625 30.765625 -18.375 L 30.546875 -1.65625 C 29.835938 -1.15625 28.40625 -0.664062 26.25 -0.1875 C 24.09375 0.289062 21.628906 0.53125 18.859375 0.53125 C 13.691406 0.53125 9.523438 -1.140625 6.359375 -4.484375 C 3.191406 -7.828125 1.609375 -12.738281 1.609375 -19.21875 C 1.609375 -24.738281 3.15625 -29.222656 6.25 -32.671875 C 9.34375 -36.128906 13.632812 -37.859375 19.125 -37.859375 C 21.613281 -37.859375 23.863281 -37.617188 25.875 -37.140625 C 27.882812 -36.660156 29.265625 -36.007812 30.015625 -35.1875 C 30.046875 -34.90625 30.0625 -34.375 30.0625 -33.59375 C 30.0625 -32.8125 29.796875 -31.695312 29.265625 -30.25 C 28.734375 -28.8125 28.128906 -27.734375 27.453125 -27.015625 C 26.773438 -26.304688 26.285156 -25.953125 25.984375 -25.953125 C 25.679688 -25.953125 25.359375 -26.082031 25.015625 -26.34375 C 24.679688 -26.613281 24.015625 -26.898438 23.015625 -27.203125 C 22.015625 -27.515625 21.054688 -27.671875 20.140625 -27.671875 C 17.929688 -27.671875 16.140625 -26.957031 14.765625 -25.53125 C 13.390625 -24.101562 12.703125 -21.894531 12.703125 -18.90625 C 12.703125 -15.914062 13.40625 -13.644531 14.8125 -12.09375 C 16.226562 -10.539062 17.851562 -9.765625 19.6875 -9.765625 C 21.519531 -9.765625 22.4375 -10.226562 22.4375 -11.15625 Z M 22.4375 -11.15625 "/></g></g></g><g fill="#000000" fill-opacity="1"><g transform="translate(128.705909, 205.524278)"><g><path d="M 17.9375 -37.859375 C 20.539062 -37.859375 22.828125 -37.492188 24.796875 -36.765625 C 26.773438 -36.035156 27.765625 -35.046875 27.765625 -33.796875 C 27.765625 -32.554688 27.289062 -31.019531 26.34375 -29.1875 C 25.40625 -27.351562 24.617188 -26.4375 23.984375 -26.4375 C 23.804688 -26.4375 23.597656 -26.535156 23.359375 -26.734375 C 23.128906 -26.929688 22.597656 -27.144531 21.765625 -27.375 C 20.929688 -27.601562 20.207031 -27.71875 19.59375 -27.71875 C 17.53125 -27.71875 15.863281 -26.988281 14.59375 -25.53125 C 13.332031 -24.070312 12.703125 -21.835938 12.703125 -18.828125 C 12.703125 -15.816406 13.351562 -13.582031 14.65625 -12.125 C 15.957031 -10.664062 17.601562 -9.9375 19.59375 -9.9375 C 20.414062 -9.9375 21.332031 -10.050781 22.34375 -10.28125 C 23.363281 -10.507812 24.085938 -10.835938 24.515625 -11.265625 C 24.585938 -11.335938 24.726562 -11.375 24.9375 -11.375 C 25.15625 -11.375 25.554688 -10.972656 26.140625 -10.171875 C 26.734375 -9.367188 27.273438 -8.316406 27.765625 -7.015625 C 28.265625 -5.722656 28.515625 -4.71875 28.515625 -4 C 28.515625 -2.613281 27.445312 -1.507812 25.3125 -0.6875 C 23.175781 0.125 20.648438 0.53125 17.734375 0.53125 C 13.035156 0.53125 9.171875 -1.125 6.140625 -4.4375 C 3.117188 -7.75 1.609375 -12.421875 1.609375 -18.453125 C 1.609375 -24.484375 3.164062 -29.222656 6.28125 -32.671875 C 9.394531 -36.128906 13.28125 -37.859375 17.9375 -37.859375 Z M 17.9375 -37.859375 "/></g></g></g><g fill="#000000" fill-opacity="1"><g transform="translate(158.663285, 205.524278)"><g><path d="M 18.5625 0.53125 C 13.5625 0.53125 9.484375 -1.101562 6.328125 -4.375 C 3.179688 -7.65625 1.609375 -12.4375 1.609375 -18.71875 C 1.609375 -25 3.195312 -29.757812 6.375 -33 C 9.5625 -36.238281 13.675781 -37.859375 18.71875 -37.859375 C 23.757812 -37.859375 27.828125 -36.265625 30.921875 -33.078125 C 34.015625 -29.898438 35.5625 -25.078125 35.5625 -18.609375 C 35.5625 -12.148438 33.976562 -7.34375 30.8125 -4.1875 C 27.644531 -1.039062 23.5625 0.53125 18.5625 0.53125 Z M 18.578125 -27.609375 C 16.867188 -27.609375 15.4375 -26.820312 14.28125 -25.25 C 13.125 -23.6875 12.546875 -21.488281 12.546875 -18.65625 C 12.546875 -15.832031 13.097656 -13.660156 14.203125 -12.140625 C 15.304688 -10.628906 16.753906 -9.875 18.546875 -9.875 C 20.347656 -9.875 21.8125 -10.640625 22.9375 -12.171875 C 24.0625 -13.703125 24.625 -15.890625 24.625 -18.734375 C 24.625 -21.585938 24.046875 -23.78125 22.890625 -25.3125 C 21.734375 -26.84375 20.296875 -27.609375 18.578125 -27.609375 Z M 18.578125 -27.609375 "/></g></g></g><g fill="#000000" fill-opacity="1"><g transform="translate(195.829666, 205.524278)"><g><path d="M 31.9375 -1.171875 C 31.9375 -0.421875 30.257812 -0.046875 26.90625 -0.046875 C 23.5625 -0.046875 21.75 -0.316406 21.46875 -0.859375 L 12.546875 -17.515625 L 12.546875 -0.90625 C 12.546875 -0.269531 10.898438 0.046875 7.609375 0.046875 C 4.316406 0.046875 2.671875 -0.269531 2.671875 -0.90625 L 2.671875 -36.640625 C 2.671875 -37.171875 4.078125 -37.4375 6.890625 -37.4375 C 7.992188 -37.4375 9.285156 -37.335938 10.765625 -37.140625 C 12.242188 -36.941406 13.140625 -36.578125 13.453125 -36.046875 L 22 -19.59375 L 22 -36.375 C 22 -37.050781 23.65625 -37.390625 26.96875 -37.390625 C 30.28125 -37.390625 31.9375 -37.050781 31.9375 -36.375 Z M 31.9375 -1.171875 "/></g></g></g><g fill="#000000" fill-opacity="1"><g transform="translate(230.43284, 205.524278)"><g><path d="M 31.9375 -1.171875 C 31.9375 -0.421875 30.257812 -0.046875 26.90625 -0.046875 C 23.5625 -0.046875 21.75 -0.316406 21.46875 -0.859375 L 12.546875 -17.515625 L 12.546875 -0.90625 C 12.546875 -0.269531 10.898438 0.046875 7.609375 0.046875 C 4.316406 0.046875 2.671875 -0.269531 2.671875 -0.90625 L 2.671875 -36.640625 C 2.671875 -37.171875 4.078125 -37.4375 6.890625 -37.4375 C 7.992188 -37.4375 9.285156 -37.335938 10.765625 -37.140625 C 12.242188 -36.941406 13.140625 -36.578125 13.453125 -36.046875 L 22 -19.59375 L 22 -36.375 C 22 -37.050781 23.65625 -37.390625 26.96875 -37.390625 C 30.28125 -37.390625 31.9375 -37.050781 31.9375 -36.375 Z M 31.9375 -1.171875 "/></g></g></g><g fill="#000000" fill-opacity="1"><g transform="translate(265.036014, 205.524278)"><g><path d="M 20.03125 -22.53125 C 20.707031 -22.53125 21.046875 -21.285156 21.046875 -18.796875 C 21.046875 -18.046875 20.960938 -17.164062 20.796875 -16.15625 C 20.640625 -15.144531 20.347656 -14.640625 19.921875 -14.640625 L 13.140625 -14.640625 L 13.140625 -9.296875 L 22.96875 -9.296875 C 23.570312 -9.296875 23.976562 -8.507812 24.1875 -6.9375 C 24.300781 -6.257812 24.359375 -5.535156 24.359375 -4.765625 C 24.359375 -4.003906 24.25 -3.019531 24.03125 -1.8125 C 23.820312 -0.601562 23.46875 0 22.96875 0 L 4.703125 0 C 3.347656 0 2.671875 -0.550781 2.671875 -1.65625 L 2.671875 -36 C 2.671875 -36.925781 3.082031 -37.390625 3.90625 -37.390625 L 23.015625 -37.390625 C 23.765625 -37.390625 24.140625 -35.8125 24.140625 -32.65625 C 24.140625 -29.507812 23.765625 -27.9375 23.015625 -27.9375 L 13.140625 -27.9375 L 13.140625 -22.53125 Z M 20.03125 -22.53125 "/></g></g></g><g fill="#000000" fill-opacity="1"><g transform="translate(291.362217, 205.524278)"><g><path d="M 17.9375 -37.859375 C 20.539062 -37.859375 22.828125 -37.492188 24.796875 -36.765625 C 26.773438 -36.035156 27.765625 -35.046875 27.765625 -33.796875 C 27.765625 -32.554688 27.289062 -31.019531 26.34375 -29.1875 C 25.40625 -27.351562 24.617188 -26.4375 23.984375 -26.4375 C 23.804688 -26.4375 23.597656 -26.535156 23.359375 -26.734375 C 23.128906 -26.929688 22.597656 -27.144531 21.765625 -27.375 C 20.929688 -27.601562 20.207031 -27.71875 19.59375 -27.71875 C 17.53125 -27.71875 15.863281 -26.988281 14.59375 -25.53125 C 13.332031 -24.070312 12.703125 -21.835938 12.703125 -18.828125 C 12.703125 -15.816406 13.351562 -13.582031 14.65625 -12.125 C 15.957031 -10.664062 17.601562 -9.9375 19.59375 -9.9375 C 20.414062 -9.9375 21.332031 -10.050781 22.34375 -10.28125 C 23.363281 -10.507812 24.085938 -10.835938 24.515625 -11.265625 C 24.585938 -11.335938 24.726562 -11.375 24.9375 -11.375 C 25.15625 -11.375 25.554688 -10.972656 26.140625 -10.171875 C 26.734375 -9.367188 27.273438 -8.316406 27.765625 -7.015625 C 28.265625 -5.722656 28.515625 -4.71875 28.515625 -4 C 28.515625 -2.613281 27.445312 -1.507812 25.3125 -0.6875 C 23.175781 0.125 20.648438 0.53125 17.734375 0.53125 C 13.035156 0.53125 9.171875 -1.125 6.140625 -4.4375 C 3.117188 -7.75 1.609375 -12.421875 1.609375 -18.453125 C 1.609375 -24.484375 3.164062 -29.222656 6.28125 -32.671875 C 9.394531 -36.128906 13.28125 -37.859375 17.9375 -37.859375 Z M 17.9375 -37.859375 "/></g></g></g><g fill="#000000" fill-opacity="1"><g transform="translate(321.319592, 205.524278)"><g><path d="M 18.75 -0.859375 C 18.75 -0.140625 16.984375 0.21875 13.453125 0.21875 C 9.929688 0.21875 8.171875 -0.140625 8.171875 -0.859375 L 8.171875 -27.671875 L 1.765625 -27.671875 C 1.160156 -27.671875 0.734375 -28.488281 0.484375 -30.125 C 0.378906 -30.90625 0.328125 -31.703125 0.328125 -32.515625 C 0.328125 -33.335938 0.378906 -34.140625 0.484375 -34.921875 C 0.734375 -36.566406 1.160156 -37.390625 1.765625 -37.390625 L 25 -37.390625 C 25.601562 -37.390625 26.03125 -36.566406 26.28125 -34.921875 C 26.382812 -34.140625 26.4375 -33.335938 26.4375 -32.515625 C 26.4375 -31.703125 26.382812 -30.90625 26.28125 -30.125 C 26.03125 -28.488281 25.601562 -27.671875 25 -27.671875 L 18.75 -27.671875 Z M 18.75 -0.859375 "/></g></g></g></svg>